<?xml version="1.0" encoding="utf-8" standalone="no"?>
<!DOCTYPE svg PUBLIC "-//W3C//DTD SVG 1.1//EN"
  "http://www.w3.org/Graphics/SVG/1.1/DTD/svg11.dtd">
<!-- Created with matplotlib (https://matplotlib.org/) -->
<svg height="720pt" version="1.1" viewBox="0 0 864 720" width="864pt" xmlns="http://www.w3.org/2000/svg" xmlns:xlink="http://www.w3.org/1999/xlink">
 <defs>
  <style type="text/css">
*{stroke-linecap:butt;stroke-linejoin:round;}
  </style>
 </defs>
 <g id="figure_1">
  <g id="patch_1">
   <path d="M 0 720 
L 864 720 
L 864 0 
L 0 0 
z
" style="fill:#ffffff;"/>
  </g>
  <g id="axes_1">
   <g id="patch_2">
    <path d="M 54.175 205.4 
L 849.7 205.4 
L 849.7 26.8 
L 54.175 26.8 
z
" style="fill:#ffffff;"/>
   </g>
   <g id="PolyCollection_1">
    <defs>
     <path d="M 105.286824 -554.652558 
L 102.503801 -554.652558 
L 99.674385 -561.406859 
L 93.837451 -568.16116 
L 84.868021 -574.915462 
L 74.856075 -581.669763 
L 67.229103 -588.424064 
L 64.119063 -595.178365 
L 64.947207 -601.932667 
L 67.650501 -608.686968 
L 70.442314 -615.441269 
L 72.202713 -622.19557 
L 72.227069 -628.949872 
L 70.698692 -635.704173 
L 69.498463 -642.458474 
L 71.48404 -649.212776 
L 77.920157 -655.967077 
L 86.902947 -662.721378 
L 95.025991 -669.475679 
L 100.247365 -676.229981 
L 102.721428 -682.984282 
L 105.069197 -682.984282 
L 105.069197 -682.984282 
L 107.54326 -676.229981 
L 112.764634 -669.475679 
L 120.887678 -662.721378 
L 129.870468 -655.967077 
L 136.306585 -649.212776 
L 138.292162 -642.458474 
L 137.091933 -635.704173 
L 135.563556 -628.949872 
L 135.587912 -622.19557 
L 137.348311 -615.441269 
L 140.140124 -608.686968 
L 142.843418 -601.932667 
L 143.671563 -595.178365 
L 140.561522 -588.424064 
L 132.93455 -581.669763 
L 122.922604 -574.915462 
L 113.953174 -568.16116 
L 108.11624 -561.406859 
L 105.286824 -554.652558 
z
" id="m82e6fa1e74" style="stroke:#3d3d3d;stroke-width:1.5;"/>
    </defs>
    <g clip-path="url(#pe594ffd0a4)">
     <use style="fill:#3274a1;stroke:#3d3d3d;stroke-width:1.5;" x="0" xlink:href="#m82e6fa1e74" y="720"/>
    </g>
   </g>
   <g id="PolyCollection_2">
    <defs>
     <path d="M 204.770428 -535.056133 
L 201.901447 -535.056133 
L 199.039144 -542.255034 
L 193.154576 -549.453935 
L 184.079061 -556.652837 
L 173.879703 -563.851738 
L 166.180754 -571.050639 
L 163.559688 -578.24954 
L 165.702428 -585.448441 
L 170.301689 -592.647342 
L 175.170786 -599.846243 
L 178.945597 -607.045144 
L 180.5397 -614.244045 
L 179.538398 -621.442947 
L 177.467421 -628.641848 
L 177.370507 -635.840749 
L 181.19585 -643.03965 
L 187.942966 -650.238551 
L 194.778034 -657.437452 
L 199.571877 -664.636353 
L 202.035326 -671.835254 
L 204.636549 -671.835254 
L 204.636549 -671.835254 
L 207.099998 -664.636353 
L 211.893841 -657.437452 
L 218.728909 -650.238551 
L 225.476025 -643.03965 
L 229.301368 -635.840749 
L 229.204454 -628.641848 
L 227.133477 -621.442947 
L 226.132175 -614.244045 
L 227.726278 -607.045144 
L 231.501089 -599.846243 
L 236.370186 -592.647342 
L 240.969447 -585.448441 
L 243.112188 -578.24954 
L 240.491121 -571.050639 
L 232.792172 -563.851738 
L 222.592814 -556.652837 
L 213.517299 -549.453935 
L 207.632731 -542.255034 
L 204.770428 -535.056133 
z
" id="mf4bc8aba4f" style="stroke:#3d3d3d;stroke-width:1.5;"/>
    </defs>
    <g clip-path="url(#pe594ffd0a4)">
     <use style="fill:#e1812c;stroke:#3d3d3d;stroke-width:1.5;" x="0" xlink:href="#mf4bc8aba4f" y="720"/>
    </g>
   </g>
   <g id="PolyCollection_3">
    <defs>
     <path d="M 303.912508 -522.718182 
L 301.640617 -522.718182 
L 299.288999 -529.640689 
L 294.234169 -536.563196 
L 285.956798 -543.485703 
L 275.85392 -550.40821 
L 267.171204 -557.330717 
L 263.000313 -564.253224 
L 264.205764 -571.175731 
L 269.357398 -578.098238 
L 276.06948 -585.020745 
L 281.872121 -591.943252 
L 284.596387 -598.865759 
L 283.460752 -605.788266 
L 280.245231 -612.710773 
L 278.507033 -619.63328 
L 280.800089 -626.555786 
L 286.6335 -633.478293 
L 293.294726 -640.4008 
L 298.359245 -647.323307 
L 301.154226 -654.245814 
L 304.398899 -654.245814 
L 304.398899 -654.245814 
L 307.19388 -647.323307 
L 312.258399 -640.4008 
L 318.919625 -633.478293 
L 324.753036 -626.555786 
L 327.046092 -619.63328 
L 325.307894 -612.710773 
L 322.092373 -605.788266 
L 320.956738 -598.865759 
L 323.681004 -591.943252 
L 329.483645 -585.020745 
L 336.195727 -578.098238 
L 341.347361 -571.175731 
L 342.552813 -564.253224 
L 338.381921 -557.330717 
L 329.699205 -550.40821 
L 319.596327 -543.485703 
L 311.318956 -536.563196 
L 306.264126 -529.640689 
L 303.912508 -522.718182 
z
" id="me03c5ccc0f" style="stroke:#3d3d3d;stroke-width:1.5;"/>
    </defs>
    <g clip-path="url(#pe594ffd0a4)">
     <use style="fill:#3a923a;stroke:#3d3d3d;stroke-width:1.5;" x="0" xlink:href="#me03c5ccc0f" y="720"/>
    </g>
   </g>
   <g id="PolyCollection_4">
    <defs>
     <path d="M 402.593945 -544.745682 
L 401.84043 -544.745682 
L 401.080949 -549.229413 
L 399.958144 -553.713144 
L 399.054506 -558.196875 
L 398.206427 -562.680606 
L 395.543415 -567.164337 
L 389.409729 -571.648067 
L 380.695728 -576.131798 
L 371.741363 -580.615529 
L 364.763751 -585.09926 
L 362.440938 -589.582991 
L 365.818133 -594.066722 
L 371.333731 -598.550453 
L 374.625854 -603.034184 
L 376.306941 -607.517915 
L 380.262597 -612.001646 
L 387.436317 -616.485377 
L 394.764082 -620.969107 
L 399.481809 -625.452838 
L 401.502764 -629.936569 
L 402.931611 -629.936569 
L 402.931611 -629.936569 
L 404.952566 -625.452838 
L 409.670293 -620.969107 
L 416.998058 -616.485377 
L 424.171778 -612.001646 
L 428.127434 -607.517915 
L 429.808521 -603.034184 
L 433.100644 -598.550453 
L 438.616242 -594.066722 
L 441.993438 -589.582991 
L 439.670624 -585.09926 
L 432.693012 -580.615529 
L 423.738647 -576.131798 
L 415.024646 -571.648067 
L 408.89096 -567.164337 
L 406.227948 -562.680606 
L 405.379869 -558.196875 
L 404.476231 -553.713144 
L 403.353426 -549.229413 
L 402.593945 -544.745682 
z
" id="m765faa9a17" style="stroke:#3d3d3d;stroke-width:1.5;"/>
    </defs>
    <g clip-path="url(#pe594ffd0a4)">
     <use style="fill:#c03d3e;stroke:#3d3d3d;stroke-width:1.5;" x="0" xlink:href="#m765faa9a17" y="720"/>
    </g>
   </g>
   <g id="PolyCollection_5">
    <defs>
     <path d="M 502.044893 -571.911016 
L 501.270732 -571.911016 
L 500.378055 -574.455437 
L 499.178169 -576.999857 
L 498.810655 -579.544278 
L 499.452164 -582.088699 
L 499.081652 -584.633119 
L 494.925786 -587.17754 
L 485.856679 -589.72196 
L 474.877051 -592.266381 
L 467.433172 -594.810801 
L 465.115688 -597.355222 
L 463.913871 -599.899643 
L 461.881563 -602.444063 
L 464.439189 -604.988484 
L 474.358237 -607.532904 
L 485.815176 -610.077325 
L 493.574159 -612.621745 
L 497.810253 -615.166166 
L 500.145827 -617.710586 
L 501.246148 -620.255007 
L 502.069477 -620.255007 
L 502.069477 -620.255007 
L 503.169798 -617.710586 
L 505.505372 -615.166166 
L 509.741466 -612.621745 
L 517.500449 -610.077325 
L 528.957388 -607.532904 
L 538.876436 -604.988484 
L 541.434063 -602.444063 
L 539.401754 -599.899643 
L 538.199937 -597.355222 
L 535.882453 -594.810801 
L 528.438574 -592.266381 
L 517.458946 -589.72196 
L 508.389839 -587.17754 
L 504.233973 -584.633119 
L 503.863461 -582.088699 
L 504.50497 -579.544278 
L 504.137456 -576.999857 
L 502.93757 -574.455437 
L 502.044893 -571.911016 
z
" id="m148996805e" style="stroke:#3d3d3d;stroke-width:1.5;"/>
    </defs>
    <g clip-path="url(#pe594ffd0a4)">
     <use style="fill:#9372b2;stroke:#3d3d3d;stroke-width:1.5;" x="0" xlink:href="#m148996805e" y="720"/>
    </g>
   </g>
   <g id="PolyCollection_6">
    <defs>
     <path d="M 601.447598 -567.082084 
L 600.749277 -567.082084 
L 600.087716 -570.900962 
L 598.766678 -574.719839 
L 596.622512 -578.538717 
L 593.623942 -582.357594 
L 590.002685 -586.176472 
L 586.640709 -589.995349 
L 584.987257 -593.814227 
L 585.808874 -597.633104 
L 587.895294 -601.451982 
L 588.340649 -605.270859 
L 584.366585 -609.089737 
L 575.706503 -612.908615 
L 566.044697 -616.727492 
L 561.322188 -620.54637 
L 565.095219 -624.365247 
L 575.398411 -628.184125 
L 586.75448 -632.003002 
L 594.89473 -635.82188 
L 599.038162 -639.640757 
L 603.158713 -639.640757 
L 603.158713 -639.640757 
L 607.302145 -635.82188 
L 615.442395 -632.003002 
L 626.798464 -628.184125 
L 637.101656 -624.365247 
L 640.874688 -620.54637 
L 636.152178 -616.727492 
L 626.490372 -612.908615 
L 617.83029 -609.089737 
L 613.856226 -605.270859 
L 614.301581 -601.451982 
L 616.388001 -597.633104 
L 617.209618 -593.814227 
L 615.556166 -589.995349 
L 612.19419 -586.176472 
L 608.572933 -582.357594 
L 605.574363 -578.538717 
L 603.430197 -574.719839 
L 602.109159 -570.900962 
L 601.447598 -567.082084 
z
" id="m90fcfba843" style="stroke:#3d3d3d;stroke-width:1.5;"/>
    </defs>
    <g clip-path="url(#pe594ffd0a4)">
     <use style="fill:#845b53;stroke:#3d3d3d;stroke-width:1.5;" x="0" xlink:href="#m90fcfba843" y="720"/>
    </g>
   </g>
   <g id="PolyCollection_7">
    <defs>
     <path d="M 701.106484 -561.574837 
L 699.971641 -561.574837 
L 698.826928 -567.608966 
L 696.555815 -573.643096 
L 693.199918 -579.677225 
L 689.458941 -585.711355 
L 686.402201 -591.745484 
L 685.10986 -597.779614 
L 686.224072 -603.813743 
L 688.943972 -609.847873 
L 690.342756 -615.882003 
L 686.668296 -621.916132 
L 676.837609 -627.950262 
L 665.504692 -633.984391 
L 660.762813 -640.018521 
L 666.438831 -646.05265 
L 678.277579 -652.08678 
L 689.2449 -658.120909 
L 695.953748 -664.155039 
L 699.005579 -670.189169 
L 700.111669 -676.223298 
L 700.966456 -676.223298 
L 700.966456 -676.223298 
L 702.072546 -670.189169 
L 705.124377 -664.155039 
L 711.833225 -658.120909 
L 722.800546 -652.08678 
L 734.639294 -646.05265 
L 740.315313 -640.018521 
L 735.573433 -633.984391 
L 724.240516 -627.950262 
L 714.409829 -621.916132 
L 710.735369 -615.882003 
L 712.134153 -609.847873 
L 714.854053 -603.813743 
L 715.968265 -597.779614 
L 714.675924 -591.745484 
L 711.619184 -585.711355 
L 707.878207 -579.677225 
L 704.52231 -573.643096 
L 702.251197 -567.608966 
L 701.106484 -561.574837 
z
" id="m121af27a9b" style="stroke:#3d3d3d;stroke-width:1.5;"/>
    </defs>
    <g clip-path="url(#pe594ffd0a4)">
     <use style="fill:#d684bd;stroke:#3d3d3d;stroke-width:1.5;" x="0" xlink:href="#m121af27a9b" y="720"/>
    </g>
   </g>
   <g id="PolyCollection_8">
    <defs>
     <path d="M 800.584592 -575.598963 
L 799.374783 -575.598963 
L 798.180538 -581.361218 
L 795.668433 -587.123474 
L 791.58657 -592.88573 
L 786.660254 -598.647985 
L 782.788397 -604.410241 
L 782.035199 -610.172496 
L 784.847762 -615.934752 
L 789.234412 -621.697007 
L 791.775847 -627.459263 
L 789.365338 -633.221518 
L 780.890136 -638.983774 
L 769.021659 -644.746029 
L 760.203438 -650.508285 
L 760.310359 -656.27054 
L 769.294137 -662.032796 
L 781.511492 -667.795052 
L 791.290888 -673.557307 
L 796.765983 -679.319563 
L 799.039597 -685.081818 
L 800.919778 -685.081818 
L 800.919778 -685.081818 
L 803.193392 -679.319563 
L 808.668487 -673.557307 
L 818.447883 -667.795052 
L 830.665238 -662.032796 
L 839.649016 -656.27054 
L 839.755938 -650.508285 
L 830.937716 -644.746029 
L 819.069239 -638.983774 
L 810.594037 -633.221518 
L 808.183528 -627.459263 
L 810.724963 -621.697007 
L 815.111613 -615.934752 
L 817.924176 -610.172496 
L 817.170978 -604.410241 
L 813.299121 -598.647985 
L 808.372805 -592.88573 
L 804.290942 -587.123474 
L 801.778837 -581.361218 
L 800.584592 -575.598963 
z
" id="meed792ae34" style="stroke:#3d3d3d;stroke-width:1.5;"/>
    </defs>
    <g clip-path="url(#pe594ffd0a4)">
     <use style="fill:#7f7f7f;stroke:#3d3d3d;stroke-width:1.5;" x="0" xlink:href="#meed792ae34" y="720"/>
    </g>
   </g>
   <g id="matplotlib.axis_1">
    <g id="xtick_1">
     <g id="line2d_1">
      <defs>
       <path d="M 0 0 
L 0 3.5 
" id="m5a6ea626e1" style="stroke:#000000;stroke-width:0.8;"/>
      </defs>
      <g>
       <use style="stroke:#000000;stroke-width:0.8;" x="103.895313" xlink:href="#m5a6ea626e1" y="205.4"/>
      </g>
     </g>
     <g id="text_1">
      <text style="font-family:DejaVu Sans;font-size:10px;font-style:normal;font-weight:normal;text-anchor:middle;" transform="rotate(-0, 103.895313, 219.998438)" x="103.895313" y="219.998438">0</text>
     </g>
    </g>
    <g id="xtick_2">
     <g id="line2d_2">
      <g>
       <use style="stroke:#000000;stroke-width:0.8;" x="203.335938" xlink:href="#m5a6ea626e1" y="205.4"/>
      </g>
     </g>
     <g id="text_2">
      <text style="font-family:DejaVu Sans;font-size:10px;font-style:normal;font-weight:normal;text-anchor:middle;" transform="rotate(-0, 203.335938, 219.998438)" x="203.335938" y="219.998438">1</text>
     </g>
    </g>
    <g id="xtick_3">
     <g id="line2d_3">
      <g>
       <use style="stroke:#000000;stroke-width:0.8;" x="302.776563" xlink:href="#m5a6ea626e1" y="205.4"/>
      </g>
     </g>
     <g id="text_3">
      <text style="font-family:DejaVu Sans;font-size:10px;font-style:normal;font-weight:normal;text-anchor:middle;" transform="rotate(-0, 302.776563, 219.998438)" x="302.776563" y="219.998438">2</text>
     </g>
    </g>
    <g id="xtick_4">
     <g id="line2d_4">
      <g>
       <use style="stroke:#000000;stroke-width:0.8;" x="402.217188" xlink:href="#m5a6ea626e1" y="205.4"/>
      </g>
     </g>
     <g id="text_4">
      <text style="font-family:DejaVu Sans;font-size:10px;font-style:normal;font-weight:normal;text-anchor:middle;" transform="rotate(-0, 402.217188, 219.998438)" x="402.217188" y="219.998438">3</text>
     </g>
    </g>
    <g id="xtick_5">
     <g id="line2d_5">
      <g>
       <use style="stroke:#000000;stroke-width:0.8;" x="501.657813" xlink:href="#m5a6ea626e1" y="205.4"/>
      </g>
     </g>
     <g id="text_5">
      <text style="font-family:DejaVu Sans;font-size:10px;font-style:normal;font-weight:normal;text-anchor:middle;" transform="rotate(-0, 501.657813, 219.998438)" x="501.657813" y="219.998438">4</text>
     </g>
    </g>
    <g id="xtick_6">
     <g id="line2d_6">
      <g>
       <use style="stroke:#000000;stroke-width:0.8;" x="601.098438" xlink:href="#m5a6ea626e1" y="205.4"/>
      </g>
     </g>
     <g id="text_6">
      <text style="font-family:DejaVu Sans;font-size:10px;font-style:normal;font-weight:normal;text-anchor:middle;" transform="rotate(-0, 601.098438, 219.998438)" x="601.098438" y="219.998438">5</text>
     </g>
    </g>
    <g id="xtick_7">
     <g id="line2d_7">
      <g>
       <use style="stroke:#000000;stroke-width:0.8;" x="700.539063" xlink:href="#m5a6ea626e1" y="205.4"/>
      </g>
     </g>
     <g id="text_7">
      <text style="font-family:DejaVu Sans;font-size:10px;font-style:normal;font-weight:normal;text-anchor:middle;" transform="rotate(-0, 700.539063, 219.998438)" x="700.539063" y="219.998438">6</text>
     </g>
    </g>
    <g id="xtick_8">
     <g id="line2d_8">
      <g>
       <use style="stroke:#000000;stroke-width:0.8;" x="799.979688" xlink:href="#m5a6ea626e1" y="205.4"/>
      </g>
     </g>
     <g id="text_8">
      <text style="font-family:DejaVu Sans;font-size:10px;font-style:normal;font-weight:normal;text-anchor:middle;" transform="rotate(-0, 799.979688, 219.998438)" x="799.979688" y="219.998438">7</text>
     </g>
    </g>
    <g id="text_9">
     <text style="font-family:DejaVu Sans;font-size:10px;font-style:normal;font-weight:normal;text-anchor:middle;" transform="rotate(-0, 451.9375, 233.676563)" x="451.9375" y="233.676563">Hour (0 is Midnight)</text>
    </g>
   </g>
   <g id="matplotlib.axis_2">
    <g id="ytick_1">
     <g id="line2d_9">
      <defs>
       <path d="M 0 0 
L -3.5 0 
" id="m4e23ad0d09" style="stroke:#000000;stroke-width:0.8;"/>
      </defs>
      <g>
       <use style="stroke:#000000;stroke-width:0.8;" x="54.175" xlink:href="#m4e23ad0d09" y="198.090989"/>
      </g>
     </g>
     <g id="text_10">
      <text style="font-family:DejaVu Sans;font-size:10px;font-style:normal;font-weight:normal;text-anchor:end;" transform="rotate(-0, 47.175, 201.890208)" x="47.175" y="201.890208">1.75</text>
     </g>
    </g>
    <g id="ytick_2">
     <g id="line2d_10">
      <g>
       <use style="stroke:#000000;stroke-width:0.8;" x="54.175" xlink:href="#m4e23ad0d09" y="174.520337"/>
      </g>
     </g>
     <g id="text_11">
      <text style="font-family:DejaVu Sans;font-size:10px;font-style:normal;font-weight:normal;text-anchor:end;" transform="rotate(-0, 47.175, 178.319556)" x="47.175" y="178.319556">2.00</text>
     </g>
    </g>
    <g id="ytick_3">
     <g id="line2d_11">
      <g>
       <use style="stroke:#000000;stroke-width:0.8;" x="54.175" xlink:href="#m4e23ad0d09" y="150.949685"/>
      </g>
     </g>
     <g id="text_12">
      <text style="font-family:DejaVu Sans;font-size:10px;font-style:normal;font-weight:normal;text-anchor:end;" transform="rotate(-0, 47.175, 154.748904)" x="47.175" y="154.748904">2.25</text>
     </g>
    </g>
    <g id="ytick_4">
     <g id="line2d_12">
      <g>
       <use style="stroke:#000000;stroke-width:0.8;" x="54.175" xlink:href="#m4e23ad0d09" y="127.379033"/>
      </g>
     </g>
     <g id="text_13">
      <text style="font-family:DejaVu Sans;font-size:10px;font-style:normal;font-weight:normal;text-anchor:end;" transform="rotate(-0, 47.175, 131.178252)" x="47.175" y="131.178252">2.50</text>
     </g>
    </g>
    <g id="ytick_5">
     <g id="line2d_13">
      <g>
       <use style="stroke:#000000;stroke-width:0.8;" x="54.175" xlink:href="#m4e23ad0d09" y="103.808381"/>
      </g>
     </g>
     <g id="text_14">
      <text style="font-family:DejaVu Sans;font-size:10px;font-style:normal;font-weight:normal;text-anchor:end;" transform="rotate(-0, 47.175, 107.607599)" x="47.175" y="107.607599">2.75</text>
     </g>
    </g>
    <g id="ytick_6">
     <g id="line2d_14">
      <g>
       <use style="stroke:#000000;stroke-width:0.8;" x="54.175" xlink:href="#m4e23ad0d09" y="80.237729"/>
      </g>
     </g>
     <g id="text_15">
      <text style="font-family:DejaVu Sans;font-size:10px;font-style:normal;font-weight:normal;text-anchor:end;" transform="rotate(-0, 47.175, 84.036947)" x="47.175" y="84.036947">3.00</text>
     </g>
    </g>
    <g id="ytick_7">
     <g id="line2d_15">
      <g>
       <use style="stroke:#000000;stroke-width:0.8;" x="54.175" xlink:href="#m4e23ad0d09" y="56.667077"/>
      </g>
     </g>
     <g id="text_16">
      <text style="font-family:DejaVu Sans;font-size:10px;font-style:normal;font-weight:normal;text-anchor:end;" transform="rotate(-0, 47.175, 60.466295)" x="47.175" y="60.466295">3.25</text>
     </g>
    </g>
    <g id="ytick_8">
     <g id="line2d_16">
      <g>
       <use style="stroke:#000000;stroke-width:0.8;" x="54.175" xlink:href="#m4e23ad0d09" y="33.096425"/>
      </g>
     </g>
     <g id="text_17">
      <text style="font-family:DejaVu Sans;font-size:10px;font-style:normal;font-weight:normal;text-anchor:end;" transform="rotate(-0, 47.175, 36.895643)" x="47.175" y="36.895643">3.50</text>
     </g>
    </g>
    <g id="text_18">
     <text style="font-family:DejaVu Sans;font-size:10px;font-style:normal;font-weight:normal;text-anchor:middle;" transform="rotate(-90, 18.829688, 116.1)" x="18.829688" y="116.1">Log10 Hourly Pickup Count</text>
    </g>
   </g>
   <g id="line2d_17">
    <path clip-path="url(#pe594ffd0a4)" d="M 103.895313 139.885063 
L 103.895313 62.478098 
" style="fill:none;stroke:#3d3d3d;stroke-linecap:square;stroke-width:1.5;"/>
   </g>
   <g id="line2d_18">
    <path clip-path="url(#pe594ffd0a4)" d="M 103.895313 127.801005 
L 103.895313 78.266611 
" style="fill:none;stroke:#3d3d3d;stroke-linecap:square;stroke-width:4.5;"/>
   </g>
   <g id="line2d_19">
    <path clip-path="url(#pe594ffd0a4)" d="M 203.335938 157.107147 
L 203.335938 76.001465 
" style="fill:none;stroke:#3d3d3d;stroke-linecap:square;stroke-width:1.5;"/>
   </g>
   <g id="line2d_20">
    <path clip-path="url(#pe594ffd0a4)" d="M 203.335938 145.262762 
L 203.335938 91.797605 
" style="fill:none;stroke:#3d3d3d;stroke-linecap:square;stroke-width:4.5;"/>
   </g>
   <g id="line2d_21">
    <path clip-path="url(#pe594ffd0a4)" d="M 302.776563 170.247168 
L 302.776563 92.788836 
" style="fill:none;stroke:#3d3d3d;stroke-linecap:square;stroke-width:1.5;"/>
   </g>
   <g id="line2d_22">
    <path clip-path="url(#pe594ffd0a4)" d="M 302.776563 157.649515 
L 302.776563 104.494877 
" style="fill:none;stroke:#3d3d3d;stroke-linecap:square;stroke-width:4.5;"/>
   </g>
   <g id="line2d_23">
    <path clip-path="url(#pe594ffd0a4)" d="M 402.217188 161.629965 
L 402.217188 103.687783 
" style="fill:none;stroke:#3d3d3d;stroke-linecap:square;stroke-width:1.5;"/>
   </g>
   <g id="line2d_24">
    <path clip-path="url(#pe594ffd0a4)" d="M 402.217188 134.860504 
L 402.217188 116.0788 
" style="fill:none;stroke:#3d3d3d;stroke-linecap:square;stroke-width:4.5;"/>
   </g>
   <g id="line2d_25">
    <path clip-path="url(#pe594ffd0a4)" d="M 501.657813 129.947626 
L 501.657813 106.699907 
" style="fill:none;stroke:#3d3d3d;stroke-linecap:square;stroke-width:1.5;"/>
   </g>
   <g id="line2d_26">
    <path clip-path="url(#pe594ffd0a4)" d="M 501.657813 124.957811 
L 501.657813 115.807805 
" style="fill:none;stroke:#3d3d3d;stroke-linecap:square;stroke-width:4.5;"/>
   </g>
   <g id="line2d_27">
    <path clip-path="url(#pe594ffd0a4)" d="M 601.098438 139.015679 
L 601.098438 94.261479 
" style="fill:none;stroke:#3d3d3d;stroke-linecap:square;stroke-width:1.5;"/>
   </g>
   <g id="line2d_28">
    <path clip-path="url(#pe594ffd0a4)" d="M 601.098438 121.761355 
L 601.098438 98.543601 
" style="fill:none;stroke:#3d3d3d;stroke-linecap:square;stroke-width:4.5;"/>
   </g>
   <g id="line2d_29">
    <path clip-path="url(#pe594ffd0a4)" d="M 700.539063 136.838056 
L 700.539063 65.363809 
" style="fill:none;stroke:#3d3d3d;stroke-linecap:square;stroke-width:1.5;"/>
   </g>
   <g id="line2d_30">
    <path clip-path="url(#pe594ffd0a4)" d="M 700.539063 115.568387 
L 700.539063 79.972443 
" style="fill:none;stroke:#3d3d3d;stroke-linecap:square;stroke-width:4.5;"/>
   </g>
   <g id="line2d_31">
    <path clip-path="url(#pe594ffd0a4)" d="M 799.979688 122.2988 
L 799.979688 57.020418 
" style="fill:none;stroke:#3d3d3d;stroke-linecap:square;stroke-width:1.5;"/>
   </g>
   <g id="line2d_32">
    <path clip-path="url(#pe594ffd0a4)" d="M 799.979688 107.103441 
L 799.979688 65.807624 
" style="fill:none;stroke:#3d3d3d;stroke-linecap:square;stroke-width:4.5;"/>
   </g>
   <g id="patch_3">
    <path d="M 54.175 205.4 
L 54.175 26.8 
" style="fill:none;stroke:#000000;stroke-linecap:square;stroke-linejoin:miter;stroke-width:0.8;"/>
   </g>
   <g id="patch_4">
    <path d="M 849.7 205.4 
L 849.7 26.8 
" style="fill:none;stroke:#000000;stroke-linecap:square;stroke-linejoin:miter;stroke-width:0.8;"/>
   </g>
   <g id="patch_5">
    <path d="M 54.175 205.4 
L 849.7 205.4 
" style="fill:none;stroke:#000000;stroke-linecap:square;stroke-linejoin:miter;stroke-width:0.8;"/>
   </g>
   <g id="patch_6">
    <path d="M 54.175 26.8 
L 849.7 26.8 
" style="fill:none;stroke:#000000;stroke-linecap:square;stroke-linejoin:miter;stroke-width:0.8;"/>
   </g>
   <g id="PathCollection_1">
    <defs>
     <path d="M 0 1.5 
C 0.397805 1.5 0.77937 1.341951 1.06066 1.06066 
C 1.341951 0.77937 1.5 0.397805 1.5 0 
C 1.5 -0.397805 1.341951 -0.77937 1.06066 -1.06066 
C 0.77937 -1.341951 0.397805 -1.5 0 -1.5 
C -0.397805 -1.5 -0.77937 -1.341951 -1.06066 -1.06066 
C -1.341951 -0.77937 -1.5 -0.397805 -1.5 0 
C -1.5 0.397805 -1.341951 0.77937 -1.06066 1.06066 
C -0.77937 1.341951 -0.397805 1.5 0 1.5 
z
" id="m48e6fbb091" style="stroke:#3d3d3d;"/>
    </defs>
    <g clip-path="url(#pe594ffd0a4)">
     <use style="fill:#ffffff;stroke:#3d3d3d;" x="103.895313" xlink:href="#m48e6fbb091" y="103.470561"/>
    </g>
   </g>
   <g id="PathCollection_2">
    <g clip-path="url(#pe594ffd0a4)">
     <use style="fill:#ffffff;stroke:#3d3d3d;" x="203.335938" xlink:href="#m48e6fbb091" y="129.672817"/>
    </g>
   </g>
   <g id="PathCollection_3">
    <g clip-path="url(#pe594ffd0a4)">
     <use style="fill:#ffffff;stroke:#3d3d3d;" x="302.776563" xlink:href="#m48e6fbb091" y="146.138444"/>
    </g>
   </g>
   <g id="PathCollection_4">
    <g clip-path="url(#pe594ffd0a4)">
     <use style="fill:#ffffff;stroke:#3d3d3d;" x="402.217188" xlink:href="#m48e6fbb091" y="128.458501"/>
    </g>
   </g>
   <g id="PathCollection_5">
    <g clip-path="url(#pe594ffd0a4)">
     <use style="fill:#ffffff;stroke:#3d3d3d;" x="501.657813" xlink:href="#m48e6fbb091" y="120.618137"/>
    </g>
   </g>
   <g id="PathCollection_6">
    <g clip-path="url(#pe594ffd0a4)">
     <use style="fill:#ffffff;stroke:#3d3d3d;" x="601.098438" xlink:href="#m48e6fbb091" y="101.428098"/>
    </g>
   </g>
   <g id="PathCollection_7">
    <g clip-path="url(#pe594ffd0a4)">
     <use style="fill:#ffffff;stroke:#3d3d3d;" x="700.539063" xlink:href="#m48e6fbb091" y="81.611759"/>
    </g>
   </g>
   <g id="PathCollection_8">
    <g clip-path="url(#pe594ffd0a4)">
     <use style="fill:#ffffff;stroke:#3d3d3d;" x="799.979688" xlink:href="#m48e6fbb091" y="68.040614"/>
    </g>
   </g>
   <g id="text_19">
    <text style="font-family:DejaVu Sans;font-size:12px;font-style:normal;font-weight:normal;text-anchor:middle;" transform="rotate(-0, 451.9375, 20.8)" x="451.9375" y="20.8">Hourly Pickup Distributions for Mornings</text>
   </g>
  </g>
  <g id="axes_2">
   <g id="patch_7">
    <path d="M 54.175 441.8 
L 849.7 441.8 
L 849.7 263.2 
L 54.175 263.2 
z
" style="fill:#ffffff;"/>
   </g>
   <g id="PolyCollection_9">
    <defs>
     <path d="M 104.635742 -286.318182 
L 103.154883 -286.318182 
L 101.653438 -294.863636 
L 98.605982 -303.409091 
L 94.077802 -311.954545 
L 89.403887 -320.5 
L 86.698367 -329.045455 
L 87.314791 -337.590909 
L 90.620583 -346.136364 
L 94.065071 -354.681818 
L 94.260148 -363.227273 
L 88.679149 -371.772727 
L 78.002782 -380.318182 
L 67.503508 -388.863636 
L 64.119063 -397.409091 
L 70.288417 -405.954545 
L 81.786634 -414.5 
L 92.407003 -423.045455 
L 99.084938 -431.590909 
L 102.238512 -440.136364 
L 103.420518 -448.681818 
L 104.370107 -448.681818 
L 104.370107 -448.681818 
L 105.552113 -440.136364 
L 108.705687 -431.590909 
L 115.383622 -423.045455 
L 126.003991 -414.5 
L 137.502208 -405.954545 
L 143.671563 -397.409091 
L 140.287117 -388.863636 
L 129.787843 -380.318182 
L 119.111476 -371.772727 
L 113.530477 -363.227273 
L 113.725554 -354.681818 
L 117.170042 -346.136364 
L 120.475834 -337.590909 
L 121.092258 -329.045455 
L 118.386738 -320.5 
L 113.712823 -311.954545 
L 109.184643 -303.409091 
L 106.137187 -294.863636 
L 104.635742 -286.318182 
z
" id="mc36537ef4e" style="stroke:#3d3d3d;stroke-width:1.5;"/>
    </defs>
    <g clip-path="url(#pdd9cf011bb)">
     <use style="fill:#3274a1;stroke:#3d3d3d;stroke-width:1.5;" x="0" xlink:href="#mc36537ef4e" y="720"/>
    </g>
   </g>
   <g id="PolyCollection_10">
    <defs>
     <path d="M 203.988974 -326.227602 
L 202.682901 -326.227602 
L 201.286395 -330.38595 
L 198.371402 -334.544297 
L 193.864004 -338.702645 
L 188.744102 -342.860992 
L 184.700339 -347.019339 
L 183.067554 -351.177687 
L 183.758549 -355.336034 
L 184.847746 -359.494382 
L 183.561628 -363.652729 
L 178.405658 -367.811077 
L 170.706862 -371.969424 
L 164.360719 -376.127772 
L 163.559688 -380.286119 
L 169.599832 -384.444467 
L 179.809178 -388.602814 
L 189.917424 -392.761162 
L 197.119904 -396.919509 
L 201.023462 -401.077857 
L 202.6553 -405.236204 
L 204.016575 -405.236204 
L 204.016575 -405.236204 
L 205.648413 -401.077857 
L 209.551971 -396.919509 
L 216.754451 -392.761162 
L 226.862697 -388.602814 
L 237.072043 -384.444467 
L 243.112188 -380.286119 
L 242.311156 -376.127772 
L 235.965013 -371.969424 
L 228.266217 -367.811077 
L 223.110247 -363.652729 
L 221.824129 -359.494382 
L 222.913326 -355.336034 
L 223.604321 -351.177687 
L 221.971536 -347.019339 
L 217.927773 -342.860992 
L 212.807871 -338.702645 
L 208.300473 -334.544297 
L 205.38548 -330.38595 
L 203.988974 -326.227602 
z
" id="md3b67e35b9" style="stroke:#3d3d3d;stroke-width:1.5;"/>
    </defs>
    <g clip-path="url(#pdd9cf011bb)">
     <use style="fill:#e1812c;stroke:#3d3d3d;stroke-width:1.5;" x="0" xlink:href="#md3b67e35b9" y="720"/>
    </g>
   </g>
   <g id="PolyCollection_11">
    <defs>
     <path d="M 303.491632 -345.319345 
L 302.061493 -345.319345 
L 300.54821 -347.817177 
L 297.357687 -350.315009 
L 292.342864 -352.812841 
L 286.522295 -355.310672 
L 281.529701 -357.808504 
L 278.069176 -360.306336 
L 275.433027 -362.804167 
L 273.019241 -365.301999 
L 271.335827 -367.799831 
L 270.520426 -370.297662 
L 269.124314 -372.795494 
L 266.029359 -375.293326 
L 263.000313 -377.791157 
L 263.838627 -380.288989 
L 270.604368 -382.786821 
L 281.235681 -385.284653 
L 291.37101 -387.782484 
L 298.077013 -390.280316 
L 301.286684 -392.778148 
L 304.266441 -392.778148 
L 304.266441 -392.778148 
L 307.476112 -390.280316 
L 314.182115 -387.782484 
L 324.317444 -385.284653 
L 334.948757 -382.786821 
L 341.714498 -380.288989 
L 342.552813 -377.791157 
L 339.523766 -375.293326 
L 336.428811 -372.795494 
L 335.032699 -370.297662 
L 334.217298 -367.799831 
L 332.533884 -365.301999 
L 330.120098 -362.804167 
L 327.483949 -360.306336 
L 324.023424 -357.808504 
L 319.03083 -355.310672 
L 313.210261 -352.812841 
L 308.195438 -350.315009 
L 305.004915 -347.817177 
L 303.491632 -345.319345 
z
" id="m85e06e26a2" style="stroke:#3d3d3d;stroke-width:1.5;"/>
    </defs>
    <g clip-path="url(#pdd9cf011bb)">
     <use style="fill:#3a923a;stroke:#3d3d3d;stroke-width:1.5;" x="0" xlink:href="#m85e06e26a2" y="720"/>
    </g>
   </g>
   <g id="PolyCollection_12">
    <defs>
     <path d="M 402.632796 -351.254707 
L 401.801579 -351.254707 
L 400.773053 -353.611105 
L 398.491983 -355.967502 
L 394.783308 -358.3239 
L 390.421779 -360.680297 
L 386.816695 -363.036694 
L 384.337638 -365.393092 
L 381.847488 -367.749489 
L 378.335063 -370.105887 
L 373.297204 -372.462284 
L 366.97507 -374.818682 
L 362.440938 -377.175079 
L 364.482073 -379.531477 
L 373.66904 -381.887874 
L 384.691046 -384.244272 
L 392.557329 -386.600669 
L 396.877709 -388.957067 
L 399.398756 -391.313464 
L 401.006356 -393.669861 
L 401.839828 -396.026259 
L 402.594547 -396.026259 
L 402.594547 -396.026259 
L 403.428019 -393.669861 
L 405.035619 -391.313464 
L 407.556666 -388.957067 
L 411.877046 -386.600669 
L 419.743329 -384.244272 
L 430.765335 -381.887874 
L 439.952302 -379.531477 
L 441.993438 -377.175079 
L 437.459305 -374.818682 
L 431.137171 -372.462284 
L 426.099312 -370.105887 
L 422.586887 -367.749489 
L 420.096737 -365.393092 
L 417.61768 -363.036694 
L 414.012596 -360.680297 
L 409.651067 -358.3239 
L 405.942392 -355.967502 
L 403.661322 -353.611105 
L 402.632796 -351.254707 
z
" id="mfe5a48b5d6" style="stroke:#3d3d3d;stroke-width:1.5;"/>
    </defs>
    <g clip-path="url(#pdd9cf011bb)">
     <use style="fill:#c03d3e;stroke:#3d3d3d;stroke-width:1.5;" x="0" xlink:href="#mfe5a48b5d6" y="720"/>
    </g>
   </g>
   <g id="PolyCollection_13">
    <defs>
     <path d="M 502.193732 -355.019732 
L 501.121893 -355.019732 
L 500.007627 -356.877795 
L 497.917101 -358.735859 
L 495.1536 -360.593923 
L 492.407307 -362.451987 
L 490.041537 -364.310051 
L 487.996204 -366.168115 
L 486.172301 -368.026179 
L 484.191071 -369.884243 
L 480.779159 -371.742307 
L 474.649628 -373.60037 
L 467.017157 -375.458434 
L 461.881563 -377.316498 
L 462.540958 -379.174562 
L 468.884734 -381.032626 
L 478.296839 -382.89069 
L 487.721846 -384.748754 
L 494.913434 -386.606818 
L 499.102159 -388.464881 
L 500.922863 -390.322945 
L 502.392762 -390.322945 
L 502.392762 -390.322945 
L 504.213466 -388.464881 
L 508.402191 -386.606818 
L 515.593779 -384.748754 
L 525.018786 -382.89069 
L 534.430891 -381.032626 
L 540.774667 -379.174562 
L 541.434063 -377.316498 
L 536.298468 -375.458434 
L 528.665997 -373.60037 
L 522.536466 -371.742307 
L 519.124554 -369.884243 
L 517.143324 -368.026179 
L 515.319421 -366.168115 
L 513.274088 -364.310051 
L 510.908318 -362.451987 
L 508.162025 -360.593923 
L 505.398524 -358.735859 
L 503.307998 -356.877795 
L 502.193732 -355.019732 
z
" id="m812c79e88f" style="stroke:#3d3d3d;stroke-width:1.5;"/>
    </defs>
    <g clip-path="url(#pdd9cf011bb)">
     <use style="fill:#9372b2;stroke:#3d3d3d;stroke-width:1.5;" x="0" xlink:href="#m812c79e88f" y="720"/>
    </g>
   </g>
   <g id="PolyCollection_14">
    <defs>
     <path d="M 601.847664 -362.097907 
L 600.349211 -362.097907 
L 598.60044 -364.408382 
L 595.594237 -366.718857 
L 592.789993 -369.029331 
L 591.34082 -371.339806 
L 589.195413 -373.650281 
L 583.207978 -375.960756 
L 573.580254 -378.271231 
L 564.572213 -380.581706 
L 561.322188 -382.89218 
L 564.416109 -385.202655 
L 569.306196 -387.51313 
L 573.563198 -389.823605 
L 579.317804 -392.13408 
L 586.952439 -394.444555 
L 593.305368 -396.755029 
L 596.797395 -399.065504 
L 598.684719 -401.375979 
L 599.98674 -403.686454 
L 600.739957 -405.996929 
L 601.456918 -405.996929 
L 601.456918 -405.996929 
L 602.210135 -403.686454 
L 603.512156 -401.375979 
L 605.39948 -399.065504 
L 608.891507 -396.755029 
L 615.244436 -394.444555 
L 622.879071 -392.13408 
L 628.633677 -389.823605 
L 632.890679 -387.51313 
L 637.780766 -385.202655 
L 640.874688 -382.89218 
L 637.624662 -380.581706 
L 628.616621 -378.271231 
L 618.988897 -375.960756 
L 613.001462 -373.650281 
L 610.856055 -371.339806 
L 609.406882 -369.029331 
L 606.602638 -366.718857 
L 603.596435 -364.408382 
L 601.847664 -362.097907 
z
" id="m122afe4e16" style="stroke:#3d3d3d;stroke-width:1.5;"/>
    </defs>
    <g clip-path="url(#pdd9cf011bb)">
     <use style="fill:#845b53;stroke:#3d3d3d;stroke-width:1.5;" x="0" xlink:href="#m122afe4e16" y="720"/>
    </g>
   </g>
   <g id="PolyCollection_15">
    <defs>
     <path d="M 702.026704 -370.49545 
L 699.051421 -370.49545 
L 696.300806 -372.9772 
L 691.470104 -375.45895 
L 685.529445 -377.940701 
L 680.142293 -380.422451 
L 675.506668 -382.904201 
L 670.375363 -385.385951 
L 664.82175 -387.867701 
L 661.069572 -390.349451 
L 660.762813 -392.831201 
L 662.993774 -395.312951 
L 665.814637 -397.794702 
L 668.610647 -400.276452 
L 672.148636 -402.758202 
L 676.959028 -405.239952 
L 682.694822 -407.721702 
L 688.637616 -410.203452 
L 693.887206 -412.685202 
L 697.580554 -415.166953 
L 699.531161 -417.648703 
L 701.546964 -417.648703 
L 701.546964 -417.648703 
L 703.497571 -415.166953 
L 707.190919 -412.685202 
L 712.440509 -410.203452 
L 718.383303 -407.721702 
L 724.119097 -405.239952 
L 728.929489 -402.758202 
L 732.467478 -400.276452 
L 735.263488 -397.794702 
L 738.084351 -395.312951 
L 740.315313 -392.831201 
L 740.008553 -390.349451 
L 736.256375 -387.867701 
L 730.702762 -385.385951 
L 725.571457 -382.904201 
L 720.935832 -380.422451 
L 715.54868 -377.940701 
L 709.608021 -375.45895 
L 704.777319 -372.9772 
L 702.026704 -370.49545 
z
" id="mfeefd8c02a" style="stroke:#3d3d3d;stroke-width:1.5;"/>
    </defs>
    <g clip-path="url(#pdd9cf011bb)">
     <use style="fill:#d684bd;stroke:#3d3d3d;stroke-width:1.5;" x="0" xlink:href="#mfeefd8c02a" y="720"/>
    </g>
   </g>
   <g id="PolyCollection_16">
    <defs>
     <path d="M 800.74765 -377.127959 
L 799.211725 -377.127959 
L 797.561157 -380.055504 
L 794.225592 -382.983049 
L 789.376131 -385.910594 
L 784.126259 -388.838139 
L 779.370239 -391.765685 
L 775.144129 -394.69323 
L 771.678391 -397.620775 
L 769.602757 -400.54832 
L 768.363529 -403.475865 
L 766.229541 -406.40341 
L 762.795516 -409.330956 
L 760.203438 -412.258501 
L 761.172227 -415.186046 
L 766.608677 -418.113591 
L 775.261455 -421.041136 
L 784.643833 -423.968681 
L 792.266313 -426.896227 
L 796.927992 -429.823772 
L 799.051933 -432.751317 
L 800.907442 -432.751317 
L 800.907442 -432.751317 
L 803.031383 -429.823772 
L 807.693062 -426.896227 
L 815.315542 -423.968681 
L 824.69792 -421.041136 
L 833.350698 -418.113591 
L 838.787148 -415.186046 
L 839.755938 -412.258501 
L 837.163859 -409.330956 
L 833.729834 -406.40341 
L 831.595846 -403.475865 
L 830.356618 -400.54832 
L 828.280984 -397.620775 
L 824.815246 -394.69323 
L 820.589136 -391.765685 
L 815.833116 -388.838139 
L 810.583244 -385.910594 
L 805.733783 -382.983049 
L 802.398218 -380.055504 
L 800.74765 -377.127959 
z
" id="m5acc7b5c42" style="stroke:#3d3d3d;stroke-width:1.5;"/>
    </defs>
    <g clip-path="url(#pdd9cf011bb)">
     <use style="fill:#7f7f7f;stroke:#3d3d3d;stroke-width:1.5;" x="0" xlink:href="#m5acc7b5c42" y="720"/>
    </g>
   </g>
   <g id="matplotlib.axis_3">
    <g id="xtick_9">
     <g id="line2d_33">
      <g>
       <use style="stroke:#000000;stroke-width:0.8;" x="103.895313" xlink:href="#m5a6ea626e1" y="441.8"/>
      </g>
     </g>
     <g id="text_20">
      <text style="font-family:DejaVu Sans;font-size:10px;font-style:normal;font-weight:normal;text-anchor:middle;" transform="rotate(-0, 103.895313, 456.398438)" x="103.895313" y="456.398438">8</text>
     </g>
    </g>
    <g id="xtick_10">
     <g id="line2d_34">
      <g>
       <use style="stroke:#000000;stroke-width:0.8;" x="203.335938" xlink:href="#m5a6ea626e1" y="441.8"/>
      </g>
     </g>
     <g id="text_21">
      <text style="font-family:DejaVu Sans;font-size:10px;font-style:normal;font-weight:normal;text-anchor:middle;" transform="rotate(-0, 203.335938, 456.398438)" x="203.335938" y="456.398438">9</text>
     </g>
    </g>
    <g id="xtick_11">
     <g id="line2d_35">
      <g>
       <use style="stroke:#000000;stroke-width:0.8;" x="302.776563" xlink:href="#m5a6ea626e1" y="441.8"/>
      </g>
     </g>
     <g id="text_22">
      <text style="font-family:DejaVu Sans;font-size:10px;font-style:normal;font-weight:normal;text-anchor:middle;" transform="rotate(-0, 302.776563, 456.398438)" x="302.776563" y="456.398438">10</text>
     </g>
    </g>
    <g id="xtick_12">
     <g id="line2d_36">
      <g>
       <use style="stroke:#000000;stroke-width:0.8;" x="402.217188" xlink:href="#m5a6ea626e1" y="441.8"/>
      </g>
     </g>
     <g id="text_23">
      <text style="font-family:DejaVu Sans;font-size:10px;font-style:normal;font-weight:normal;text-anchor:middle;" transform="rotate(-0, 402.217188, 456.398438)" x="402.217188" y="456.398438">11</text>
     </g>
    </g>
    <g id="xtick_13">
     <g id="line2d_37">
      <g>
       <use style="stroke:#000000;stroke-width:0.8;" x="501.657813" xlink:href="#m5a6ea626e1" y="441.8"/>
      </g>
     </g>
     <g id="text_24">
      <text style="font-family:DejaVu Sans;font-size:10px;font-style:normal;font-weight:normal;text-anchor:middle;" transform="rotate(-0, 501.657813, 456.398438)" x="501.657813" y="456.398438">12</text>
     </g>
    </g>
    <g id="xtick_14">
     <g id="line2d_38">
      <g>
       <use style="stroke:#000000;stroke-width:0.8;" x="601.098438" xlink:href="#m5a6ea626e1" y="441.8"/>
      </g>
     </g>
     <g id="text_25">
      <text style="font-family:DejaVu Sans;font-size:10px;font-style:normal;font-weight:normal;text-anchor:middle;" transform="rotate(-0, 601.098438, 456.398438)" x="601.098438" y="456.398438">13</text>
     </g>
    </g>
    <g id="xtick_15">
     <g id="line2d_39">
      <g>
       <use style="stroke:#000000;stroke-width:0.8;" x="700.539063" xlink:href="#m5a6ea626e1" y="441.8"/>
      </g>
     </g>
     <g id="text_26">
      <text style="font-family:DejaVu Sans;font-size:10px;font-style:normal;font-weight:normal;text-anchor:middle;" transform="rotate(-0, 700.539063, 456.398438)" x="700.539063" y="456.398438">14</text>
     </g>
    </g>
    <g id="xtick_16">
     <g id="line2d_40">
      <g>
       <use style="stroke:#000000;stroke-width:0.8;" x="799.979688" xlink:href="#m5a6ea626e1" y="441.8"/>
      </g>
     </g>
     <g id="text_27">
      <text style="font-family:DejaVu Sans;font-size:10px;font-style:normal;font-weight:normal;text-anchor:middle;" transform="rotate(-0, 799.979688, 456.398438)" x="799.979688" y="456.398438">15</text>
     </g>
    </g>
    <g id="text_28">
     <text style="font-family:DejaVu Sans;font-size:10px;font-style:normal;font-weight:normal;text-anchor:middle;" transform="rotate(-0, 451.9375, 470.076563)" x="451.9375" y="470.076563">Hour (0 is Midnight)</text>
    </g>
   </g>
   <g id="matplotlib.axis_4">
    <g id="ytick_9">
     <g id="line2d_41">
      <g>
       <use style="stroke:#000000;stroke-width:0.8;" x="54.175" xlink:href="#m4e23ad0d09" y="419.810418"/>
      </g>
     </g>
     <g id="text_29">
      <text style="font-family:DejaVu Sans;font-size:10px;font-style:normal;font-weight:normal;text-anchor:end;" transform="rotate(-0, 47.175, 423.609636)" x="47.175" y="423.609636">2.6</text>
     </g>
    </g>
    <g id="ytick_10">
     <g id="line2d_42">
      <g>
       <use style="stroke:#000000;stroke-width:0.8;" x="54.175" xlink:href="#m4e23ad0d09" y="383.585364"/>
      </g>
     </g>
     <g id="text_30">
      <text style="font-family:DejaVu Sans;font-size:10px;font-style:normal;font-weight:normal;text-anchor:end;" transform="rotate(-0, 47.175, 387.384583)" x="47.175" y="387.384583">2.8</text>
     </g>
    </g>
    <g id="ytick_11">
     <g id="line2d_43">
      <g>
       <use style="stroke:#000000;stroke-width:0.8;" x="54.175" xlink:href="#m4e23ad0d09" y="347.36031"/>
      </g>
     </g>
     <g id="text_31">
      <text style="font-family:DejaVu Sans;font-size:10px;font-style:normal;font-weight:normal;text-anchor:end;" transform="rotate(-0, 47.175, 351.159529)" x="47.175" y="351.159529">3.0</text>
     </g>
    </g>
    <g id="ytick_12">
     <g id="line2d_44">
      <g>
       <use style="stroke:#000000;stroke-width:0.8;" x="54.175" xlink:href="#m4e23ad0d09" y="311.135256"/>
      </g>
     </g>
     <g id="text_32">
      <text style="font-family:DejaVu Sans;font-size:10px;font-style:normal;font-weight:normal;text-anchor:end;" transform="rotate(-0, 47.175, 314.934475)" x="47.175" y="314.934475">3.2</text>
     </g>
    </g>
    <g id="ytick_13">
     <g id="line2d_45">
      <g>
       <use style="stroke:#000000;stroke-width:0.8;" x="54.175" xlink:href="#m4e23ad0d09" y="274.910203"/>
      </g>
     </g>
     <g id="text_33">
      <text style="font-family:DejaVu Sans;font-size:10px;font-style:normal;font-weight:normal;text-anchor:end;" transform="rotate(-0, 47.175, 278.709421)" x="47.175" y="278.709421">3.4</text>
     </g>
    </g>
    <g id="text_34">
     <text style="font-family:DejaVu Sans;font-size:10px;font-style:normal;font-weight:normal;text-anchor:middle;" transform="rotate(-90, 25.192187, 352.5)" x="25.192187" y="352.5">Log10 Hourly Pickup Count</text>
    </g>
   </g>
   <g id="line2d_46">
    <path clip-path="url(#pdd9cf011bb)" d="M 103.895313 401.884449 
L 103.895313 303.115551 
" style="fill:none;stroke:#3d3d3d;stroke-linecap:square;stroke-width:1.5;"/>
   </g>
   <g id="line2d_47">
    <path clip-path="url(#pdd9cf011bb)" d="M 103.895313 378.512517 
L 103.895313 322.625899 
" style="fill:none;stroke:#3d3d3d;stroke-linecap:square;stroke-width:4.5;"/>
   </g>
   <g id="line2d_48">
    <path clip-path="url(#pdd9cf011bb)" d="M 203.335938 378.980051 
L 203.335938 329.556142 
" style="fill:none;stroke:#3d3d3d;stroke-linecap:square;stroke-width:1.5;"/>
   </g>
   <g id="line2d_49">
    <path clip-path="url(#pdd9cf011bb)" d="M 203.335938 365.15938 
L 203.335938 339.613167 
" style="fill:none;stroke:#3d3d3d;stroke-linecap:square;stroke-width:4.5;"/>
   </g>
   <g id="line2d_50">
    <path clip-path="url(#pdd9cf011bb)" d="M 302.776563 365.604481 
L 302.776563 336.298026 
" style="fill:none;stroke:#3d3d3d;stroke-linecap:square;stroke-width:1.5;"/>
   </g>
   <g id="line2d_51">
    <path clip-path="url(#pdd9cf011bb)" d="M 302.776563 354.35173 
L 302.776563 340.32965 
" style="fill:none;stroke:#3d3d3d;stroke-linecap:square;stroke-width:4.5;"/>
   </g>
   <g id="line2d_52">
    <path clip-path="url(#pdd9cf011bb)" d="M 402.217188 361.450719 
L 402.217188 331.268315 
" style="fill:none;stroke:#3d3d3d;stroke-linecap:square;stroke-width:1.5;"/>
   </g>
   <g id="line2d_53">
    <path clip-path="url(#pdd9cf011bb)" d="M 402.217188 350.614223 
L 402.217188 340.980024 
" style="fill:none;stroke:#3d3d3d;stroke-linecap:square;stroke-width:4.5;"/>
   </g>
   <g id="line2d_54">
    <path clip-path="url(#pdd9cf011bb)" d="M 501.657813 358.768285 
L 501.657813 335.889039 
" style="fill:none;stroke:#3d3d3d;stroke-linecap:square;stroke-width:1.5;"/>
   </g>
   <g id="line2d_55">
    <path clip-path="url(#pdd9cf011bb)" d="M 501.657813 349.271586 
L 501.657813 340.329913 
" style="fill:none;stroke:#3d3d3d;stroke-linecap:square;stroke-width:4.5;"/>
   </g>
   <g id="line2d_56">
    <path clip-path="url(#pdd9cf011bb)" d="M 601.098438 350.89988 
L 601.098438 321.005285 
" style="fill:none;stroke:#3d3d3d;stroke-linecap:square;stroke-width:1.5;"/>
   </g>
   <g id="line2d_57">
    <path clip-path="url(#pdd9cf011bb)" d="M 601.098438 339.648809 
L 601.098438 331.204258 
" style="fill:none;stroke:#3d3d3d;stroke-linecap:square;stroke-width:4.5;"/>
   </g>
   <g id="line2d_58">
    <path clip-path="url(#pdd9cf011bb)" d="M 700.539063 340.725892 
L 700.539063 311.129956 
" style="fill:none;stroke:#3d3d3d;stroke-linecap:square;stroke-width:1.5;"/>
   </g>
   <g id="line2d_59">
    <path clip-path="url(#pdd9cf011bb)" d="M 700.539063 332.106285 
L 700.539063 319.452353 
" style="fill:none;stroke:#3d3d3d;stroke-linecap:square;stroke-width:4.5;"/>
   </g>
   <g id="line2d_60">
    <path clip-path="url(#pdd9cf011bb)" d="M 799.979688 332.626257 
L 799.979688 297.494467 
" style="fill:none;stroke:#3d3d3d;stroke-linecap:square;stroke-width:1.5;"/>
   </g>
   <g id="line2d_61">
    <path clip-path="url(#pdd9cf011bb)" d="M 799.979688 321.230677 
L 799.979688 305.578837 
" style="fill:none;stroke:#3d3d3d;stroke-linecap:square;stroke-width:4.5;"/>
   </g>
   <g id="patch_8">
    <path d="M 54.175 441.8 
L 54.175 263.2 
" style="fill:none;stroke:#000000;stroke-linecap:square;stroke-linejoin:miter;stroke-width:0.8;"/>
   </g>
   <g id="patch_9">
    <path d="M 849.7 441.8 
L 849.7 263.2 
" style="fill:none;stroke:#000000;stroke-linecap:square;stroke-linejoin:miter;stroke-width:0.8;"/>
   </g>
   <g id="patch_10">
    <path d="M 54.175 441.8 
L 849.7 441.8 
" style="fill:none;stroke:#000000;stroke-linecap:square;stroke-linejoin:miter;stroke-width:0.8;"/>
   </g>
   <g id="patch_11">
    <path d="M 54.175 263.2 
L 849.7 263.2 
" style="fill:none;stroke:#000000;stroke-linecap:square;stroke-linejoin:miter;stroke-width:0.8;"/>
   </g>
   <g id="PathCollection_9">
    <g clip-path="url(#pdd9cf011bb)">
     <use style="fill:#ffffff;stroke:#3d3d3d;" x="103.895313" xlink:href="#m48e6fbb091" y="327.880445"/>
    </g>
   </g>
   <g id="PathCollection_10">
    <g clip-path="url(#pdd9cf011bb)">
     <use style="fill:#ffffff;stroke:#3d3d3d;" x="203.335938" xlink:href="#m48e6fbb091" y="344.654235"/>
    </g>
   </g>
   <g id="PathCollection_11">
    <g clip-path="url(#pdd9cf011bb)">
     <use style="fill:#ffffff;stroke:#3d3d3d;" x="302.776563" xlink:href="#m48e6fbb091" y="347.203144"/>
    </g>
   </g>
   <g id="PathCollection_12">
    <g clip-path="url(#pdd9cf011bb)">
     <use style="fill:#ffffff;stroke:#3d3d3d;" x="402.217188" xlink:href="#m48e6fbb091" y="343.447512"/>
    </g>
   </g>
   <g id="PathCollection_13">
    <g clip-path="url(#pdd9cf011bb)">
     <use style="fill:#ffffff;stroke:#3d3d3d;" x="501.657813" xlink:href="#m48e6fbb091" y="342.851023"/>
    </g>
   </g>
   <g id="PathCollection_14">
    <g clip-path="url(#pdd9cf011bb)">
     <use style="fill:#ffffff;stroke:#3d3d3d;" x="601.098438" xlink:href="#m48e6fbb091" y="336.777881"/>
    </g>
   </g>
   <g id="PathCollection_15">
    <g clip-path="url(#pdd9cf011bb)">
     <use style="fill:#ffffff;stroke:#3d3d3d;" x="700.539063" xlink:href="#m48e6fbb091" y="328.24975"/>
    </g>
   </g>
   <g id="PathCollection_16">
    <g clip-path="url(#pdd9cf011bb)">
     <use style="fill:#ffffff;stroke:#3d3d3d;" x="799.979688" xlink:href="#m48e6fbb091" y="311.677776"/>
    </g>
   </g>
   <g id="text_35">
    <text style="font-family:DejaVu Sans;font-size:12px;font-style:normal;font-weight:normal;text-anchor:middle;" transform="rotate(-0, 451.9375, 257.2)" x="451.9375" y="257.2">Hourly Pickup Distributions for Close to Noon</text>
   </g>
  </g>
  <g id="axes_3">
   <g id="patch_12">
    <path d="M 54.175 678.2 
L 849.7 678.2 
L 849.7 499.6 
L 54.175 499.6 
z
" style="fill:#ffffff;"/>
   </g>
   <g id="PolyCollection_17">
    <defs>
     <path d="M 104.420847 -132.404844 
L 103.369778 -132.404844 
L 102.250994 -135.310076 
L 99.936593 -138.215308 
L 96.237156 -141.12054 
L 91.460766 -144.025772 
L 86.457355 -146.931004 
L 82.302206 -149.836236 
L 79.150455 -152.741467 
L 75.851634 -155.646699 
L 71.729606 -158.551931 
L 67.669901 -161.457163 
L 64.885676 -164.362395 
L 64.119063 -167.267627 
L 66.012474 -170.172859 
L 70.897109 -173.078091 
L 78.276963 -175.983322 
L 86.81173 -178.888554 
L 94.568578 -181.793786 
L 99.918449 -184.699018 
L 102.618086 -187.60425 
L 105.172539 -187.60425 
L 105.172539 -187.60425 
L 107.872176 -184.699018 
L 113.222047 -181.793786 
L 120.978895 -178.888554 
L 129.513662 -175.983322 
L 136.893516 -173.078091 
L 141.778151 -170.172859 
L 143.671563 -167.267627 
L 142.904949 -164.362395 
L 140.120724 -161.457163 
L 136.061019 -158.551931 
L 131.938991 -155.646699 
L 128.64017 -152.741467 
L 125.488419 -149.836236 
L 121.33327 -146.931004 
L 116.329859 -144.025772 
L 111.553469 -141.12054 
L 107.854032 -138.215308 
L 105.539631 -135.310076 
L 104.420847 -132.404844 
z
" id="m6962c165c7" style="stroke:#3d3d3d;stroke-width:1.5;"/>
    </defs>
    <g clip-path="url(#pa8d8eee36f)">
     <use style="fill:#3274a1;stroke:#3d3d3d;stroke-width:1.5;" x="0" xlink:href="#m6962c165c7" y="720"/>
    </g>
   </g>
   <g id="PolyCollection_18">
    <defs>
     <path d="M 204.373312 -135.371586 
L 202.298563 -135.371586 
L 200.120152 -138.670738 
L 195.767147 -141.969891 
L 189.470021 -145.269043 
L 182.751564 -148.568196 
L 177.165117 -151.867349 
L 173.120286 -155.166501 
L 170.114358 -158.465654 
L 167.42193 -161.764807 
L 164.901719 -165.063959 
L 163.559688 -168.363112 
L 164.416524 -171.662264 
L 167.134305 -174.961417 
L 170.907631 -178.26057 
L 175.801765 -181.559722 
L 182.144265 -184.858875 
L 189.297216 -188.158027 
L 195.699605 -191.45718 
L 200.056022 -194.756333 
L 202.255786 -198.055485 
L 204.416089 -198.055485 
L 204.416089 -198.055485 
L 206.615853 -194.756333 
L 210.97227 -191.45718 
L 217.374659 -188.158027 
L 224.52761 -184.858875 
L 230.87011 -181.559722 
L 235.764244 -178.26057 
L 239.53757 -174.961417 
L 242.255351 -171.662264 
L 243.112188 -168.363112 
L 241.770156 -165.063959 
L 239.249945 -161.764807 
L 236.557517 -158.465654 
L 233.551589 -155.166501 
L 229.506758 -151.867349 
L 223.920311 -148.568196 
L 217.201854 -145.269043 
L 210.904728 -141.969891 
L 206.551723 -138.670738 
L 204.373312 -135.371586 
z
" id="m4e826dc636" style="stroke:#3d3d3d;stroke-width:1.5;"/>
    </defs>
    <g clip-path="url(#pa8d8eee36f)">
     <use style="fill:#e1812c;stroke:#3d3d3d;stroke-width:1.5;" x="0" xlink:href="#m4e826dc636" y="720"/>
    </g>
   </g>
   <g id="PolyCollection_19">
    <defs>
     <path d="M 303.426101 -124.999833 
L 302.127024 -124.999833 
L 300.418244 -129.491441 
L 296.723567 -133.983049 
L 291.320443 -138.474657 
L 285.645794 -142.966265 
L 280.799799 -147.457873 
L 277.095873 -151.949481 
L 274.118645 -156.441089 
L 270.180488 -160.932697 
L 265.139745 -165.424305 
L 263.000313 -169.915913 
L 267.148655 -174.40752 
L 275.980516 -178.899128 
L 285.47917 -183.390736 
L 292.645031 -187.882344 
L 296.679435 -192.373952 
L 298.758205 -196.86556 
L 300.307925 -201.357168 
L 301.615658 -205.848776 
L 302.398006 -210.340384 
L 303.155119 -210.340384 
L 303.155119 -210.340384 
L 303.937467 -205.848776 
L 305.2452 -201.357168 
L 306.79492 -196.86556 
L 308.87369 -192.373952 
L 312.908094 -187.882344 
L 320.073955 -183.390736 
L 329.572609 -178.899128 
L 338.40447 -174.40752 
L 342.552813 -169.915913 
L 340.41338 -165.424305 
L 335.372637 -160.932697 
L 331.43448 -156.441089 
L 328.457252 -151.949481 
L 324.753326 -147.457873 
L 319.907331 -142.966265 
L 314.232682 -138.474657 
L 308.829558 -133.983049 
L 305.134881 -129.491441 
L 303.426101 -124.999833 
z
" id="m50e1f89f24" style="stroke:#3d3d3d;stroke-width:1.5;"/>
    </defs>
    <g clip-path="url(#pa8d8eee36f)">
     <use style="fill:#3a923a;stroke:#3d3d3d;stroke-width:1.5;" x="0" xlink:href="#m50e1f89f24" y="720"/>
    </g>
   </g>
   <g id="PolyCollection_20">
    <defs>
     <path d="M 402.738333 -122.462584 
L 401.696042 -122.462584 
L 400.549425 -126.222496 
L 398.076585 -129.982407 
L 394.025911 -133.742319 
L 388.939047 -137.50223 
L 384.023688 -141.262142 
L 380.316256 -145.022054 
L 377.807822 -148.781965 
L 375.361827 -152.541877 
L 371.853181 -156.301788 
L 367.557103 -160.0617 
L 363.957014 -163.821612 
L 362.440938 -167.581523 
L 363.72113 -171.341435 
L 368.146098 -175.101346 
L 375.687358 -178.861258 
L 384.983356 -182.62117 
L 393.326215 -186.381081 
L 398.700114 -190.140993 
L 401.173397 -193.900905 
L 403.260978 -193.900905 
L 403.260978 -193.900905 
L 405.734261 -190.140993 
L 411.10816 -186.381081 
L 419.451019 -182.62117 
L 428.747017 -178.861258 
L 436.288277 -175.101346 
L 440.713245 -171.341435 
L 441.993438 -167.581523 
L 440.477361 -163.821612 
L 436.877272 -160.0617 
L 432.581194 -156.301788 
L 429.072548 -152.541877 
L 426.626553 -148.781965 
L 424.118119 -145.022054 
L 420.410687 -141.262142 
L 415.495328 -137.50223 
L 410.408464 -133.742319 
L 406.35779 -129.982407 
L 403.88495 -126.222496 
L 402.738333 -122.462584 
z
" id="m60b1154916" style="stroke:#3d3d3d;stroke-width:1.5;"/>
    </defs>
    <g clip-path="url(#pa8d8eee36f)">
     <use style="fill:#c03d3e;stroke:#3d3d3d;stroke-width:1.5;" x="0" xlink:href="#m60b1154916" y="720"/>
    </g>
   </g>
   <g id="PolyCollection_21">
    <defs>
     <path d="M 502.626828 -122.338273 
L 500.688797 -122.338273 
L 498.660084 -126.233111 
L 494.648962 -130.127949 
L 488.905134 -134.022788 
L 482.851998 -137.917626 
L 478.072383 -141.812465 
L 475.151345 -145.707303 
L 473.237179 -149.602141 
L 470.650548 -153.49698 
L 466.803269 -157.391818 
L 463.231314 -161.286657 
L 461.881563 -165.181495 
L 463.415561 -169.076333 
L 467.616489 -172.971172 
L 474.06724 -176.86601 
L 481.938406 -180.760849 
L 489.716735 -184.655687 
L 495.76264 -188.550525 
L 499.357558 -192.445364 
L 500.964635 -196.340202 
L 502.35099 -196.340202 
L 502.35099 -196.340202 
L 503.958067 -192.445364 
L 507.552985 -188.550525 
L 513.59889 -184.655687 
L 521.377219 -180.760849 
L 529.248385 -176.86601 
L 535.699136 -172.971172 
L 539.900064 -169.076333 
L 541.434063 -165.181495 
L 540.084311 -161.286657 
L 536.512356 -157.391818 
L 532.665077 -153.49698 
L 530.078446 -149.602141 
L 528.16428 -145.707303 
L 525.243242 -141.812465 
L 520.463627 -137.917626 
L 514.410491 -134.022788 
L 508.666663 -130.127949 
L 504.655541 -126.233111 
L 502.626828 -122.338273 
z
" id="mfbaa6616a2" style="stroke:#3d3d3d;stroke-width:1.5;"/>
    </defs>
    <g clip-path="url(#pa8d8eee36f)">
     <use style="fill:#9372b2;stroke:#3d3d3d;stroke-width:1.5;" x="0" xlink:href="#mfbaa6616a2" y="720"/>
    </g>
   </g>
   <g id="PolyCollection_22">
    <defs>
     <path d="M 601.920061 -111.622011 
L 600.276814 -111.622011 
L 598.480571 -116.388853 
L 594.871456 -121.155695 
L 589.889747 -125.922537 
L 585.524212 -130.689379 
L 583.788419 -135.456221 
L 584.47928 -140.223063 
L 585.073846 -144.989905 
L 582.931712 -149.756747 
L 577.21294 -154.523589 
L 569.311071 -159.290431 
L 562.658959 -164.057273 
L 561.322188 -168.824115 
L 566.742439 -173.590957 
L 576.190354 -178.357799 
L 585.54698 -183.124641 
L 592.570505 -187.891483 
L 597.047263 -192.658325 
L 599.503889 -197.425167 
L 600.603351 -202.192009 
L 601.593524 -202.192009 
L 601.593524 -202.192009 
L 602.692986 -197.425167 
L 605.149612 -192.658325 
L 609.62637 -187.891483 
L 616.649895 -183.124641 
L 626.006521 -178.357799 
L 635.454436 -173.590957 
L 640.874688 -168.824115 
L 639.537916 -164.057273 
L 632.885804 -159.290431 
L 624.983935 -154.523589 
L 619.265163 -149.756747 
L 617.123029 -144.989905 
L 617.717595 -140.223063 
L 618.408456 -135.456221 
L 616.672663 -130.689379 
L 612.307128 -125.922537 
L 607.325419 -121.155695 
L 603.716304 -116.388853 
L 601.920061 -111.622011 
z
" id="m165cc5f77c" style="stroke:#3d3d3d;stroke-width:1.5;"/>
    </defs>
    <g clip-path="url(#pa8d8eee36f)">
     <use style="fill:#845b53;stroke:#3d3d3d;stroke-width:1.5;" x="0" xlink:href="#m165cc5f77c" y="720"/>
    </g>
   </g>
   <g id="PolyCollection_23">
    <defs>
     <path d="M 701.566805 -88.3181 
L 699.51132 -88.3181 
L 697.136331 -94.842506 
L 692.070128 -101.366913 
L 684.580436 -107.891319 
L 677.418166 -114.415725 
L 673.731661 -120.940131 
L 673.208697 -127.464537 
L 672.298307 -133.988944 
L 668.989062 -140.51335 
L 664.931699 -147.037756 
L 662.181216 -153.562162 
L 660.762813 -160.086568 
L 660.7784 -166.610975 
L 664.124989 -173.135381 
L 671.848316 -179.659787 
L 681.701128 -186.184193 
L 690.233468 -192.7086 
L 695.804426 -199.233006 
L 698.728125 -205.757412 
L 699.979414 -212.281818 
L 701.098711 -212.281818 
L 701.098711 -212.281818 
L 702.35 -205.757412 
L 705.273699 -199.233006 
L 710.844657 -192.7086 
L 719.376997 -186.184193 
L 729.229809 -179.659787 
L 736.953136 -173.135381 
L 740.299725 -166.610975 
L 740.315313 -160.086568 
L 738.896909 -153.562162 
L 736.146426 -147.037756 
L 732.089063 -140.51335 
L 728.779818 -133.988944 
L 727.869428 -127.464537 
L 727.346464 -120.940131 
L 723.659959 -114.415725 
L 716.497689 -107.891319 
L 709.007997 -101.366913 
L 703.941794 -94.842506 
L 701.566805 -88.3181 
z
" id="m3d1edf5135" style="stroke:#3d3d3d;stroke-width:1.5;"/>
    </defs>
    <g clip-path="url(#pa8d8eee36f)">
     <use style="fill:#d684bd;stroke:#3d3d3d;stroke-width:1.5;" x="0" xlink:href="#m3d1edf5135" y="720"/>
    </g>
   </g>
   <g id="PolyCollection_24">
    <defs>
     <path d="M 801.716347 -49.918182 
L 798.243028 -49.918182 
L 794.856879 -58.134724 
L 788.202043 -66.351266 
L 778.635784 -74.567808 
L 768.870684 -82.78435 
L 762.281847 -91.000892 
L 760.203438 -99.217434 
L 761.621554 -107.433976 
L 764.818566 -115.650518 
L 767.990531 -123.86706 
L 769.144289 -132.083602 
L 767.220749 -140.300144 
L 763.58755 -148.516686 
L 761.761632 -156.733228 
L 764.942937 -164.94977 
L 773.222008 -173.166312 
L 783.380813 -181.382854 
L 791.722933 -189.599397 
L 796.706533 -197.815939 
L 798.948828 -206.032481 
L 801.010547 -206.032481 
L 801.010547 -206.032481 
L 803.252842 -197.815939 
L 808.236442 -189.599397 
L 816.578562 -181.382854 
L 826.737367 -173.166312 
L 835.016438 -164.94977 
L 838.197743 -156.733228 
L 836.371825 -148.516686 
L 832.738626 -140.300144 
L 830.815086 -132.083602 
L 831.968844 -123.86706 
L 835.140809 -115.650518 
L 838.337821 -107.433976 
L 839.755938 -99.217434 
L 837.677528 -91.000892 
L 831.088691 -82.78435 
L 821.323591 -74.567808 
L 811.757332 -66.351266 
L 805.102496 -58.134724 
L 801.716347 -49.918182 
z
" id="m0781357689" style="stroke:#3d3d3d;stroke-width:1.5;"/>
    </defs>
    <g clip-path="url(#pa8d8eee36f)">
     <use style="fill:#7f7f7f;stroke:#3d3d3d;stroke-width:1.5;" x="0" xlink:href="#m0781357689" y="720"/>
    </g>
   </g>
   <g id="matplotlib.axis_5">
    <g id="xtick_17">
     <g id="line2d_62">
      <g>
       <use style="stroke:#000000;stroke-width:0.8;" x="103.895313" xlink:href="#m5a6ea626e1" y="678.2"/>
      </g>
     </g>
     <g id="text_36">
      <text style="font-family:DejaVu Sans;font-size:10px;font-style:normal;font-weight:normal;text-anchor:middle;" transform="rotate(-0, 103.895313, 692.798437)" x="103.895313" y="692.798437">16</text>
     </g>
    </g>
    <g id="xtick_18">
     <g id="line2d_63">
      <g>
       <use style="stroke:#000000;stroke-width:0.8;" x="203.335938" xlink:href="#m5a6ea626e1" y="678.2"/>
      </g>
     </g>
     <g id="text_37">
      <text style="font-family:DejaVu Sans;font-size:10px;font-style:normal;font-weight:normal;text-anchor:middle;" transform="rotate(-0, 203.335938, 692.798437)" x="203.335938" y="692.798437">17</text>
     </g>
    </g>
    <g id="xtick_19">
     <g id="line2d_64">
      <g>
       <use style="stroke:#000000;stroke-width:0.8;" x="302.776563" xlink:href="#m5a6ea626e1" y="678.2"/>
      </g>
     </g>
     <g id="text_38">
      <text style="font-family:DejaVu Sans;font-size:10px;font-style:normal;font-weight:normal;text-anchor:middle;" transform="rotate(-0, 302.776563, 692.798437)" x="302.776563" y="692.798437">18</text>
     </g>
    </g>
    <g id="xtick_20">
     <g id="line2d_65">
      <g>
       <use style="stroke:#000000;stroke-width:0.8;" x="402.217188" xlink:href="#m5a6ea626e1" y="678.2"/>
      </g>
     </g>
     <g id="text_39">
      <text style="font-family:DejaVu Sans;font-size:10px;font-style:normal;font-weight:normal;text-anchor:middle;" transform="rotate(-0, 402.217188, 692.798437)" x="402.217188" y="692.798437">19</text>
     </g>
    </g>
    <g id="xtick_21">
     <g id="line2d_66">
      <g>
       <use style="stroke:#000000;stroke-width:0.8;" x="501.657813" xlink:href="#m5a6ea626e1" y="678.2"/>
      </g>
     </g>
     <g id="text_40">
      <text style="font-family:DejaVu Sans;font-size:10px;font-style:normal;font-weight:normal;text-anchor:middle;" transform="rotate(-0, 501.657813, 692.798437)" x="501.657813" y="692.798437">20</text>
     </g>
    </g>
    <g id="xtick_22">
     <g id="line2d_67">
      <g>
       <use style="stroke:#000000;stroke-width:0.8;" x="601.098438" xlink:href="#m5a6ea626e1" y="678.2"/>
      </g>
     </g>
     <g id="text_41">
      <text style="font-family:DejaVu Sans;font-size:10px;font-style:normal;font-weight:normal;text-anchor:middle;" transform="rotate(-0, 601.098438, 692.798437)" x="601.098438" y="692.798437">21</text>
     </g>
    </g>
    <g id="xtick_23">
     <g id="line2d_68">
      <g>
       <use style="stroke:#000000;stroke-width:0.8;" x="700.539063" xlink:href="#m5a6ea626e1" y="678.2"/>
      </g>
     </g>
     <g id="text_42">
      <text style="font-family:DejaVu Sans;font-size:10px;font-style:normal;font-weight:normal;text-anchor:middle;" transform="rotate(-0, 700.539063, 692.798437)" x="700.539063" y="692.798437">22</text>
     </g>
    </g>
    <g id="xtick_24">
     <g id="line2d_69">
      <g>
       <use style="stroke:#000000;stroke-width:0.8;" x="799.979688" xlink:href="#m5a6ea626e1" y="678.2"/>
      </g>
     </g>
     <g id="text_43">
      <text style="font-family:DejaVu Sans;font-size:10px;font-style:normal;font-weight:normal;text-anchor:middle;" transform="rotate(-0, 799.979688, 692.798437)" x="799.979688" y="692.798437">23</text>
     </g>
    </g>
    <g id="text_44">
     <text style="font-family:DejaVu Sans;font-size:10px;font-style:normal;font-weight:normal;text-anchor:middle;" transform="rotate(-0, 451.9375, 706.476562)" x="451.9375" y="706.476562">Hour (0 is Midnight)</text>
    </g>
   </g>
   <g id="matplotlib.axis_6">
    <g id="ytick_14">
     <g id="line2d_70">
      <g>
       <use style="stroke:#000000;stroke-width:0.8;" x="54.175" xlink:href="#m4e23ad0d09" y="654.094421"/>
      </g>
     </g>
     <g id="text_45">
      <text style="font-family:DejaVu Sans;font-size:10px;font-style:normal;font-weight:normal;text-anchor:end;" transform="rotate(-0, 47.175, 657.89364)" x="47.175" y="657.89364">2.6</text>
     </g>
    </g>
    <g id="ytick_15">
     <g id="line2d_71">
      <g>
       <use style="stroke:#000000;stroke-width:0.8;" x="54.175" xlink:href="#m4e23ad0d09" y="623.430605"/>
      </g>
     </g>
     <g id="text_46">
      <text style="font-family:DejaVu Sans;font-size:10px;font-style:normal;font-weight:normal;text-anchor:end;" transform="rotate(-0, 47.175, 627.229824)" x="47.175" y="627.229824">2.8</text>
     </g>
    </g>
    <g id="ytick_16">
     <g id="line2d_72">
      <g>
       <use style="stroke:#000000;stroke-width:0.8;" x="54.175" xlink:href="#m4e23ad0d09" y="592.766789"/>
      </g>
     </g>
     <g id="text_47">
      <text style="font-family:DejaVu Sans;font-size:10px;font-style:normal;font-weight:normal;text-anchor:end;" transform="rotate(-0, 47.175, 596.566008)" x="47.175" y="596.566008">3.0</text>
     </g>
    </g>
    <g id="ytick_17">
     <g id="line2d_73">
      <g>
       <use style="stroke:#000000;stroke-width:0.8;" x="54.175" xlink:href="#m4e23ad0d09" y="562.102973"/>
      </g>
     </g>
     <g id="text_48">
      <text style="font-family:DejaVu Sans;font-size:10px;font-style:normal;font-weight:normal;text-anchor:end;" transform="rotate(-0, 47.175, 565.902192)" x="47.175" y="565.902192">3.2</text>
     </g>
    </g>
    <g id="ytick_18">
     <g id="line2d_74">
      <g>
       <use style="stroke:#000000;stroke-width:0.8;" x="54.175" xlink:href="#m4e23ad0d09" y="531.439157"/>
      </g>
     </g>
     <g id="text_49">
      <text style="font-family:DejaVu Sans;font-size:10px;font-style:normal;font-weight:normal;text-anchor:end;" transform="rotate(-0, 47.175, 535.238376)" x="47.175" y="535.238376">3.4</text>
     </g>
    </g>
    <g id="ytick_19">
     <g id="line2d_75">
      <g>
       <use style="stroke:#000000;stroke-width:0.8;" x="54.175" xlink:href="#m4e23ad0d09" y="500.775341"/>
      </g>
     </g>
     <g id="text_50">
      <text style="font-family:DejaVu Sans;font-size:10px;font-style:normal;font-weight:normal;text-anchor:end;" transform="rotate(-0, 47.175, 504.57456)" x="47.175" y="504.57456">3.6</text>
     </g>
    </g>
    <g id="text_51">
     <text style="font-family:DejaVu Sans;font-size:10px;font-style:normal;font-weight:normal;text-anchor:middle;" transform="rotate(-90, 25.192187, 588.9)" x="25.192187" y="588.9">Log10 Hourly Pickup Count</text>
    </g>
   </g>
   <g id="line2d_76">
    <path clip-path="url(#pa8d8eee36f)" d="M 103.895313 577.695901 
L 103.895313 542.295004 
" style="fill:none;stroke:#3d3d3d;stroke-linecap:square;stroke-width:1.5;"/>
   </g>
   <g id="line2d_77">
    <path clip-path="url(#pa8d8eee36f)" d="M 103.895313 562.753117 
L 103.895313 549.663501 
" style="fill:none;stroke:#3d3d3d;stroke-linecap:square;stroke-width:4.5;"/>
   </g>
   <g id="line2d_78">
    <path clip-path="url(#pa8d8eee36f)" d="M 203.335938 572.981719 
L 203.335938 533.59121 
" style="fill:none;stroke:#3d3d3d;stroke-linecap:square;stroke-width:1.5;"/>
   </g>
   <g id="line2d_79">
    <path clip-path="url(#pa8d8eee36f)" d="M 203.335938 561.554703 
L 203.335938 543.825778 
" style="fill:none;stroke:#3d3d3d;stroke-linecap:square;stroke-width:4.5;"/>
   </g>
   <g id="line2d_80">
    <path clip-path="url(#pa8d8eee36f)" d="M 302.776563 581.183999 
L 302.776563 523.475784 
" style="fill:none;stroke:#3d3d3d;stroke-linecap:square;stroke-width:1.5;"/>
   </g>
   <g id="line2d_81">
    <path clip-path="url(#pa8d8eee36f)" d="M 302.776563 565.388235 
L 302.776563 547.739042 
" style="fill:none;stroke:#3d3d3d;stroke-linecap:square;stroke-width:4.5;"/>
   </g>
   <g id="line2d_82">
    <path clip-path="url(#pa8d8eee36f)" d="M 402.217188 584.628851 
L 402.217188 539.00766 
" style="fill:none;stroke:#3d3d3d;stroke-linecap:square;stroke-width:1.5;"/>
   </g>
   <g id="line2d_83">
    <path clip-path="url(#pa8d8eee36f)" d="M 402.217188 568.774144 
L 402.217188 547.806022 
" style="fill:none;stroke:#3d3d3d;stroke-linecap:square;stroke-width:4.5;"/>
   </g>
   <g id="line2d_84">
    <path clip-path="url(#pa8d8eee36f)" d="M 501.657813 584.159109 
L 501.657813 537.162416 
" style="fill:none;stroke:#3d3d3d;stroke-linecap:square;stroke-width:1.5;"/>
   </g>
   <g id="line2d_85">
    <path clip-path="url(#pa8d8eee36f)" d="M 501.657813 570.913344 
L 501.657813 549.261991 
" style="fill:none;stroke:#3d3d3d;stroke-linecap:square;stroke-width:4.5;"/>
   </g>
   <g id="line2d_86">
    <path clip-path="url(#pa8d8eee36f)" d="M 601.098438 591.906754 
L 601.098438 534.279226 
" style="fill:none;stroke:#3d3d3d;stroke-linecap:square;stroke-width:1.5;"/>
   </g>
   <g id="line2d_87">
    <path clip-path="url(#pa8d8eee36f)" d="M 601.098438 572.175214 
L 601.098438 549.541756 
" style="fill:none;stroke:#3d3d3d;stroke-linecap:square;stroke-width:4.5;"/>
   </g>
   <g id="line2d_88">
    <path clip-path="url(#pa8d8eee36f)" d="M 700.539063 608.885277 
L 700.539063 530.514805 
" style="fill:none;stroke:#3d3d3d;stroke-linecap:square;stroke-width:1.5;"/>
   </g>
   <g id="line2d_89">
    <path clip-path="url(#pa8d8eee36f)" d="M 700.539063 589.91972 
L 700.539063 548.833059 
" style="fill:none;stroke:#3d3d3d;stroke-linecap:square;stroke-width:4.5;"/>
   </g>
   <g id="line2d_90">
    <path clip-path="url(#pa8d8eee36f)" d="M 799.979688 638.787393 
L 799.979688 545.261945 
" style="fill:none;stroke:#3d3d3d;stroke-linecap:square;stroke-width:1.5;"/>
   </g>
   <g id="line2d_91">
    <path clip-path="url(#pa8d8eee36f)" d="M 799.979688 624.758589 
L 799.979688 560.153743 
" style="fill:none;stroke:#3d3d3d;stroke-linecap:square;stroke-width:4.5;"/>
   </g>
   <g id="patch_13">
    <path d="M 54.175 678.2 
L 54.175 499.6 
" style="fill:none;stroke:#000000;stroke-linecap:square;stroke-linejoin:miter;stroke-width:0.8;"/>
   </g>
   <g id="patch_14">
    <path d="M 849.7 678.2 
L 849.7 499.6 
" style="fill:none;stroke:#000000;stroke-linecap:square;stroke-linejoin:miter;stroke-width:0.8;"/>
   </g>
   <g id="patch_15">
    <path d="M 54.175 678.2 
L 849.7 678.2 
" style="fill:none;stroke:#000000;stroke-linecap:square;stroke-linejoin:miter;stroke-width:0.8;"/>
   </g>
   <g id="patch_16">
    <path d="M 54.175 499.6 
L 849.7 499.6 
" style="fill:none;stroke:#000000;stroke-linecap:square;stroke-linejoin:miter;stroke-width:0.8;"/>
   </g>
   <g id="PathCollection_17">
    <g clip-path="url(#pa8d8eee36f)">
     <use style="fill:#ffffff;stroke:#3d3d3d;" x="103.895313" xlink:href="#m48e6fbb091" y="557.23902"/>
    </g>
   </g>
   <g id="PathCollection_18">
    <g clip-path="url(#pa8d8eee36f)">
     <use style="fill:#ffffff;stroke:#3d3d3d;" x="203.335938" xlink:href="#m48e6fbb091" y="551.552796"/>
    </g>
   </g>
   <g id="PathCollection_19">
    <g clip-path="url(#pa8d8eee36f)">
     <use style="fill:#ffffff;stroke:#3d3d3d;" x="302.776563" xlink:href="#m48e6fbb091" y="553.591662"/>
    </g>
   </g>
   <g id="PathCollection_20">
    <g clip-path="url(#pa8d8eee36f)">
     <use style="fill:#ffffff;stroke:#3d3d3d;" x="402.217188" xlink:href="#m48e6fbb091" y="555.847743"/>
    </g>
   </g>
   <g id="PathCollection_21">
    <g clip-path="url(#pa8d8eee36f)">
     <use style="fill:#ffffff;stroke:#3d3d3d;" x="501.657813" xlink:href="#m48e6fbb091" y="559.543526"/>
    </g>
   </g>
   <g id="PathCollection_22">
    <g clip-path="url(#pa8d8eee36f)">
     <use style="fill:#ffffff;stroke:#3d3d3d;" x="601.098438" xlink:href="#m48e6fbb091" y="555.200721"/>
    </g>
   </g>
   <g id="PathCollection_23">
    <g clip-path="url(#pa8d8eee36f)">
     <use style="fill:#ffffff;stroke:#3d3d3d;" x="700.539063" xlink:href="#m48e6fbb091" y="571.61079"/>
    </g>
   </g>
   <g id="PathCollection_24">
    <g clip-path="url(#pa8d8eee36f)">
     <use style="fill:#ffffff;stroke:#3d3d3d;" x="799.979688" xlink:href="#m48e6fbb091" y="602.116221"/>
    </g>
   </g>
   <g id="text_52">
    <text style="font-family:DejaVu Sans;font-size:12px;font-style:normal;font-weight:normal;text-anchor:middle;" transform="rotate(-0, 451.9375, 493.6)" x="451.9375" y="493.6">Hourly Pickup Distributions for Afternoon to Night</text>
   </g>
  </g>
 </g>
 <defs>
  <clipPath id="pe594ffd0a4">
   <rect height="178.6" width="795.525" x="54.175" y="26.8"/>
  </clipPath>
  <clipPath id="pdd9cf011bb">
   <rect height="178.6" width="795.525" x="54.175" y="263.2"/>
  </clipPath>
  <clipPath id="pa8d8eee36f">
   <rect height="178.6" width="795.525" x="54.175" y="499.6"/>
  </clipPath>
 </defs>
</svg>
