<?xml version="1.0" encoding="utf-8" standalone="no"?>
<!DOCTYPE svg PUBLIC "-//W3C//DTD SVG 1.1//EN"
  "http://www.w3.org/Graphics/SVG/1.1/DTD/svg11.dtd">
<!-- Created with matplotlib (https://matplotlib.org/) -->
<svg height="720pt" version="1.1" viewBox="0 0 864 720" width="864pt" xmlns="http://www.w3.org/2000/svg" xmlns:xlink="http://www.w3.org/1999/xlink">
 <defs>
  <style type="text/css">
*{stroke-linecap:butt;stroke-linejoin:round;}
  </style>
 </defs>
 <g id="figure_1">
  <g id="patch_1">
   <path d="M 0 720 
L 864 720 
L 864 0 
L 0 0 
z
" style="fill:#ffffff;"/>
  </g>
  <g id="axes_1">
   <g id="patch_2">
    <path d="M 47.8 205.4 
L 849.7 205.4 
L 849.7 26.8 
L 47.8 26.8 
z
" style="fill:#ffffff;"/>
   </g>
   <g id="PolyCollection_1">
    <defs>
     <path d="M 99.175909 -556.952496 
L 96.661591 -556.952496 
L 94.341016 -561.145856 
L 89.730438 -565.339215 
L 82.530902 -569.532575 
L 73.605878 -573.725934 
L 64.959349 -577.919294 
L 59.113789 -582.112653 
L 57.82375 -586.306013 
L 60.504491 -590.499372 
L 64.33325 -594.692732 
L 66.829223 -598.886091 
L 68.040841 -603.079451 
L 69.802926 -607.27281 
L 73.479637 -611.46617 
L 78.824639 -615.659529 
L 84.586214 -619.852889 
L 89.638026 -624.046248 
L 93.431375 -628.239608 
L 95.865581 -632.432967 
L 97.152162 -636.626327 
L 98.685338 -636.626327 
L 98.685338 -636.626327 
L 99.971919 -632.432967 
L 102.406125 -628.239608 
L 106.199474 -624.046248 
L 111.251286 -619.852889 
L 117.012861 -615.659529 
L 122.357863 -611.46617 
L 126.034574 -607.27281 
L 127.796659 -603.079451 
L 129.008277 -598.886091 
L 131.50425 -594.692732 
L 135.333009 -590.499372 
L 138.01375 -586.306013 
L 136.723711 -582.112653 
L 130.878151 -577.919294 
L 122.231622 -573.725934 
L 113.306598 -569.532575 
L 106.107062 -565.339215 
L 101.496484 -561.145856 
L 99.175909 -556.952496 
z
" id="md332b3d219" style="stroke:#3d3d3d;stroke-width:1.5;"/>
    </defs>
    <g clip-path="url(#pf63d0957c1)">
     <use style="fill:#3274a1;stroke:#3d3d3d;stroke-width:1.5;" x="0" xlink:href="#md332b3d219" y="720"/>
    </g>
   </g>
   <g id="PolyCollection_2">
    <defs>
     <path d="M 199.203052 -538.027473 
L 197.109448 -538.027473 
L 195.204028 -541.246951 
L 191.320871 -544.466429 
L 184.970709 -547.685907 
L 176.635255 -550.905385 
L 167.97647 -554.124863 
L 161.233598 -557.344341 
L 158.06125 -560.563819 
L 158.585953 -563.783297 
L 161.430512 -567.002775 
L 164.720592 -570.222253 
L 167.235481 -573.441731 
L 168.931425 -576.661209 
L 170.769354 -579.880687 
L 173.99971 -583.100165 
L 179.126167 -586.319643 
L 185.311303 -589.539121 
L 190.942757 -592.758599 
L 194.853047 -595.978077 
L 196.939848 -599.197555 
L 199.372652 -599.197555 
L 199.372652 -599.197555 
L 201.459453 -595.978077 
L 205.369743 -592.758599 
L 211.001197 -589.539121 
L 217.186333 -586.319643 
L 222.31279 -583.100165 
L 225.543146 -579.880687 
L 227.381075 -576.661209 
L 229.077019 -573.441731 
L 231.591908 -570.222253 
L 234.881988 -567.002775 
L 237.726547 -563.783297 
L 238.25125 -560.563819 
L 235.078902 -557.344341 
L 228.33603 -554.124863 
L 219.677245 -550.905385 
L 211.341791 -547.685907 
L 204.991629 -544.466429 
L 201.108472 -541.246951 
L 199.203052 -538.027473 
z
" id="m266cf1c58a" style="stroke:#3d3d3d;stroke-width:1.5;"/>
    </defs>
    <g clip-path="url(#pf63d0957c1)">
     <use style="fill:#e1812c;stroke:#3d3d3d;stroke-width:1.5;" x="0" xlink:href="#m266cf1c58a" y="720"/>
    </g>
   </g>
   <g id="PolyCollection_3">
    <defs>
     <path d="M 299.177607 -522.718182 
L 297.609893 -522.718182 
L 296.331492 -525.527026 
L 293.887177 -528.335869 
L 289.830629 -531.144713 
L 283.6838 -533.953557 
L 275.406214 -536.762401 
L 266.497083 -539.571244 
L 260.023622 -542.380088 
L 258.29875 -545.188932 
L 260.620221 -547.997776 
L 264.021616 -550.806619 
L 265.922366 -553.615463 
L 265.91724 -556.424307 
L 265.799113 -559.233151 
L 268.036043 -562.041994 
L 273.667696 -564.850838 
L 281.413317 -567.659682 
L 288.788825 -570.468526 
L 293.99401 -573.277369 
L 296.782757 -576.086213 
L 300.004743 -576.086213 
L 300.004743 -576.086213 
L 302.79349 -573.277369 
L 307.998675 -570.468526 
L 315.374183 -567.659682 
L 323.119804 -564.850838 
L 328.751457 -562.041994 
L 330.988387 -559.233151 
L 330.87026 -556.424307 
L 330.865134 -553.615463 
L 332.765884 -550.806619 
L 336.167279 -547.997776 
L 338.48875 -545.188932 
L 336.763878 -542.380088 
L 330.290417 -539.571244 
L 321.381286 -536.762401 
L 313.1037 -533.953557 
L 306.956871 -531.144713 
L 302.900323 -528.335869 
L 300.456008 -525.527026 
L 299.177607 -522.718182 
z
" id="meaf49e5b66" style="stroke:#3d3d3d;stroke-width:1.5;"/>
    </defs>
    <g clip-path="url(#pf63d0957c1)">
     <use style="fill:#3a923a;stroke:#3d3d3d;stroke-width:1.5;" x="0" xlink:href="#meaf49e5b66" y="720"/>
    </g>
   </g>
   <g id="PolyCollection_4">
    <defs>
     <path d="M 399.21552 -532.324262 
L 398.04698 -532.324262 
L 397.078949 -535.918099 
L 395.649009 -539.511936 
L 394.480804 -543.105773 
L 394.396355 -546.699611 
L 395.208245 -550.293448 
L 395.504909 -553.887285 
L 393.589796 -557.481122 
L 388.599519 -561.074959 
L 381.291897 -564.668796 
L 373.777775 -568.262633 
L 367.656259 -571.85647 
L 362.761262 -575.450307 
L 358.991179 -579.044144 
L 358.53625 -582.637982 
L 363.999948 -586.231819 
L 374.439371 -589.825656 
L 385.40931 -593.419493 
L 393.089721 -597.01333 
L 396.874103 -600.607167 
L 400.388397 -600.607167 
L 400.388397 -600.607167 
L 404.172779 -597.01333 
L 411.85319 -593.419493 
L 422.823129 -589.825656 
L 433.262552 -586.231819 
L 438.72625 -582.637982 
L 438.271321 -579.044144 
L 434.501238 -575.450307 
L 429.606241 -571.85647 
L 423.484725 -568.262633 
L 415.970603 -564.668796 
L 408.662981 -561.074959 
L 403.672704 -557.481122 
L 401.757591 -553.887285 
L 402.054255 -550.293448 
L 402.866145 -546.699611 
L 402.781696 -543.105773 
L 401.613491 -539.511936 
L 400.183551 -535.918099 
L 399.21552 -532.324262 
z
" id="mb9e0b927b3" style="stroke:#3d3d3d;stroke-width:1.5;"/>
    </defs>
    <g clip-path="url(#pf63d0957c1)">
     <use style="fill:#c03d3e;stroke:#3d3d3d;stroke-width:1.5;" x="0" xlink:href="#mb9e0b927b3" y="720"/>
    </g>
   </g>
   <g id="PolyCollection_5">
    <defs>
     <path d="M 500.234827 -579.776704 
L 497.502673 -579.776704 
L 494.912061 -582.163493 
L 489.939619 -584.550281 
L 482.870956 -586.93707 
L 475.479619 -589.323859 
L 469.891106 -591.710648 
L 466.840072 -594.097436 
L 465.061083 -596.484225 
L 462.64342 -598.871014 
L 459.616827 -601.257802 
L 458.77375 -603.644591 
L 462.716472 -606.03138 
L 470.597875 -608.418169 
L 478.9884 -610.804957 
L 485.31241 -613.191746 
L 489.434798 -615.578535 
L 492.456698 -617.965324 
L 495.018828 -620.352112 
L 496.984831 -622.738901 
L 498.14984 -625.12569 
L 499.58766 -625.12569 
L 499.58766 -625.12569 
L 500.752669 -622.738901 
L 502.718672 -620.352112 
L 505.280802 -617.965324 
L 508.302702 -615.578535 
L 512.42509 -613.191746 
L 518.7491 -610.804957 
L 527.139625 -608.418169 
L 535.021028 -606.03138 
L 538.96375 -603.644591 
L 538.120673 -601.257802 
L 535.09408 -598.871014 
L 532.676417 -596.484225 
L 530.897428 -594.097436 
L 527.846394 -591.710648 
L 522.257881 -589.323859 
L 514.866544 -586.93707 
L 507.797881 -584.550281 
L 502.825439 -582.163493 
L 500.234827 -579.776704 
z
" id="m99092c88c0" style="stroke:#3d3d3d;stroke-width:1.5;"/>
    </defs>
    <g clip-path="url(#pf63d0957c1)">
     <use style="fill:#9372b2;stroke:#3d3d3d;stroke-width:1.5;" x="0" xlink:href="#m99092c88c0" y="720"/>
    </g>
   </g>
   <g id="PolyCollection_6">
    <defs>
     <path d="M 600.246228 -610.645474 
L 597.966272 -610.645474 
L 596.243844 -612.109131 
L 593.249116 -613.572789 
L 589.136344 -615.036447 
L 584.484796 -616.500104 
L 579.711903 -617.963762 
L 574.787389 -619.42742 
L 569.890887 -620.891077 
L 566.048214 -622.354735 
L 564.389144 -623.818393 
L 564.588966 -625.28205 
L 564.585055 -626.745708 
L 562.566 -628.209365 
L 559.496171 -629.673023 
L 559.01125 -631.136681 
L 564.01601 -632.600338 
L 573.631232 -634.063996 
L 584.047057 -635.527654 
L 591.915301 -636.991311 
L 596.342395 -638.454969 
L 601.870105 -638.454969 
L 601.870105 -638.454969 
L 606.297199 -636.991311 
L 614.165443 -635.527654 
L 624.581268 -634.063996 
L 634.19649 -632.600338 
L 639.20125 -631.136681 
L 638.716329 -629.673023 
L 635.6465 -628.209365 
L 633.627445 -626.745708 
L 633.623534 -625.28205 
L 633.823356 -623.818393 
L 632.164286 -622.354735 
L 628.321613 -620.891077 
L 623.425111 -619.42742 
L 618.500597 -617.963762 
L 613.727704 -616.500104 
L 609.076156 -615.036447 
L 604.963384 -613.572789 
L 601.968656 -612.109131 
L 600.246228 -610.645474 
z
" id="m0c3579edcc" style="stroke:#3d3d3d;stroke-width:1.5;"/>
    </defs>
    <g clip-path="url(#pf63d0957c1)">
     <use style="fill:#845b53;stroke:#3d3d3d;stroke-width:1.5;" x="0" xlink:href="#m0c3579edcc" y="720"/>
    </g>
   </g>
   <g id="PolyCollection_7">
    <defs>
     <path d="M 700.109976 -640.962589 
L 698.577524 -640.962589 
L 696.45611 -642.801659 
L 690.971198 -644.64073 
L 680.699891 -646.479801 
L 667.827537 -648.318872 
L 659.24875 -650.157942 
L 660.633867 -651.997013 
L 669.837959 -653.836084 
L 680.222648 -655.675154 
L 688.126616 -657.514225 
L 693.511121 -659.353296 
L 696.835393 -661.192367 
L 698.306087 -663.031437 
L 698.303498 -664.870508 
L 697.346331 -666.709579 
L 696.24366 -668.54865 
L 695.984222 -670.38772 
L 696.830674 -672.226791 
L 698.04717 -674.065862 
L 698.882397 -675.904933 
L 699.805103 -675.904933 
L 699.805103 -675.904933 
L 700.64033 -674.065862 
L 701.856826 -672.226791 
L 702.703278 -670.38772 
L 702.44384 -668.54865 
L 701.341169 -666.709579 
L 700.384002 -664.870508 
L 700.381413 -663.031437 
L 701.852107 -661.192367 
L 705.176379 -659.353296 
L 710.560884 -657.514225 
L 718.464852 -655.675154 
L 728.849541 -653.836084 
L 738.053633 -651.997013 
L 739.43875 -650.157942 
L 730.859963 -648.318872 
L 717.987609 -646.479801 
L 707.716302 -644.64073 
L 702.23139 -642.801659 
L 700.109976 -640.962589 
z
" id="m56f1048e7a" style="stroke:#3d3d3d;stroke-width:1.5;"/>
    </defs>
    <g clip-path="url(#pf63d0957c1)">
     <use style="fill:#d684bd;stroke:#3d3d3d;stroke-width:1.5;" x="0" xlink:href="#m56f1048e7a" y="720"/>
    </g>
   </g>
   <g id="PolyCollection_8">
    <defs>
     <path d="M 800.624928 -659.839286 
L 798.537572 -659.839286 
L 796.365833 -661.167841 
L 792.203597 -662.496395 
L 786.169417 -663.824949 
L 778.628079 -665.153504 
L 769.884195 -666.482058 
L 762.017464 -667.810612 
L 759.48625 -669.139166 
L 764.871531 -670.467721 
L 775.295101 -671.796275 
L 785.528424 -673.124829 
L 792.685526 -674.453384 
L 796.526604 -675.781938 
L 797.708837 -677.110492 
L 797.12448 -678.439047 
L 796.048523 -679.767601 
L 795.812479 -681.096155 
L 796.774645 -682.42471 
L 798.13253 -683.753264 
L 799.063334 -685.081818 
L 800.099166 -685.081818 
L 800.099166 -685.081818 
L 801.02997 -683.753264 
L 802.387855 -682.42471 
L 803.350021 -681.096155 
L 803.113977 -679.767601 
L 802.03802 -678.439047 
L 801.453663 -677.110492 
L 802.635896 -675.781938 
L 806.476974 -674.453384 
L 813.634076 -673.124829 
L 823.867399 -671.796275 
L 834.290969 -670.467721 
L 839.67625 -669.139166 
L 837.145036 -667.810612 
L 829.278305 -666.482058 
L 820.534421 -665.153504 
L 812.993083 -663.824949 
L 806.958903 -662.496395 
L 802.796667 -661.167841 
L 800.624928 -659.839286 
z
" id="m0b00437595" style="stroke:#3d3d3d;stroke-width:1.5;"/>
    </defs>
    <g clip-path="url(#pf63d0957c1)">
     <use style="fill:#7f7f7f;stroke:#3d3d3d;stroke-width:1.5;" x="0" xlink:href="#m0b00437595" y="720"/>
    </g>
   </g>
   <g id="matplotlib.axis_1">
    <g id="xtick_1">
     <g id="line2d_1">
      <defs>
       <path d="M 0 0 
L 0 3.5 
" id="m7698e1f0ca" style="stroke:#000000;stroke-width:0.8;"/>
      </defs>
      <g>
       <use style="stroke:#000000;stroke-width:0.8;" x="97.91875" xlink:href="#m7698e1f0ca" y="205.4"/>
      </g>
     </g>
     <g id="text_1">
      <text style="font-family:DejaVu Sans;font-size:10px;font-style:normal;font-weight:normal;text-anchor:middle;" transform="rotate(-0, 97.91875, 219.998438)" x="97.91875" y="219.998438">0</text>
     </g>
    </g>
    <g id="xtick_2">
     <g id="line2d_2">
      <g>
       <use style="stroke:#000000;stroke-width:0.8;" x="198.15625" xlink:href="#m7698e1f0ca" y="205.4"/>
      </g>
     </g>
     <g id="text_2">
      <text style="font-family:DejaVu Sans;font-size:10px;font-style:normal;font-weight:normal;text-anchor:middle;" transform="rotate(-0, 198.15625, 219.998438)" x="198.15625" y="219.998438">1</text>
     </g>
    </g>
    <g id="xtick_3">
     <g id="line2d_3">
      <g>
       <use style="stroke:#000000;stroke-width:0.8;" x="298.39375" xlink:href="#m7698e1f0ca" y="205.4"/>
      </g>
     </g>
     <g id="text_3">
      <text style="font-family:DejaVu Sans;font-size:10px;font-style:normal;font-weight:normal;text-anchor:middle;" transform="rotate(-0, 298.39375, 219.998438)" x="298.39375" y="219.998438">2</text>
     </g>
    </g>
    <g id="xtick_4">
     <g id="line2d_4">
      <g>
       <use style="stroke:#000000;stroke-width:0.8;" x="398.63125" xlink:href="#m7698e1f0ca" y="205.4"/>
      </g>
     </g>
     <g id="text_4">
      <text style="font-family:DejaVu Sans;font-size:10px;font-style:normal;font-weight:normal;text-anchor:middle;" transform="rotate(-0, 398.63125, 219.998438)" x="398.63125" y="219.998438">3</text>
     </g>
    </g>
    <g id="xtick_5">
     <g id="line2d_5">
      <g>
       <use style="stroke:#000000;stroke-width:0.8;" x="498.86875" xlink:href="#m7698e1f0ca" y="205.4"/>
      </g>
     </g>
     <g id="text_5">
      <text style="font-family:DejaVu Sans;font-size:10px;font-style:normal;font-weight:normal;text-anchor:middle;" transform="rotate(-0, 498.86875, 219.998438)" x="498.86875" y="219.998438">4</text>
     </g>
    </g>
    <g id="xtick_6">
     <g id="line2d_6">
      <g>
       <use style="stroke:#000000;stroke-width:0.8;" x="599.10625" xlink:href="#m7698e1f0ca" y="205.4"/>
      </g>
     </g>
     <g id="text_6">
      <text style="font-family:DejaVu Sans;font-size:10px;font-style:normal;font-weight:normal;text-anchor:middle;" transform="rotate(-0, 599.10625, 219.998438)" x="599.10625" y="219.998438">5</text>
     </g>
    </g>
    <g id="xtick_7">
     <g id="line2d_7">
      <g>
       <use style="stroke:#000000;stroke-width:0.8;" x="699.34375" xlink:href="#m7698e1f0ca" y="205.4"/>
      </g>
     </g>
     <g id="text_7">
      <text style="font-family:DejaVu Sans;font-size:10px;font-style:normal;font-weight:normal;text-anchor:middle;" transform="rotate(-0, 699.34375, 219.998438)" x="699.34375" y="219.998438">6</text>
     </g>
    </g>
    <g id="xtick_8">
     <g id="line2d_8">
      <g>
       <use style="stroke:#000000;stroke-width:0.8;" x="799.58125" xlink:href="#m7698e1f0ca" y="205.4"/>
      </g>
     </g>
     <g id="text_8">
      <text style="font-family:DejaVu Sans;font-size:10px;font-style:normal;font-weight:normal;text-anchor:middle;" transform="rotate(-0, 799.58125, 219.998438)" x="799.58125" y="219.998438">7</text>
     </g>
    </g>
    <g id="text_9">
     <text style="font-family:DejaVu Sans;font-size:10px;font-style:normal;font-weight:normal;text-anchor:middle;" transform="rotate(-0, 448.75, 233.676563)" x="448.75" y="233.676563">Hour (0 is Midnight)</text>
    </g>
   </g>
   <g id="matplotlib.axis_2">
    <g id="ytick_1">
     <g id="line2d_9">
      <defs>
       <path d="M 0 0 
L -3.5 0 
" id="mda1ce9fe50" style="stroke:#000000;stroke-width:0.8;"/>
      </defs>
      <g>
       <use style="stroke:#000000;stroke-width:0.8;" x="47.8" xlink:href="#mda1ce9fe50" y="191.786802"/>
      </g>
     </g>
     <g id="text_10">
      <text style="font-family:DejaVu Sans;font-size:10px;font-style:normal;font-weight:normal;text-anchor:end;" transform="rotate(-0, 40.8, 195.586021)" x="40.8" y="195.586021">2.0</text>
     </g>
    </g>
    <g id="ytick_2">
     <g id="line2d_10">
      <g>
       <use style="stroke:#000000;stroke-width:0.8;" x="47.8" xlink:href="#mda1ce9fe50" y="167.315813"/>
      </g>
     </g>
     <g id="text_11">
      <text style="font-family:DejaVu Sans;font-size:10px;font-style:normal;font-weight:normal;text-anchor:end;" transform="rotate(-0, 40.8, 171.115032)" x="40.8" y="171.115032">2.2</text>
     </g>
    </g>
    <g id="ytick_3">
     <g id="line2d_11">
      <g>
       <use style="stroke:#000000;stroke-width:0.8;" x="47.8" xlink:href="#mda1ce9fe50" y="142.844824"/>
      </g>
     </g>
     <g id="text_12">
      <text style="font-family:DejaVu Sans;font-size:10px;font-style:normal;font-weight:normal;text-anchor:end;" transform="rotate(-0, 40.8, 146.644043)" x="40.8" y="146.644043">2.4</text>
     </g>
    </g>
    <g id="ytick_4">
     <g id="line2d_12">
      <g>
       <use style="stroke:#000000;stroke-width:0.8;" x="47.8" xlink:href="#mda1ce9fe50" y="118.373835"/>
      </g>
     </g>
     <g id="text_13">
      <text style="font-family:DejaVu Sans;font-size:10px;font-style:normal;font-weight:normal;text-anchor:end;" transform="rotate(-0, 40.8, 122.173054)" x="40.8" y="122.173054">2.6</text>
     </g>
    </g>
    <g id="ytick_5">
     <g id="line2d_13">
      <g>
       <use style="stroke:#000000;stroke-width:0.8;" x="47.8" xlink:href="#mda1ce9fe50" y="93.902846"/>
      </g>
     </g>
     <g id="text_14">
      <text style="font-family:DejaVu Sans;font-size:10px;font-style:normal;font-weight:normal;text-anchor:end;" transform="rotate(-0, 40.8, 97.702065)" x="40.8" y="97.702065">2.8</text>
     </g>
    </g>
    <g id="ytick_6">
     <g id="line2d_14">
      <g>
       <use style="stroke:#000000;stroke-width:0.8;" x="47.8" xlink:href="#mda1ce9fe50" y="69.431857"/>
      </g>
     </g>
     <g id="text_15">
      <text style="font-family:DejaVu Sans;font-size:10px;font-style:normal;font-weight:normal;text-anchor:end;" transform="rotate(-0, 40.8, 73.231076)" x="40.8" y="73.231076">3.0</text>
     </g>
    </g>
    <g id="ytick_7">
     <g id="line2d_15">
      <g>
       <use style="stroke:#000000;stroke-width:0.8;" x="47.8" xlink:href="#mda1ce9fe50" y="44.960868"/>
      </g>
     </g>
     <g id="text_16">
      <text style="font-family:DejaVu Sans;font-size:10px;font-style:normal;font-weight:normal;text-anchor:end;" transform="rotate(-0, 40.8, 48.760087)" x="40.8" y="48.760087">3.2</text>
     </g>
    </g>
    <g id="text_17">
     <text style="font-family:DejaVu Sans;font-size:10px;font-style:normal;font-weight:normal;text-anchor:middle;" transform="rotate(-90, 18.817187, 116.1)" x="18.817187" y="116.1">Log10 Hourly Pickup Count</text>
    </g>
   </g>
   <g id="line2d_16">
    <path clip-path="url(#pf63d0957c1)" d="M 97.91875 146.838989 
L 97.91875 99.582189 
" style="fill:none;stroke:#3d3d3d;stroke-linecap:square;stroke-width:1.5;"/>
   </g>
   <g id="line2d_17">
    <path clip-path="url(#pf63d0957c1)" d="M 97.91875 135.857544 
L 97.91875 115.87546 
" style="fill:none;stroke:#3d3d3d;stroke-linecap:square;stroke-width:4.5;"/>
   </g>
   <g id="line2d_18">
    <path clip-path="url(#pf63d0957c1)" d="M 198.15625 169.188892 
L 198.15625 133.58608 
" style="fill:none;stroke:#3d3d3d;stroke-linecap:square;stroke-width:1.5;"/>
   </g>
   <g id="line2d_19">
    <path clip-path="url(#pf63d0957c1)" d="M 198.15625 160.064948 
L 198.15625 143.834215 
" style="fill:none;stroke:#3d3d3d;stroke-linecap:square;stroke-width:4.5;"/>
   </g>
   <g id="line2d_20">
    <path clip-path="url(#pf63d0957c1)" d="M 298.39375 186.241311 
L 298.39375 154.954294 
" style="fill:none;stroke:#3d3d3d;stroke-linecap:square;stroke-width:1.5;"/>
   </g>
   <g id="line2d_21">
    <path clip-path="url(#pf63d0957c1)" d="M 298.39375 176.733202 
L 298.39375 161.371204 
" style="fill:none;stroke:#3d3d3d;stroke-linecap:square;stroke-width:4.5;"/>
   </g>
   <g id="line2d_22">
    <path clip-path="url(#pf63d0957c1)" d="M 398.63125 154.954294 
L 398.63125 132.010206 
" style="fill:none;stroke:#3d3d3d;stroke-linecap:square;stroke-width:1.5;"/>
   </g>
   <g id="line2d_23">
    <path clip-path="url(#pf63d0957c1)" d="M 398.63125 150.19258 
L 398.63125 136.089214 
" style="fill:none;stroke:#3d3d3d;stroke-linecap:square;stroke-width:4.5;"/>
   </g>
   <g id="line2d_24">
    <path clip-path="url(#pf63d0957c1)" d="M 498.86875 131.324544 
L 498.86875 103.773062 
" style="fill:none;stroke:#3d3d3d;stroke-linecap:square;stroke-width:1.5;"/>
   </g>
   <g id="line2d_25">
    <path clip-path="url(#pf63d0957c1)" d="M 498.86875 125.256379 
L 498.86875 115.277178 
" style="fill:none;stroke:#3d3d3d;stroke-linecap:square;stroke-width:4.5;"/>
   </g>
   <g id="line2d_26">
    <path clip-path="url(#pf63d0957c1)" d="M 599.10625 103.268423 
L 599.10625 87.631134 
" style="fill:none;stroke:#3d3d3d;stroke-linecap:square;stroke-width:1.5;"/>
   </g>
   <g id="line2d_27">
    <path clip-path="url(#pf63d0957c1)" d="M 599.10625 97.267686 
L 599.10625 88.95766 
" style="fill:none;stroke:#3d3d3d;stroke-linecap:square;stroke-width:4.5;"/>
   </g>
   <g id="line2d_28">
    <path clip-path="url(#pf63d0957c1)" d="M 699.34375 73.003201 
L 699.34375 62.937447 
" style="fill:none;stroke:#3d3d3d;stroke-linecap:square;stroke-width:1.5;"/>
   </g>
   <g id="line2d_29">
    <path clip-path="url(#pf63d0957c1)" d="M 699.34375 69.84553 
L 699.34375 67.042712 
" style="fill:none;stroke:#3d3d3d;stroke-linecap:square;stroke-width:4.5;"/>
   </g>
   <g id="line2d_30">
    <path clip-path="url(#pf63d0957c1)" d="M 799.58125 55.777226 
L 799.58125 47.007886 
" style="fill:none;stroke:#3d3d3d;stroke-linecap:square;stroke-width:1.5;"/>
   </g>
   <g id="line2d_31">
    <path clip-path="url(#pf63d0957c1)" d="M 799.58125 52.49231 
L 799.58125 50.203851 
" style="fill:none;stroke:#3d3d3d;stroke-linecap:square;stroke-width:4.5;"/>
   </g>
   <g id="patch_3">
    <path d="M 47.8 205.4 
L 47.8 26.8 
" style="fill:none;stroke:#000000;stroke-linecap:square;stroke-linejoin:miter;stroke-width:0.8;"/>
   </g>
   <g id="patch_4">
    <path d="M 849.7 205.4 
L 849.7 26.8 
" style="fill:none;stroke:#000000;stroke-linecap:square;stroke-linejoin:miter;stroke-width:0.8;"/>
   </g>
   <g id="patch_5">
    <path d="M 47.8 205.4 
L 849.7 205.4 
" style="fill:none;stroke:#000000;stroke-linecap:square;stroke-linejoin:miter;stroke-width:0.8;"/>
   </g>
   <g id="patch_6">
    <path d="M 47.8 26.8 
L 849.7 26.8 
" style="fill:none;stroke:#000000;stroke-linecap:square;stroke-linejoin:miter;stroke-width:0.8;"/>
   </g>
   <g id="PathCollection_1">
    <defs>
     <path d="M 0 1.5 
C 0.397805 1.5 0.77937 1.341951 1.06066 1.06066 
C 1.341951 0.77937 1.5 0.397805 1.5 0 
C 1.5 -0.397805 1.341951 -0.77937 1.06066 -1.06066 
C 0.77937 -1.341951 0.397805 -1.5 0 -1.5 
C -0.397805 -1.5 -0.77937 -1.341951 -1.06066 -1.06066 
C -1.341951 -0.77937 -1.5 -0.397805 -1.5 0 
C -1.5 0.397805 -1.341951 0.77937 -1.06066 1.06066 
C -0.77937 1.341951 -0.397805 1.5 0 1.5 
z
" id="m6822fe6249" style="stroke:#3d3d3d;"/>
    </defs>
    <g clip-path="url(#pf63d0957c1)">
     <use style="fill:#ffffff;stroke:#3d3d3d;" x="97.91875" xlink:href="#m6822fe6249" y="131.156943"/>
    </g>
   </g>
   <g id="PathCollection_2">
    <g clip-path="url(#pf63d0957c1)">
     <use style="fill:#ffffff;stroke:#3d3d3d;" x="198.15625" xlink:href="#m6822fe6249" y="153.81788"/>
    </g>
   </g>
   <g id="PathCollection_3">
    <g clip-path="url(#pf63d0957c1)">
     <use style="fill:#ffffff;stroke:#3d3d3d;" x="298.39375" xlink:href="#m6822fe6249" y="169.892749"/>
    </g>
   </g>
   <g id="PathCollection_4">
    <g clip-path="url(#pf63d0957c1)">
     <use style="fill:#ffffff;stroke:#3d3d3d;" x="398.63125" xlink:href="#m6822fe6249" y="140.318385"/>
    </g>
   </g>
   <g id="PathCollection_5">
    <g clip-path="url(#pf63d0957c1)">
     <use style="fill:#ffffff;stroke:#3d3d3d;" x="498.86875" xlink:href="#m6822fe6249" y="118.055777"/>
    </g>
   </g>
   <g id="PathCollection_6">
    <g clip-path="url(#pf63d0957c1)">
     <use style="fill:#ffffff;stroke:#3d3d3d;" x="599.10625" xlink:href="#m6822fe6249" y="93.899321"/>
    </g>
   </g>
   <g id="PathCollection_7">
    <g clip-path="url(#pf63d0957c1)">
     <use style="fill:#ffffff;stroke:#3d3d3d;" x="699.34375" xlink:href="#m6822fe6249" y="69.087584"/>
    </g>
   </g>
   <g id="PathCollection_8">
    <g clip-path="url(#pf63d0957c1)">
     <use style="fill:#ffffff;stroke:#3d3d3d;" x="799.58125" xlink:href="#m6822fe6249" y="50.705237"/>
    </g>
   </g>
   <g id="text_18">
    <text style="font-family:DejaVu Sans;font-size:12px;font-style:normal;font-weight:normal;text-anchor:middle;" transform="rotate(-0, 448.75, 20.8)" x="448.75" y="20.8">Mon-Th Hourly Pickup Distributions for Mornings</text>
   </g>
  </g>
  <g id="axes_2">
   <g id="patch_7">
    <path d="M 47.8 441.8 
L 849.7 441.8 
L 849.7 263.2 
L 47.8 263.2 
z
" style="fill:#ffffff;"/>
   </g>
   <g id="PolyCollection_9">
    <defs>
     <path d="M 99.80044 -349.082533 
L 96.03706 -349.082533 
L 92.089596 -353.634069 
L 84.556513 -358.185605 
L 74.786403 -362.737141 
L 66.347677 -367.288676 
L 61.267367 -371.840212 
L 58.530614 -376.391748 
L 57.82375 -380.943284 
L 61.261605 -385.49482 
L 69.676353 -390.046356 
L 80.269724 -394.597891 
L 89.074123 -399.149427 
L 94.035254 -403.700963 
L 95.432882 -408.252499 
L 94.720922 -412.804035 
L 93.665093 -417.355571 
L 93.642681 -421.907106 
L 94.819927 -426.458642 
L 96.308862 -431.010178 
L 97.319567 -435.561714 
L 98.517933 -435.561714 
L 98.517933 -435.561714 
L 99.528638 -431.010178 
L 101.017573 -426.458642 
L 102.194819 -421.907106 
L 102.172407 -417.355571 
L 101.116578 -412.804035 
L 100.404618 -408.252499 
L 101.802246 -403.700963 
L 106.763377 -399.149427 
L 115.567776 -394.597891 
L 126.161147 -390.046356 
L 134.575895 -385.49482 
L 138.01375 -380.943284 
L 137.306886 -376.391748 
L 134.570133 -371.840212 
L 129.489823 -367.288676 
L 121.051097 -362.737141 
L 111.280987 -358.185605 
L 103.747904 -353.634069 
L 99.80044 -349.082533 
z
" id="m1af0eed317" style="stroke:#3d3d3d;stroke-width:1.5;"/>
    </defs>
    <g clip-path="url(#p6b56033448)">
     <use style="fill:#3274a1;stroke:#3d3d3d;stroke-width:1.5;" x="0" xlink:href="#m1af0eed317" y="720"/>
    </g>
   </g>
   <g id="PolyCollection_10">
    <defs>
     <path d="M 199.671739 -306.343967 
L 196.640761 -306.343967 
L 194.087456 -310.401462 
L 189.606195 -314.458957 
L 183.827359 -318.516451 
L 178.293914 -322.573946 
L 173.893852 -326.63144 
L 169.855607 -330.688935 
L 165.113239 -334.746429 
L 160.402014 -338.803924 
L 158.06125 -342.861418 
L 159.576384 -346.918913 
L 164.006526 -350.976407 
L 169.252447 -355.033902 
L 174.238418 -359.091396 
L 179.195155 -363.148891 
L 184.376401 -367.206385 
L 189.341593 -371.26388 
L 193.35023 -375.321375 
L 195.983921 -379.378869 
L 197.361869 -383.436364 
L 198.950631 -383.436364 
L 198.950631 -383.436364 
L 200.328579 -379.378869 
L 202.96227 -375.321375 
L 206.970907 -371.26388 
L 211.936099 -367.206385 
L 217.117345 -363.148891 
L 222.074082 -359.091396 
L 227.060053 -355.033902 
L 232.305974 -350.976407 
L 236.736116 -346.918913 
L 238.25125 -342.861418 
L 235.910486 -338.803924 
L 231.199261 -334.746429 
L 226.456893 -330.688935 
L 222.418648 -326.63144 
L 218.018586 -322.573946 
L 212.485141 -318.516451 
L 206.706305 -314.458957 
L 202.225044 -310.401462 
L 199.671739 -306.343967 
z
" id="m3b2aeafba4" style="stroke:#3d3d3d;stroke-width:1.5;"/>
    </defs>
    <g clip-path="url(#p6b56033448)">
     <use style="fill:#e1812c;stroke:#3d3d3d;stroke-width:1.5;" x="0" xlink:href="#m3b2aeafba4" y="720"/>
    </g>
   </g>
   <g id="PolyCollection_11">
    <defs>
     <path d="M 299.189519 -286.813286 
L 297.597981 -286.813286 
L 296.314433 -291.315384 
L 294.073773 -295.817483 
L 291.133706 -300.319582 
L 288.168602 -304.821681 
L 285.521707 -309.323779 
L 282.696903 -313.825878 
L 279.117937 -318.327977 
L 275.238636 -322.830075 
L 272.050996 -327.332174 
L 269.417314 -331.834273 
L 265.993589 -336.336372 
L 261.488685 -340.83847 
L 258.29875 -345.340569 
L 259.854499 -349.842668 
L 267.181009 -354.344766 
L 277.640561 -358.846865 
L 287.222571 -363.348964 
L 293.566191 -367.851063 
L 296.728592 -372.353161 
L 300.058908 -372.353161 
L 300.058908 -372.353161 
L 303.221309 -367.851063 
L 309.564929 -363.348964 
L 319.146939 -358.846865 
L 329.606491 -354.344766 
L 336.933001 -349.842668 
L 338.48875 -345.340569 
L 335.298815 -340.83847 
L 330.793911 -336.336372 
L 327.370186 -331.834273 
L 324.736504 -327.332174 
L 321.548864 -322.830075 
L 317.669563 -318.327977 
L 314.090597 -313.825878 
L 311.265793 -309.323779 
L 308.618898 -304.821681 
L 305.653794 -300.319582 
L 302.713727 -295.817483 
L 300.473067 -291.315384 
L 299.189519 -286.813286 
z
" id="m92f888ffa7" style="stroke:#3d3d3d;stroke-width:1.5;"/>
    </defs>
    <g clip-path="url(#p6b56033448)">
     <use style="fill:#3a923a;stroke:#3d3d3d;stroke-width:1.5;" x="0" xlink:href="#m92f888ffa7" y="720"/>
    </g>
   </g>
   <g id="PolyCollection_12">
    <defs>
     <path d="M 399.375824 -286.318182 
L 397.886676 -286.318182 
L 396.516405 -291.421964 
L 393.887967 -296.525746 
L 390.038709 -301.629528 
L 385.722434 -306.73331 
L 381.996047 -311.837092 
L 379.291829 -316.940874 
L 376.842235 -322.044657 
L 373.2257 -327.148439 
L 367.766429 -332.252221 
L 361.799887 -337.356003 
L 358.53625 -342.459785 
L 360.663211 -347.563567 
L 367.662869 -352.667349 
L 376.361713 -357.771131 
L 384.017519 -362.874913 
L 389.822933 -367.978695 
L 393.939149 -373.082478 
L 396.544481 -378.18626 
L 397.891265 -383.290042 
L 399.371235 -383.290042 
L 399.371235 -383.290042 
L 400.718019 -378.18626 
L 403.323351 -373.082478 
L 407.439567 -367.978695 
L 413.244981 -362.874913 
L 420.900787 -357.771131 
L 429.599631 -352.667349 
L 436.599289 -347.563567 
L 438.72625 -342.459785 
L 435.462613 -337.356003 
L 429.496071 -332.252221 
L 424.0368 -327.148439 
L 420.420265 -322.044657 
L 417.970671 -316.940874 
L 415.266453 -311.837092 
L 411.540066 -306.73331 
L 407.223791 -301.629528 
L 403.374533 -296.525746 
L 400.746095 -291.421964 
L 399.375824 -286.318182 
z
" id="m83e650f729" style="stroke:#3d3d3d;stroke-width:1.5;"/>
    </defs>
    <g clip-path="url(#p6b56033448)">
     <use style="fill:#c03d3e;stroke:#3d3d3d;stroke-width:1.5;" x="0" xlink:href="#m83e650f729" y="720"/>
    </g>
   </g>
   <g id="PolyCollection_13">
    <defs>
     <path d="M 500.141932 -293.181281 
L 497.595568 -293.181281 
L 495.57759 -297.36212 
L 491.943517 -301.542958 
L 486.848215 -305.723797 
L 481.306046 -309.904635 
L 476.617989 -314.085473 
L 473.44885 -318.266312 
L 471.563006 -322.44715 
L 470.293167 -326.627989 
L 468.858936 -330.808827 
L 466.435257 -334.989666 
L 462.813533 -339.170504 
L 459.37657 -343.351343 
L 458.77375 -347.532181 
L 462.924807 -351.71302 
L 471.249497 -355.893858 
L 480.99235 -360.074697 
L 489.233677 -364.255535 
L 494.582268 -368.436374 
L 497.306508 -372.617212 
L 500.430992 -372.617212 
L 500.430992 -372.617212 
L 503.155232 -368.436374 
L 508.503823 -364.255535 
L 516.74515 -360.074697 
L 526.488003 -355.893858 
L 534.812693 -351.71302 
L 538.96375 -347.532181 
L 538.36093 -343.351343 
L 534.923967 -339.170504 
L 531.302243 -334.989666 
L 528.878564 -330.808827 
L 527.444333 -326.627989 
L 526.174494 -322.44715 
L 524.28865 -318.266312 
L 521.119511 -314.085473 
L 516.431454 -309.904635 
L 510.889285 -305.723797 
L 505.793983 -301.542958 
L 502.15991 -297.36212 
L 500.141932 -293.181281 
z
" id="m7d437f2650" style="stroke:#3d3d3d;stroke-width:1.5;"/>
    </defs>
    <g clip-path="url(#p6b56033448)">
     <use style="fill:#9372b2;stroke:#3d3d3d;stroke-width:1.5;" x="0" xlink:href="#m7d437f2650" y="720"/>
    </g>
   </g>
   <g id="PolyCollection_14">
    <defs>
     <path d="M 600.488353 -308.802251 
L 597.724147 -308.802251 
L 595.643185 -312.968506 
L 592.232689 -317.13476 
L 588.256616 -321.301015 
L 585.313967 -325.46727 
L 584.425527 -329.633525 
L 584.613226 -333.79978 
L 583.422677 -337.966034 
L 579.183025 -342.132289 
L 572.565779 -346.298544 
L 565.849008 -350.464799 
L 561.030937 -354.631053 
L 559.01125 -358.797308 
L 560.208849 -362.963563 
L 564.940344 -367.129818 
L 572.696826 -371.296073 
L 581.625663 -375.462327 
L 589.403434 -379.628582 
L 594.656879 -383.794837 
L 597.438824 -387.961092 
L 600.773676 -387.961092 
L 600.773676 -387.961092 
L 603.555621 -383.794837 
L 608.809066 -379.628582 
L 616.586837 -375.462327 
L 625.515674 -371.296073 
L 633.272156 -367.129818 
L 638.003651 -362.963563 
L 639.20125 -358.797308 
L 637.181563 -354.631053 
L 632.363492 -350.464799 
L 625.646721 -346.298544 
L 619.029475 -342.132289 
L 614.789823 -337.966034 
L 613.599274 -333.79978 
L 613.786973 -329.633525 
L 612.898533 -325.46727 
L 609.955884 -321.301015 
L 605.979811 -317.13476 
L 602.569315 -312.968506 
L 600.488353 -308.802251 
z
" id="m74e17e93b2" style="stroke:#3d3d3d;stroke-width:1.5;"/>
    </defs>
    <g clip-path="url(#p6b56033448)">
     <use style="fill:#845b53;stroke:#3d3d3d;stroke-width:1.5;" x="0" xlink:href="#m74e17e93b2" y="720"/>
    </g>
   </g>
   <g id="PolyCollection_15">
    <defs>
     <path d="M 701.174266 -324.535688 
L 697.513234 -324.535688 
L 694.768283 -329.812927 
L 690.190736 -335.090166 
L 684.41301 -340.367404 
L 678.756586 -345.644643 
L 673.935166 -350.921882 
L 669.507455 -356.199121 
L 665.140461 -361.47636 
L 661.64722 -366.753599 
L 659.877258 -372.030838 
L 659.367631 -377.308077 
L 659.24875 -382.585315 
L 659.944815 -387.862554 
L 662.879891 -393.139793 
L 668.725229 -398.417032 
L 676.587356 -403.694271 
L 684.660674 -408.97151 
L 691.283611 -414.248749 
L 695.656903 -419.525988 
L 697.964051 -424.803226 
L 700.723449 -424.803226 
L 700.723449 -424.803226 
L 703.030597 -419.525988 
L 707.403889 -414.248749 
L 714.026826 -408.97151 
L 722.100144 -403.694271 
L 729.962271 -398.417032 
L 735.807609 -393.139793 
L 738.742685 -387.862554 
L 739.43875 -382.585315 
L 739.319869 -377.308077 
L 738.810242 -372.030838 
L 737.04028 -366.753599 
L 733.547039 -361.47636 
L 729.180045 -356.199121 
L 724.752334 -350.921882 
L 719.930914 -345.644643 
L 714.27449 -340.367404 
L 708.496764 -335.090166 
L 703.919217 -329.812927 
L 701.174266 -324.535688 
z
" id="m7a8192a15b" style="stroke:#3d3d3d;stroke-width:1.5;"/>
    </defs>
    <g clip-path="url(#p6b56033448)">
     <use style="fill:#d684bd;stroke:#3d3d3d;stroke-width:1.5;" x="0" xlink:href="#m7a8192a15b" y="720"/>
    </g>
   </g>
   <g id="PolyCollection_16">
    <defs>
     <path d="M 801.001416 -343.804284 
L 798.161084 -343.804284 
L 796.12703 -349.324154 
L 792.780408 -354.844024 
L 788.52296 -360.363894 
L 784.239204 -365.883765 
L 780.574725 -371.403635 
L 777.510289 -376.923505 
L 774.721373 -382.443375 
L 772.019262 -387.963246 
L 769.245203 -393.483116 
L 766.100848 -399.002986 
L 762.585928 -404.522856 
L 759.722245 -410.042727 
L 759.48625 -415.562597 
L 763.483429 -421.082467 
L 771.417786 -426.602337 
L 780.96905 -432.122207 
L 789.332557 -437.642078 
L 794.936992 -443.161948 
L 797.865747 -448.681818 
L 801.296753 -448.681818 
L 801.296753 -448.681818 
L 804.225508 -443.161948 
L 809.829943 -437.642078 
L 818.19345 -432.122207 
L 827.744714 -426.602337 
L 835.679071 -421.082467 
L 839.67625 -415.562597 
L 839.440255 -410.042727 
L 836.576572 -404.522856 
L 833.061652 -399.002986 
L 829.917297 -393.483116 
L 827.143238 -387.963246 
L 824.441127 -382.443375 
L 821.652211 -376.923505 
L 818.587775 -371.403635 
L 814.923296 -365.883765 
L 810.63954 -360.363894 
L 806.382092 -354.844024 
L 803.03547 -349.324154 
L 801.001416 -343.804284 
z
" id="m19d476500c" style="stroke:#3d3d3d;stroke-width:1.5;"/>
    </defs>
    <g clip-path="url(#p6b56033448)">
     <use style="fill:#7f7f7f;stroke:#3d3d3d;stroke-width:1.5;" x="0" xlink:href="#m19d476500c" y="720"/>
    </g>
   </g>
   <g id="matplotlib.axis_3">
    <g id="xtick_9">
     <g id="line2d_32">
      <g>
       <use style="stroke:#000000;stroke-width:0.8;" x="97.91875" xlink:href="#m7698e1f0ca" y="441.8"/>
      </g>
     </g>
     <g id="text_19">
      <text style="font-family:DejaVu Sans;font-size:10px;font-style:normal;font-weight:normal;text-anchor:middle;" transform="rotate(-0, 97.91875, 456.398438)" x="97.91875" y="456.398438">8</text>
     </g>
    </g>
    <g id="xtick_10">
     <g id="line2d_33">
      <g>
       <use style="stroke:#000000;stroke-width:0.8;" x="198.15625" xlink:href="#m7698e1f0ca" y="441.8"/>
      </g>
     </g>
     <g id="text_20">
      <text style="font-family:DejaVu Sans;font-size:10px;font-style:normal;font-weight:normal;text-anchor:middle;" transform="rotate(-0, 198.15625, 456.398438)" x="198.15625" y="456.398438">9</text>
     </g>
    </g>
    <g id="xtick_11">
     <g id="line2d_34">
      <g>
       <use style="stroke:#000000;stroke-width:0.8;" x="298.39375" xlink:href="#m7698e1f0ca" y="441.8"/>
      </g>
     </g>
     <g id="text_21">
      <text style="font-family:DejaVu Sans;font-size:10px;font-style:normal;font-weight:normal;text-anchor:middle;" transform="rotate(-0, 298.39375, 456.398438)" x="298.39375" y="456.398438">10</text>
     </g>
    </g>
    <g id="xtick_12">
     <g id="line2d_35">
      <g>
       <use style="stroke:#000000;stroke-width:0.8;" x="398.63125" xlink:href="#m7698e1f0ca" y="441.8"/>
      </g>
     </g>
     <g id="text_22">
      <text style="font-family:DejaVu Sans;font-size:10px;font-style:normal;font-weight:normal;text-anchor:middle;" transform="rotate(-0, 398.63125, 456.398438)" x="398.63125" y="456.398438">11</text>
     </g>
    </g>
    <g id="xtick_13">
     <g id="line2d_36">
      <g>
       <use style="stroke:#000000;stroke-width:0.8;" x="498.86875" xlink:href="#m7698e1f0ca" y="441.8"/>
      </g>
     </g>
     <g id="text_23">
      <text style="font-family:DejaVu Sans;font-size:10px;font-style:normal;font-weight:normal;text-anchor:middle;" transform="rotate(-0, 498.86875, 456.398438)" x="498.86875" y="456.398438">12</text>
     </g>
    </g>
    <g id="xtick_14">
     <g id="line2d_37">
      <g>
       <use style="stroke:#000000;stroke-width:0.8;" x="599.10625" xlink:href="#m7698e1f0ca" y="441.8"/>
      </g>
     </g>
     <g id="text_24">
      <text style="font-family:DejaVu Sans;font-size:10px;font-style:normal;font-weight:normal;text-anchor:middle;" transform="rotate(-0, 599.10625, 456.398438)" x="599.10625" y="456.398438">13</text>
     </g>
    </g>
    <g id="xtick_15">
     <g id="line2d_38">
      <g>
       <use style="stroke:#000000;stroke-width:0.8;" x="699.34375" xlink:href="#m7698e1f0ca" y="441.8"/>
      </g>
     </g>
     <g id="text_25">
      <text style="font-family:DejaVu Sans;font-size:10px;font-style:normal;font-weight:normal;text-anchor:middle;" transform="rotate(-0, 699.34375, 456.398438)" x="699.34375" y="456.398438">14</text>
     </g>
    </g>
    <g id="xtick_16">
     <g id="line2d_39">
      <g>
       <use style="stroke:#000000;stroke-width:0.8;" x="799.58125" xlink:href="#m7698e1f0ca" y="441.8"/>
      </g>
     </g>
     <g id="text_26">
      <text style="font-family:DejaVu Sans;font-size:10px;font-style:normal;font-weight:normal;text-anchor:middle;" transform="rotate(-0, 799.58125, 456.398438)" x="799.58125" y="456.398438">15</text>
     </g>
    </g>
    <g id="text_27">
     <text style="font-family:DejaVu Sans;font-size:10px;font-style:normal;font-weight:normal;text-anchor:middle;" transform="rotate(-0, 448.75, 470.076563)" x="448.75" y="470.076563">Hour (0 is Midnight)</text>
    </g>
   </g>
   <g id="matplotlib.axis_4">
    <g id="ytick_8">
     <g id="line2d_40">
      <g>
       <use style="stroke:#000000;stroke-width:0.8;" x="47.8" xlink:href="#mda1ce9fe50" y="422.763345"/>
      </g>
     </g>
     <g id="text_28">
      <text style="font-family:DejaVu Sans;font-size:10px;font-style:normal;font-weight:normal;text-anchor:end;" transform="rotate(-0, 40.8, 426.562564)" x="40.8" y="426.562564">2.9</text>
     </g>
    </g>
    <g id="ytick_9">
     <g id="line2d_41">
      <g>
       <use style="stroke:#000000;stroke-width:0.8;" x="47.8" xlink:href="#mda1ce9fe50" y="387.162959"/>
      </g>
     </g>
     <g id="text_29">
      <text style="font-family:DejaVu Sans;font-size:10px;font-style:normal;font-weight:normal;text-anchor:end;" transform="rotate(-0, 40.8, 390.962178)" x="40.8" y="390.962178">3.0</text>
     </g>
    </g>
    <g id="ytick_10">
     <g id="line2d_42">
      <g>
       <use style="stroke:#000000;stroke-width:0.8;" x="47.8" xlink:href="#mda1ce9fe50" y="351.562573"/>
      </g>
     </g>
     <g id="text_30">
      <text style="font-family:DejaVu Sans;font-size:10px;font-style:normal;font-weight:normal;text-anchor:end;" transform="rotate(-0, 40.8, 355.361792)" x="40.8" y="355.361792">3.1</text>
     </g>
    </g>
    <g id="ytick_11">
     <g id="line2d_43">
      <g>
       <use style="stroke:#000000;stroke-width:0.8;" x="47.8" xlink:href="#mda1ce9fe50" y="315.962187"/>
      </g>
     </g>
     <g id="text_31">
      <text style="font-family:DejaVu Sans;font-size:10px;font-style:normal;font-weight:normal;text-anchor:end;" transform="rotate(-0, 40.8, 319.761406)" x="40.8" y="319.761406">3.2</text>
     </g>
    </g>
    <g id="ytick_12">
     <g id="line2d_44">
      <g>
       <use style="stroke:#000000;stroke-width:0.8;" x="47.8" xlink:href="#mda1ce9fe50" y="280.361801"/>
      </g>
     </g>
     <g id="text_32">
      <text style="font-family:DejaVu Sans;font-size:10px;font-style:normal;font-weight:normal;text-anchor:end;" transform="rotate(-0, 40.8, 284.161019)" x="40.8" y="284.161019">3.3</text>
     </g>
    </g>
    <g id="text_33">
     <text style="font-family:DejaVu Sans;font-size:10px;font-style:normal;font-weight:normal;text-anchor:middle;" transform="rotate(-90, 18.817187, 352.5)" x="18.817187" y="352.5">Log10 Hourly Pickup Count</text>
    </g>
   </g>
   <g id="line2d_45">
    <path clip-path="url(#p6b56033448)" d="M 97.91875 355.156392 
L 97.91875 328.546846 
" style="fill:none;stroke:#3d3d3d;stroke-linecap:square;stroke-width:1.5;"/>
   </g>
   <g id="line2d_46">
    <path clip-path="url(#p6b56033448)" d="M 97.91875 351.093591 
L 97.91875 335.114453 
" style="fill:none;stroke:#3d3d3d;stroke-linecap:square;stroke-width:4.5;"/>
   </g>
   <g id="line2d_47">
    <path clip-path="url(#p6b56033448)" d="M 198.15625 398.051012 
L 198.15625 352.168657 
" style="fill:none;stroke:#3d3d3d;stroke-linecap:square;stroke-width:1.5;"/>
   </g>
   <g id="line2d_48">
    <path clip-path="url(#p6b56033448)" d="M 198.15625 384.988991 
L 198.15625 369.562798 
" style="fill:none;stroke:#3d3d3d;stroke-linecap:square;stroke-width:4.5;"/>
   </g>
   <g id="line2d_49">
    <path clip-path="url(#p6b56033448)" d="M 298.39375 415.413645 
L 298.39375 365.419908 
" style="fill:none;stroke:#3d3d3d;stroke-linecap:square;stroke-width:1.5;"/>
   </g>
   <g id="line2d_50">
    <path clip-path="url(#p6b56033448)" d="M 298.39375 393.314507 
L 298.39375 371.727524 
" style="fill:none;stroke:#3d3d3d;stroke-linecap:square;stroke-width:4.5;"/>
   </g>
   <g id="line2d_51">
    <path clip-path="url(#p6b56033448)" d="M 398.63125 414.857825 
L 398.63125 355.533952 
" style="fill:none;stroke:#3d3d3d;stroke-linecap:square;stroke-width:1.5;"/>
   </g>
   <g id="line2d_52">
    <path clip-path="url(#p6b56033448)" d="M 398.63125 391.908371 
L 398.63125 373.171025 
" style="fill:none;stroke:#3d3d3d;stroke-linecap:square;stroke-width:4.5;"/>
   </g>
   <g id="line2d_53">
    <path clip-path="url(#p6b56033448)" d="M 498.86875 409.585468 
L 498.86875 364.616039 
" style="fill:none;stroke:#3d3d3d;stroke-linecap:square;stroke-width:1.5;"/>
   </g>
   <g id="line2d_54">
    <path clip-path="url(#p6b56033448)" d="M 498.86875 394.086284 
L 498.86875 372.146339 
" style="fill:none;stroke:#3d3d3d;stroke-linecap:square;stroke-width:4.5;"/>
   </g>
   <g id="line2d_55">
    <path clip-path="url(#p6b56033448)" d="M 599.10625 394.120025 
L 599.10625 349.116633 
" style="fill:none;stroke:#3d3d3d;stroke-linecap:square;stroke-width:1.5;"/>
   </g>
   <g id="line2d_56">
    <path clip-path="url(#p6b56033448)" d="M 599.10625 372.57071 
L 599.10625 355.471 
" style="fill:none;stroke:#3d3d3d;stroke-linecap:square;stroke-width:4.5;"/>
   </g>
   <g id="line2d_57">
    <path clip-path="url(#p6b56033448)" d="M 699.34375 374.122931 
L 699.34375 316.538155 
" style="fill:none;stroke:#3d3d3d;stroke-linecap:square;stroke-width:1.5;"/>
   </g>
   <g id="line2d_58">
    <path clip-path="url(#p6b56033448)" d="M 699.34375 356.071198 
L 699.34375 329.956261 
" style="fill:none;stroke:#3d3d3d;stroke-linecap:square;stroke-width:4.5;"/>
   </g>
   <g id="line2d_59">
    <path clip-path="url(#p6b56033448)" d="M 799.58125 353.530872 
L 799.58125 293.983026 
" style="fill:none;stroke:#3d3d3d;stroke-linecap:square;stroke-width:1.5;"/>
   </g>
   <g id="line2d_60">
    <path clip-path="url(#p6b56033448)" d="M 799.58125 333.335821 
L 799.58125 302.91152 
" style="fill:none;stroke:#3d3d3d;stroke-linecap:square;stroke-width:4.5;"/>
   </g>
   <g id="patch_8">
    <path d="M 47.8 441.8 
L 47.8 263.2 
" style="fill:none;stroke:#000000;stroke-linecap:square;stroke-linejoin:miter;stroke-width:0.8;"/>
   </g>
   <g id="patch_9">
    <path d="M 849.7 441.8 
L 849.7 263.2 
" style="fill:none;stroke:#000000;stroke-linecap:square;stroke-linejoin:miter;stroke-width:0.8;"/>
   </g>
   <g id="patch_10">
    <path d="M 47.8 441.8 
L 849.7 441.8 
" style="fill:none;stroke:#000000;stroke-linecap:square;stroke-linejoin:miter;stroke-width:0.8;"/>
   </g>
   <g id="patch_11">
    <path d="M 47.8 263.2 
L 849.7 263.2 
" style="fill:none;stroke:#000000;stroke-linecap:square;stroke-linejoin:miter;stroke-width:0.8;"/>
   </g>
   <g id="PathCollection_9">
    <g clip-path="url(#p6b56033448)">
     <use style="fill:#ffffff;stroke:#3d3d3d;" x="97.91875" xlink:href="#m6822fe6249" y="339.966708"/>
    </g>
   </g>
   <g id="PathCollection_10">
    <g clip-path="url(#p6b56033448)">
     <use style="fill:#ffffff;stroke:#3d3d3d;" x="198.15625" xlink:href="#m6822fe6249" y="377.066749"/>
    </g>
   </g>
   <g id="PathCollection_11">
    <g clip-path="url(#p6b56033448)">
     <use style="fill:#ffffff;stroke:#3d3d3d;" x="298.39375" xlink:href="#m6822fe6249" y="378.668251"/>
    </g>
   </g>
   <g id="PathCollection_12">
    <g clip-path="url(#p6b56033448)">
     <use style="fill:#ffffff;stroke:#3d3d3d;" x="398.63125" xlink:href="#m6822fe6249" y="378.885619"/>
    </g>
   </g>
   <g id="PathCollection_13">
    <g clip-path="url(#p6b56033448)">
     <use style="fill:#ffffff;stroke:#3d3d3d;" x="498.86875" xlink:href="#m6822fe6249" y="380.371362"/>
    </g>
   </g>
   <g id="PathCollection_14">
    <g clip-path="url(#p6b56033448)">
     <use style="fill:#ffffff;stroke:#3d3d3d;" x="599.10625" xlink:href="#m6822fe6249" y="365.433038"/>
    </g>
   </g>
   <g id="PathCollection_15">
    <g clip-path="url(#p6b56033448)">
     <use style="fill:#ffffff;stroke:#3d3d3d;" x="699.34375" xlink:href="#m6822fe6249" y="346.161935"/>
    </g>
   </g>
   <g id="PathCollection_16">
    <g clip-path="url(#p6b56033448)">
     <use style="fill:#ffffff;stroke:#3d3d3d;" x="799.58125" xlink:href="#m6822fe6249" y="314.501678"/>
    </g>
   </g>
   <g id="text_34">
    <text style="font-family:DejaVu Sans;font-size:12px;font-style:normal;font-weight:normal;text-anchor:middle;" transform="rotate(-0, 448.75, 257.2)" x="448.75" y="257.2">Mon-Th Hourly Pickup Distributions for Close to Noon</text>
   </g>
  </g>
  <g id="axes_3">
   <g id="patch_12">
    <path d="M 47.8 678.2 
L 849.7 678.2 
L 849.7 499.6 
L 47.8 499.6 
z
" style="fill:#ffffff;"/>
   </g>
   <g id="PolyCollection_17">
    <defs>
     <path d="M 99.49114 -138.005749 
L 96.34636 -138.005749 
L 94.052275 -140.563853 
L 90.380929 -143.121956 
L 86.180859 -145.680059 
L 83.017366 -148.238162 
L 81.673838 -150.796266 
L 81.028106 -153.354369 
L 79.016034 -155.912472 
L 74.696622 -158.470576 
L 68.930992 -161.028679 
L 63.327907 -163.586782 
L 59.263024 -166.144885 
L 57.82375 -168.702989 
L 59.837003 -171.261092 
L 65.405731 -173.819195 
L 73.470092 -176.377299 
L 82.055553 -178.935402 
L 89.209347 -181.493505 
L 93.941903 -184.051608 
L 96.429847 -186.609712 
L 99.407653 -186.609712 
L 99.407653 -186.609712 
L 101.895597 -184.051608 
L 106.628153 -181.493505 
L 113.781947 -178.935402 
L 122.367408 -176.377299 
L 130.431769 -173.819195 
L 136.000497 -171.261092 
L 138.01375 -168.702989 
L 136.574476 -166.144885 
L 132.509593 -163.586782 
L 126.906508 -161.028679 
L 121.140878 -158.470576 
L 116.821466 -155.912472 
L 114.809394 -153.354369 
L 114.163662 -150.796266 
L 112.820134 -148.238162 
L 109.656641 -145.680059 
L 105.456571 -143.121956 
L 101.785225 -140.563853 
L 99.49114 -138.005749 
z
" id="m8bdb9ff005" style="stroke:#3d3d3d;stroke-width:1.5;"/>
    </defs>
    <g clip-path="url(#p2c376c885f)">
     <use style="fill:#3274a1;stroke:#3d3d3d;stroke-width:1.5;" x="0" xlink:href="#m8bdb9ff005" y="720"/>
    </g>
   </g>
   <g id="PolyCollection_18">
    <defs>
     <path d="M 199.056156 -138.791405 
L 197.256344 -138.791405 
L 195.740451 -141.844919 
L 192.98953 -144.898433 
L 189.219646 -147.951948 
L 185.330359 -151.005462 
L 182.152255 -154.058976 
L 179.42678 -157.11249 
L 175.904482 -160.166004 
L 170.84869 -163.219518 
L 165.182091 -166.273032 
L 160.652065 -169.326546 
L 158.240928 -172.38006 
L 158.06125 -175.433574 
L 160.266169 -178.487088 
L 165.145096 -181.540602 
L 172.413527 -184.594116 
L 180.77344 -187.64763 
L 188.317389 -190.701144 
L 193.615222 -193.754658 
L 196.481721 -196.808172 
L 199.830779 -196.808172 
L 199.830779 -196.808172 
L 202.697278 -193.754658 
L 207.995111 -190.701144 
L 215.53906 -187.64763 
L 223.898973 -184.594116 
L 231.167404 -181.540602 
L 236.046331 -178.487088 
L 238.25125 -175.433574 
L 238.071572 -172.38006 
L 235.660435 -169.326546 
L 231.130409 -166.273032 
L 225.46381 -163.219518 
L 220.408018 -160.166004 
L 216.88572 -157.11249 
L 214.160245 -154.058976 
L 210.982141 -151.005462 
L 207.092854 -147.951948 
L 203.32297 -144.898433 
L 200.572049 -141.844919 
L 199.056156 -138.791405 
z
" id="m04a195cd32" style="stroke:#3d3d3d;stroke-width:1.5;"/>
    </defs>
    <g clip-path="url(#p2c376c885f)">
     <use style="fill:#e1812c;stroke:#3d3d3d;stroke-width:1.5;" x="0" xlink:href="#m04a195cd32" y="720"/>
    </g>
   </g>
   <g id="PolyCollection_19">
    <defs>
     <path d="M 299.775846 -132.868183 
L 297.011654 -132.868183 
L 294.422088 -136.93244 
L 289.481134 -140.996696 
L 282.486921 -145.060952 
L 275.201736 -149.125209 
L 269.576998 -153.189465 
L 265.896496 -157.253722 
L 262.879036 -161.317978 
L 259.906214 -165.382234 
L 258.29875 -169.446491 
L 259.963732 -173.510747 
L 265.375192 -177.575003 
L 272.996549 -181.63926 
L 280.351456 -185.703516 
L 285.792628 -189.767772 
L 289.397277 -193.832029 
L 292.157153 -197.896285 
L 294.605192 -201.960541 
L 296.532006 -206.024798 
L 297.684764 -210.089054 
L 299.102736 -210.089054 
L 299.102736 -210.089054 
L 300.255494 -206.024798 
L 302.182308 -201.960541 
L 304.630347 -197.896285 
L 307.390223 -193.832029 
L 310.994872 -189.767772 
L 316.436044 -185.703516 
L 323.790951 -181.63926 
L 331.412308 -177.575003 
L 336.823768 -173.510747 
L 338.48875 -169.446491 
L 336.881286 -165.382234 
L 333.908464 -161.317978 
L 330.891004 -157.253722 
L 327.210502 -153.189465 
L 321.585764 -149.125209 
L 314.300579 -145.060952 
L 307.306366 -140.996696 
L 302.365412 -136.93244 
L 299.775846 -132.868183 
z
" id="m832de3a749" style="stroke:#3d3d3d;stroke-width:1.5;"/>
    </defs>
    <g clip-path="url(#p2c376c885f)">
     <use style="fill:#3a923a;stroke:#3d3d3d;stroke-width:1.5;" x="0" xlink:href="#m832de3a749" y="720"/>
    </g>
   </g>
   <g id="PolyCollection_20">
    <defs>
     <path d="M 399.768747 -132.791952 
L 397.493753 -132.791952 
L 395.611409 -135.906775 
L 392.165768 -139.021599 
L 387.299265 -142.136422 
L 381.96685 -145.251246 
L 377.283633 -148.36607 
L 373.629177 -151.480893 
L 370.571293 -154.595717 
L 367.53692 -157.71054 
L 364.3586 -160.825364 
L 361.385177 -163.940187 
L 359.248331 -167.055011 
L 358.53625 -170.169835 
L 359.895256 -173.284658 
L 364.170012 -176.399482 
L 371.553221 -179.514305 
L 380.557949 -182.629129 
L 388.666428 -185.743953 
L 394.170067 -188.858776 
L 397.025587 -191.9736 
L 400.236913 -191.9736 
L 400.236913 -191.9736 
L 403.092433 -188.858776 
L 408.596072 -185.743953 
L 416.704551 -182.629129 
L 425.709279 -179.514305 
L 433.092488 -176.399482 
L 437.367244 -173.284658 
L 438.72625 -170.169835 
L 438.014169 -167.055011 
L 435.877323 -163.940187 
L 432.9039 -160.825364 
L 429.72558 -157.71054 
L 426.691207 -154.595717 
L 423.633323 -151.480893 
L 419.978867 -148.36607 
L 415.29565 -145.251246 
L 409.963235 -142.136422 
L 405.096732 -139.021599 
L 401.651091 -135.906775 
L 399.768747 -132.791952 
z
" id="m28f21a01e4" style="stroke:#3d3d3d;stroke-width:1.5;"/>
    </defs>
    <g clip-path="url(#p2c376c885f)">
     <use style="fill:#c03d3e;stroke:#3d3d3d;stroke-width:1.5;" x="0" xlink:href="#m28f21a01e4" y="720"/>
    </g>
   </g>
   <g id="PolyCollection_21">
    <defs>
     <path d="M 500.200095 -130.142759 
L 497.537405 -130.142759 
L 495.432668 -133.562734 
L 491.769491 -136.982708 
L 486.974215 -140.402683 
L 482.334983 -143.822657 
L 479.062744 -147.242632 
L 477.251874 -150.662606 
L 475.922212 -154.082581 
L 473.860443 -157.502555 
L 470.321796 -160.92253 
L 465.521979 -164.342504 
L 460.931273 -167.762478 
L 458.77375 -171.182453 
L 460.753111 -174.602427 
L 466.968367 -178.022402 
L 475.767866 -181.442376 
L 484.622204 -184.862351 
L 491.491234 -188.282325 
L 495.698758 -191.7023 
L 497.749733 -195.122274 
L 499.987767 -195.122274 
L 499.987767 -195.122274 
L 502.038742 -191.7023 
L 506.246266 -188.282325 
L 513.115296 -184.862351 
L 521.969634 -181.442376 
L 530.769133 -178.022402 
L 536.984389 -174.602427 
L 538.96375 -171.182453 
L 536.806227 -167.762478 
L 532.215521 -164.342504 
L 527.415704 -160.92253 
L 523.877057 -157.502555 
L 521.815288 -154.082581 
L 520.485626 -150.662606 
L 518.674756 -147.242632 
L 515.402517 -143.822657 
L 510.763285 -140.402683 
L 505.968009 -136.982708 
L 502.304832 -133.562734 
L 500.200095 -130.142759 
z
" id="mb192b81ef7" style="stroke:#3d3d3d;stroke-width:1.5;"/>
    </defs>
    <g clip-path="url(#p2c376c885f)">
     <use style="fill:#9372b2;stroke:#3d3d3d;stroke-width:1.5;" x="0" xlink:href="#mb192b81ef7" y="720"/>
    </g>
   </g>
   <g id="PolyCollection_22">
    <defs>
     <path d="M 600.358736 -114.4926 
L 597.853764 -114.4926 
L 595.755652 -119.130649 
L 591.999923 -123.768697 
L 587.062778 -128.406745 
L 582.55184 -133.044793 
L 580.051391 -137.682841 
L 579.438879 -142.32089 
L 578.681202 -146.958938 
L 575.599013 -151.596986 
L 569.830514 -156.235034 
L 563.291025 -160.873083 
L 559.01125 -165.511131 
L 559.217025 -170.149179 
L 563.994027 -174.787227 
L 571.617056 -179.425275 
L 579.945453 -184.063324 
L 587.357925 -188.701372 
L 592.916719 -193.33942 
L 596.377028 -197.977468 
L 598.121217 -202.615517 
L 600.091283 -202.615517 
L 600.091283 -202.615517 
L 601.835472 -197.977468 
L 605.295781 -193.33942 
L 610.854575 -188.701372 
L 618.267047 -184.063324 
L 626.595444 -179.425275 
L 634.218473 -174.787227 
L 638.995475 -170.149179 
L 639.20125 -165.511131 
L 634.921475 -160.873083 
L 628.381986 -156.235034 
L 622.613487 -151.596986 
L 619.531298 -146.958938 
L 618.773621 -142.32089 
L 618.161109 -137.682841 
L 615.66066 -133.044793 
L 611.149722 -128.406745 
L 606.212577 -123.768697 
L 602.456848 -119.130649 
L 600.358736 -114.4926 
z
" id="m8c40bb513e" style="stroke:#3d3d3d;stroke-width:1.5;"/>
    </defs>
    <g clip-path="url(#p2c376c885f)">
     <use style="fill:#845b53;stroke:#3d3d3d;stroke-width:1.5;" x="0" xlink:href="#m8c40bb513e" y="720"/>
    </g>
   </g>
   <g id="PolyCollection_23">
    <defs>
     <path d="M 700.216195 -84.886876 
L 698.471305 -84.886876 
L 696.721294 -91.591873 
L 693.166976 -98.29687 
L 687.745355 -105.001867 
L 681.520729 -111.706864 
L 675.846116 -118.411861 
L 670.77676 -125.116858 
L 665.425069 -131.821855 
L 660.58047 -138.526852 
L 659.24875 -145.231849 
L 663.167013 -151.936846 
L 670.308896 -158.641843 
L 677.193833 -165.346839 
L 682.295387 -172.051836 
L 686.139431 -178.756833 
L 689.513493 -185.46183 
L 692.678384 -192.166827 
L 695.463325 -198.871824 
L 697.5114 -205.576821 
L 698.671126 -212.281818 
L 700.016374 -212.281818 
L 700.016374 -212.281818 
L 701.1761 -205.576821 
L 703.224175 -198.871824 
L 706.009116 -192.166827 
L 709.174007 -185.46183 
L 712.548069 -178.756833 
L 716.392113 -172.051836 
L 721.493667 -165.346839 
L 728.378604 -158.641843 
L 735.520487 -151.936846 
L 739.43875 -145.231849 
L 738.10703 -138.526852 
L 733.262431 -131.821855 
L 727.91074 -125.116858 
L 722.841384 -118.411861 
L 717.166771 -111.706864 
L 710.942145 -105.001867 
L 705.520524 -98.29687 
L 701.966206 -91.591873 
L 700.216195 -84.886876 
z
" id="m3030cff4a3" style="stroke:#3d3d3d;stroke-width:1.5;"/>
    </defs>
    <g clip-path="url(#p2c376c885f)">
     <use style="fill:#d684bd;stroke:#3d3d3d;stroke-width:1.5;" x="0" xlink:href="#m3030cff4a3" y="720"/>
    </g>
   </g>
   <g id="PolyCollection_24">
    <defs>
     <path d="M 801.040425 -49.918182 
L 798.122075 -49.918182 
L 795.294567 -57.942434 
L 789.876144 -65.966687 
L 782.205237 -73.990939 
L 773.942785 -82.015192 
L 766.717812 -90.039444 
L 761.469768 -98.063697 
L 759.48625 -106.087949 
L 762.150527 -114.112202 
L 768.629965 -122.136454 
L 775.811467 -130.160707 
L 781.461137 -138.184959 
L 785.700384 -146.209212 
L 789.149206 -154.233465 
L 791.668774 -162.257717 
L 793.306653 -170.28197 
L 794.767638 -178.306222 
L 796.445528 -186.330475 
L 797.985104 -194.354727 
L 798.968404 -202.37898 
L 800.194096 -202.37898 
L 800.194096 -202.37898 
L 801.177396 -194.354727 
L 802.716972 -186.330475 
L 804.394862 -178.306222 
L 805.855847 -170.28197 
L 807.493726 -162.257717 
L 810.013294 -154.233465 
L 813.462116 -146.209212 
L 817.701363 -138.184959 
L 823.351033 -130.160707 
L 830.532535 -122.136454 
L 837.011973 -114.112202 
L 839.67625 -106.087949 
L 837.692732 -98.063697 
L 832.444688 -90.039444 
L 825.219715 -82.015192 
L 816.957263 -73.990939 
L 809.286356 -65.966687 
L 803.867933 -57.942434 
L 801.040425 -49.918182 
z
" id="m95d87f6636" style="stroke:#3d3d3d;stroke-width:1.5;"/>
    </defs>
    <g clip-path="url(#p2c376c885f)">
     <use style="fill:#7f7f7f;stroke:#3d3d3d;stroke-width:1.5;" x="0" xlink:href="#m95d87f6636" y="720"/>
    </g>
   </g>
   <g id="matplotlib.axis_5">
    <g id="xtick_17">
     <g id="line2d_61">
      <g>
       <use style="stroke:#000000;stroke-width:0.8;" x="97.91875" xlink:href="#m7698e1f0ca" y="678.2"/>
      </g>
     </g>
     <g id="text_35">
      <text style="font-family:DejaVu Sans;font-size:10px;font-style:normal;font-weight:normal;text-anchor:middle;" transform="rotate(-0, 97.91875, 692.798437)" x="97.91875" y="692.798437">16</text>
     </g>
    </g>
    <g id="xtick_18">
     <g id="line2d_62">
      <g>
       <use style="stroke:#000000;stroke-width:0.8;" x="198.15625" xlink:href="#m7698e1f0ca" y="678.2"/>
      </g>
     </g>
     <g id="text_36">
      <text style="font-family:DejaVu Sans;font-size:10px;font-style:normal;font-weight:normal;text-anchor:middle;" transform="rotate(-0, 198.15625, 692.798437)" x="198.15625" y="692.798437">17</text>
     </g>
    </g>
    <g id="xtick_19">
     <g id="line2d_63">
      <g>
       <use style="stroke:#000000;stroke-width:0.8;" x="298.39375" xlink:href="#m7698e1f0ca" y="678.2"/>
      </g>
     </g>
     <g id="text_37">
      <text style="font-family:DejaVu Sans;font-size:10px;font-style:normal;font-weight:normal;text-anchor:middle;" transform="rotate(-0, 298.39375, 692.798437)" x="298.39375" y="692.798437">18</text>
     </g>
    </g>
    <g id="xtick_20">
     <g id="line2d_64">
      <g>
       <use style="stroke:#000000;stroke-width:0.8;" x="398.63125" xlink:href="#m7698e1f0ca" y="678.2"/>
      </g>
     </g>
     <g id="text_38">
      <text style="font-family:DejaVu Sans;font-size:10px;font-style:normal;font-weight:normal;text-anchor:middle;" transform="rotate(-0, 398.63125, 692.798437)" x="398.63125" y="692.798437">19</text>
     </g>
    </g>
    <g id="xtick_21">
     <g id="line2d_65">
      <g>
       <use style="stroke:#000000;stroke-width:0.8;" x="498.86875" xlink:href="#m7698e1f0ca" y="678.2"/>
      </g>
     </g>
     <g id="text_39">
      <text style="font-family:DejaVu Sans;font-size:10px;font-style:normal;font-weight:normal;text-anchor:middle;" transform="rotate(-0, 498.86875, 692.798437)" x="498.86875" y="692.798437">20</text>
     </g>
    </g>
    <g id="xtick_22">
     <g id="line2d_66">
      <g>
       <use style="stroke:#000000;stroke-width:0.8;" x="599.10625" xlink:href="#m7698e1f0ca" y="678.2"/>
      </g>
     </g>
     <g id="text_40">
      <text style="font-family:DejaVu Sans;font-size:10px;font-style:normal;font-weight:normal;text-anchor:middle;" transform="rotate(-0, 599.10625, 692.798437)" x="599.10625" y="692.798437">21</text>
     </g>
    </g>
    <g id="xtick_23">
     <g id="line2d_67">
      <g>
       <use style="stroke:#000000;stroke-width:0.8;" x="699.34375" xlink:href="#m7698e1f0ca" y="678.2"/>
      </g>
     </g>
     <g id="text_41">
      <text style="font-family:DejaVu Sans;font-size:10px;font-style:normal;font-weight:normal;text-anchor:middle;" transform="rotate(-0, 699.34375, 692.798437)" x="699.34375" y="692.798437">22</text>
     </g>
    </g>
    <g id="xtick_24">
     <g id="line2d_68">
      <g>
       <use style="stroke:#000000;stroke-width:0.8;" x="799.58125" xlink:href="#m7698e1f0ca" y="678.2"/>
      </g>
     </g>
     <g id="text_42">
      <text style="font-family:DejaVu Sans;font-size:10px;font-style:normal;font-weight:normal;text-anchor:middle;" transform="rotate(-0, 799.58125, 692.798437)" x="799.58125" y="692.798437">23</text>
     </g>
    </g>
    <g id="text_43">
     <text style="font-family:DejaVu Sans;font-size:10px;font-style:normal;font-weight:normal;text-anchor:middle;" transform="rotate(-0, 448.75, 706.476562)" x="448.75" y="706.476562">Hour (0 is Midnight)</text>
    </g>
   </g>
   <g id="matplotlib.axis_6">
    <g id="ytick_13">
     <g id="line2d_69">
      <g>
       <use style="stroke:#000000;stroke-width:0.8;" x="47.8" xlink:href="#mda1ce9fe50" y="656.230172"/>
      </g>
     </g>
     <g id="text_44">
      <text style="font-family:DejaVu Sans;font-size:10px;font-style:normal;font-weight:normal;text-anchor:end;" transform="rotate(-0, 40.8, 660.029391)" x="40.8" y="660.029391">2.6</text>
     </g>
    </g>
    <g id="ytick_14">
     <g id="line2d_70">
      <g>
       <use style="stroke:#000000;stroke-width:0.8;" x="47.8" xlink:href="#mda1ce9fe50" y="625.413703"/>
      </g>
     </g>
     <g id="text_45">
      <text style="font-family:DejaVu Sans;font-size:10px;font-style:normal;font-weight:normal;text-anchor:end;" transform="rotate(-0, 40.8, 629.212922)" x="40.8" y="629.212922">2.8</text>
     </g>
    </g>
    <g id="ytick_15">
     <g id="line2d_71">
      <g>
       <use style="stroke:#000000;stroke-width:0.8;" x="47.8" xlink:href="#mda1ce9fe50" y="594.597234"/>
      </g>
     </g>
     <g id="text_46">
      <text style="font-family:DejaVu Sans;font-size:10px;font-style:normal;font-weight:normal;text-anchor:end;" transform="rotate(-0, 40.8, 598.396453)" x="40.8" y="598.396453">3.0</text>
     </g>
    </g>
    <g id="ytick_16">
     <g id="line2d_72">
      <g>
       <use style="stroke:#000000;stroke-width:0.8;" x="47.8" xlink:href="#mda1ce9fe50" y="563.780765"/>
      </g>
     </g>
     <g id="text_47">
      <text style="font-family:DejaVu Sans;font-size:10px;font-style:normal;font-weight:normal;text-anchor:end;" transform="rotate(-0, 40.8, 567.579984)" x="40.8" y="567.579984">3.2</text>
     </g>
    </g>
    <g id="ytick_17">
     <g id="line2d_73">
      <g>
       <use style="stroke:#000000;stroke-width:0.8;" x="47.8" xlink:href="#mda1ce9fe50" y="532.964296"/>
      </g>
     </g>
     <g id="text_48">
      <text style="font-family:DejaVu Sans;font-size:10px;font-style:normal;font-weight:normal;text-anchor:end;" transform="rotate(-0, 40.8, 536.763515)" x="40.8" y="536.763515">3.4</text>
     </g>
    </g>
    <g id="ytick_18">
     <g id="line2d_74">
      <g>
       <use style="stroke:#000000;stroke-width:0.8;" x="47.8" xlink:href="#mda1ce9fe50" y="502.147827"/>
      </g>
     </g>
     <g id="text_49">
      <text style="font-family:DejaVu Sans;font-size:10px;font-style:normal;font-weight:normal;text-anchor:end;" transform="rotate(-0, 40.8, 505.947045)" x="40.8" y="505.947045">3.6</text>
     </g>
    </g>
    <g id="text_50">
     <text style="font-family:DejaVu Sans;font-size:10px;font-style:normal;font-weight:normal;text-anchor:middle;" transform="rotate(-90, 18.817187, 588.9)" x="18.817187" y="588.9">Log10 Hourly Pickup Count</text>
    </g>
   </g>
   <g id="line2d_75">
    <path clip-path="url(#p2c376c885f)" d="M 97.91875 571.510353 
L 97.91875 543.874186 
" style="fill:none;stroke:#3d3d3d;stroke-linecap:square;stroke-width:1.5;"/>
   </g>
   <g id="line2d_76">
    <path clip-path="url(#p2c376c885f)" d="M 97.91875 559.912114 
L 97.91875 549.259577 
" style="fill:none;stroke:#3d3d3d;stroke-linecap:square;stroke-width:4.5;"/>
   </g>
   <g id="line2d_77">
    <path clip-path="url(#p2c376c885f)" d="M 198.15625 569.273361 
L 198.15625 535.127062 
" style="fill:none;stroke:#3d3d3d;stroke-linecap:square;stroke-width:1.5;"/>
   </g>
   <g id="line2d_78">
    <path clip-path="url(#p2c376c885f)" d="M 198.15625 553.23419 
L 198.15625 542.09541 
" style="fill:none;stroke:#3d3d3d;stroke-linecap:square;stroke-width:4.5;"/>
   </g>
   <g id="line2d_79">
    <path clip-path="url(#p2c376c885f)" d="M 298.39375 572.081484 
L 298.39375 524.961279 
" style="fill:none;stroke:#3d3d3d;stroke-linecap:square;stroke-width:1.5;"/>
   </g>
   <g id="line2d_80">
    <path clip-path="url(#p2c376c885f)" d="M 298.39375 564.285462 
L 298.39375 543.429424 
" style="fill:none;stroke:#3d3d3d;stroke-linecap:square;stroke-width:4.5;"/>
   </g>
   <g id="line2d_81">
    <path clip-path="url(#p2c376c885f)" d="M 398.63125 574.663972 
L 398.63125 540.570477 
" style="fill:none;stroke:#3d3d3d;stroke-linecap:square;stroke-width:1.5;"/>
   </g>
   <g id="line2d_82">
    <path clip-path="url(#p2c376c885f)" d="M 398.63125 562.570612 
L 398.63125 545.791815 
" style="fill:none;stroke:#3d3d3d;stroke-linecap:square;stroke-width:4.5;"/>
   </g>
   <g id="line2d_83">
    <path clip-path="url(#p2c376c885f)" d="M 498.86875 576.01892 
L 498.86875 538.716047 
" style="fill:none;stroke:#3d3d3d;stroke-linecap:square;stroke-width:1.5;"/>
   </g>
   <g id="line2d_84">
    <path clip-path="url(#p2c376c885f)" d="M 498.86875 563.947607 
L 498.86875 545.060557 
" style="fill:none;stroke:#3d3d3d;stroke-linecap:square;stroke-width:4.5;"/>
   </g>
   <g id="line2d_85">
    <path clip-path="url(#p2c376c885f)" d="M 599.10625 587.07338 
L 599.10625 535.818503 
" style="fill:none;stroke:#3d3d3d;stroke-linecap:square;stroke-width:1.5;"/>
   </g>
   <g id="line2d_86">
    <path clip-path="url(#p2c376c885f)" d="M 599.10625 567.916008 
L 599.10625 549.460103 
" style="fill:none;stroke:#3d3d3d;stroke-linecap:square;stroke-width:4.5;"/>
   </g>
   <g id="line2d_87">
    <path clip-path="url(#p2c376c885f)" d="M 699.34375 610.795964 
L 699.34375 532.035342 
" style="fill:none;stroke:#3d3d3d;stroke-linecap:square;stroke-width:1.5;"/>
   </g>
   <g id="line2d_88">
    <path clip-path="url(#p2c376c885f)" d="M 699.34375 588.694663 
L 699.34375 565.238693 
" style="fill:none;stroke:#3d3d3d;stroke-linecap:square;stroke-width:4.5;"/>
   </g>
   <g id="line2d_89">
    <path clip-path="url(#p2c376c885f)" d="M 799.58125 640.846941 
L 799.58125 574.713669 
" style="fill:none;stroke:#3d3d3d;stroke-linecap:square;stroke-width:1.5;"/>
   </g>
   <g id="line2d_90">
    <path clip-path="url(#p2c376c885f)" d="M 799.58125 626.667154 
L 799.58125 600.590693 
" style="fill:none;stroke:#3d3d3d;stroke-linecap:square;stroke-width:4.5;"/>
   </g>
   <g id="patch_13">
    <path d="M 47.8 678.2 
L 47.8 499.6 
" style="fill:none;stroke:#000000;stroke-linecap:square;stroke-linejoin:miter;stroke-width:0.8;"/>
   </g>
   <g id="patch_14">
    <path d="M 849.7 678.2 
L 849.7 499.6 
" style="fill:none;stroke:#000000;stroke-linecap:square;stroke-linejoin:miter;stroke-width:0.8;"/>
   </g>
   <g id="patch_15">
    <path d="M 47.8 678.2 
L 849.7 678.2 
" style="fill:none;stroke:#000000;stroke-linecap:square;stroke-linejoin:miter;stroke-width:0.8;"/>
   </g>
   <g id="patch_16">
    <path d="M 47.8 499.6 
L 849.7 499.6 
" style="fill:none;stroke:#000000;stroke-linecap:square;stroke-linejoin:miter;stroke-width:0.8;"/>
   </g>
   <g id="PathCollection_17">
    <g clip-path="url(#p2c376c885f)">
     <use style="fill:#ffffff;stroke:#3d3d3d;" x="97.91875" xlink:href="#m6822fe6249" y="553.740495"/>
    </g>
   </g>
   <g id="PathCollection_18">
    <g clip-path="url(#p2c376c885f)">
     <use style="fill:#ffffff;stroke:#3d3d3d;" x="198.15625" xlink:href="#m6822fe6249" y="548.326772"/>
    </g>
   </g>
   <g id="PathCollection_19">
    <g clip-path="url(#p2c376c885f)">
     <use style="fill:#ffffff;stroke:#3d3d3d;" x="298.39375" xlink:href="#m6822fe6249" y="551.91796"/>
    </g>
   </g>
   <g id="PathCollection_20">
    <g clip-path="url(#p2c376c885f)">
     <use style="fill:#ffffff;stroke:#3d3d3d;" x="398.63125" xlink:href="#m6822fe6249" y="554.200023"/>
    </g>
   </g>
   <g id="PathCollection_21">
    <g clip-path="url(#p2c376c885f)">
     <use style="fill:#ffffff;stroke:#3d3d3d;" x="498.86875" xlink:href="#m6822fe6249" y="551.739465"/>
    </g>
   </g>
   <g id="PathCollection_22">
    <g clip-path="url(#p2c376c885f)">
     <use style="fill:#ffffff;stroke:#3d3d3d;" x="599.10625" xlink:href="#m6822fe6249" y="555.119389"/>
    </g>
   </g>
   <g id="PathCollection_23">
    <g clip-path="url(#p2c376c885f)">
     <use style="fill:#ffffff;stroke:#3d3d3d;" x="699.34375" xlink:href="#m6822fe6249" y="575.340956"/>
    </g>
   </g>
   <g id="PathCollection_24">
    <g clip-path="url(#p2c376c885f)">
     <use style="fill:#ffffff;stroke:#3d3d3d;" x="799.58125" xlink:href="#m6822fe6249" y="609.583771"/>
    </g>
   </g>
   <g id="text_51">
    <text style="font-family:DejaVu Sans;font-size:12px;font-style:normal;font-weight:normal;text-anchor:middle;" transform="rotate(-0, 448.75, 493.6)" x="448.75" y="493.6">Mon-Th Hourly Pickup Distributions for Afternoon to Night</text>
   </g>
  </g>
 </g>
 <defs>
  <clipPath id="pf63d0957c1">
   <rect height="178.6" width="801.9" x="47.8" y="26.8"/>
  </clipPath>
  <clipPath id="p6b56033448">
   <rect height="178.6" width="801.9" x="47.8" y="263.2"/>
  </clipPath>
  <clipPath id="p2c376c885f">
   <rect height="178.6" width="801.9" x="47.8" y="499.6"/>
  </clipPath>
 </defs>
</svg>
