<?xml version="1.0" encoding="utf-8" standalone="no"?>
<!DOCTYPE svg PUBLIC "-//W3C//DTD SVG 1.1//EN"
  "http://www.w3.org/Graphics/SVG/1.1/DTD/svg11.dtd">
<!-- Created with matplotlib (https://matplotlib.org/) -->
<svg height="720pt" version="1.1" viewBox="0 0 864 720" width="864pt" xmlns="http://www.w3.org/2000/svg" xmlns:xlink="http://www.w3.org/1999/xlink">
 <defs>
  <style type="text/css">
*{stroke-linecap:butt;stroke-linejoin:round;}
  </style>
 </defs>
 <g id="figure_1">
  <g id="patch_1">
   <path d="M 0 720 
L 864 720 
L 864 0 
L 0 0 
z
" style="fill:#ffffff;"/>
  </g>
  <g id="axes_1">
   <g id="patch_2">
    <path d="M 47.8 205.4 
L 849.7 205.4 
L 849.7 26.8 
L 47.8 26.8 
z
" style="fill:#ffffff;"/>
   </g>
   <g id="PolyCollection_1">
    <defs>
     <path d="M 99.498735 -623.971383 
L 96.338765 -623.971383 
L 94.09719 -627.187722 
L 90.489651 -630.40406 
L 86.180081 -633.620399 
L 82.440408 -636.836738 
L 79.915854 -640.053077 
L 77.715706 -643.269415 
L 74.216133 -646.485754 
L 68.812156 -649.702093 
L 62.714876 -652.918431 
L 58.309955 -656.13477 
L 57.82375 -659.351109 
L 61.931854 -662.567447 
L 69.195218 -665.783786 
L 77.128612 -669.000125 
L 83.953771 -672.216463 
L 89.192508 -675.432802 
L 92.988749 -678.649141 
L 95.505104 -681.865479 
L 96.9309 -685.081818 
L 98.9066 -685.081818 
L 98.9066 -685.081818 
L 100.332396 -681.865479 
L 102.848751 -678.649141 
L 106.644992 -675.432802 
L 111.883729 -672.216463 
L 118.708888 -669.000125 
L 126.642282 -665.783786 
L 133.905646 -662.567447 
L 138.01375 -659.351109 
L 137.527545 -656.13477 
L 133.122624 -652.918431 
L 127.025344 -649.702093 
L 121.621367 -646.485754 
L 118.121794 -643.269415 
L 115.921646 -640.053077 
L 113.397092 -636.836738 
L 109.657419 -633.620399 
L 105.347849 -630.40406 
L 101.74031 -627.187722 
L 99.498735 -623.971383 
z
" id="mae2c78ee78" style="stroke:#3d3d3d;stroke-width:1.5;"/>
    </defs>
    <g clip-path="url(#pe23b0b3ab8)">
     <use style="fill:#3274a1;stroke:#3d3d3d;stroke-width:1.5;" x="0" xlink:href="#mae2c78ee78" y="720"/>
    </g>
   </g>
   <g id="PolyCollection_2">
    <defs>
     <path d="M 199.33433 -598.027702 
L 196.97817 -598.027702 
L 195.277757 -601.451706 
L 192.308906 -604.875711 
L 188.115843 -608.299715 
L 183.245653 -611.72372 
L 178.440674 -615.147724 
L 174.191544 -618.571729 
L 170.594935 -621.995733 
L 167.507904 -625.419738 
L 164.662544 -628.843742 
L 161.798068 -632.267747 
L 159.173251 -635.691751 
L 158.06125 -639.115756 
L 160.171385 -642.53976 
L 166.120079 -645.963765 
L 174.607189 -649.387769 
L 183.247166 -652.811773 
L 190.092697 -656.235778 
L 194.460498 -659.659782 
L 196.733596 -663.083787 
L 199.578904 -663.083787 
L 199.578904 -663.083787 
L 201.852002 -659.659782 
L 206.219803 -656.235778 
L 213.065334 -652.811773 
L 221.705311 -649.387769 
L 230.192421 -645.963765 
L 236.141115 -642.53976 
L 238.25125 -639.115756 
L 237.139249 -635.691751 
L 234.514432 -632.267747 
L 231.649956 -628.843742 
L 228.804596 -625.419738 
L 225.717565 -621.995733 
L 222.120956 -618.571729 
L 217.871826 -615.147724 
L 213.066847 -611.72372 
L 208.196657 -608.299715 
L 204.003594 -604.875711 
L 201.034743 -601.451706 
L 199.33433 -598.027702 
z
" id="m5250ad5692" style="stroke:#3d3d3d;stroke-width:1.5;"/>
    </defs>
    <g clip-path="url(#pe23b0b3ab8)">
     <use style="fill:#e1812c;stroke:#3d3d3d;stroke-width:1.5;" x="0" xlink:href="#m5250ad5692" y="720"/>
    </g>
   </g>
   <g id="PolyCollection_3">
    <defs>
     <path d="M 299.578223 -578.067108 
L 297.209277 -578.067108 
L 295.622095 -580.930053 
L 292.867136 -583.792998 
L 288.788395 -586.655944 
L 283.475559 -589.518889 
L 277.298833 -592.381834 
L 271.069621 -595.244779 
L 266.030397 -598.107724 
L 263.17827 -600.970669 
L 262.327418 -603.833614 
L 262.088589 -606.696559 
L 261.075169 -609.559504 
L 259.2634 -612.42245 
L 258.29875 -615.285395 
L 260.391002 -618.14834 
L 266.506112 -621.011285 
L 275.378962 -623.87423 
L 284.353945 -626.737175 
L 291.230193 -629.60012 
L 295.356083 -632.463065 
L 301.431417 -632.463065 
L 301.431417 -632.463065 
L 305.557307 -629.60012 
L 312.433555 -626.737175 
L 321.408538 -623.87423 
L 330.281388 -621.011285 
L 336.396498 -618.14834 
L 338.48875 -615.285395 
L 337.5241 -612.42245 
L 335.712331 -609.559504 
L 334.698911 -606.696559 
L 334.460082 -603.833614 
L 333.60923 -600.970669 
L 330.757103 -598.107724 
L 325.717879 -595.244779 
L 319.488667 -592.381834 
L 313.311941 -589.518889 
L 307.999105 -586.655944 
L 303.920364 -583.792998 
L 301.165405 -580.930053 
L 299.578223 -578.067108 
z
" id="mb6064b2b30" style="stroke:#3d3d3d;stroke-width:1.5;"/>
    </defs>
    <g clip-path="url(#pe23b0b3ab8)">
     <use style="fill:#3a923a;stroke:#3d3d3d;stroke-width:1.5;" x="0" xlink:href="#mb6064b2b30" y="720"/>
    </g>
   </g>
   <g id="PolyCollection_4">
    <defs>
     <path d="M 399.811686 -563.410584 
L 397.450814 -563.410584 
L 395.65144 -565.93882 
L 392.509965 -568.467057 
L 388.252394 -570.995293 
L 383.739635 -573.52353 
L 379.747812 -576.051766 
L 376.067914 -578.580003 
L 371.657407 -581.108239 
L 366.09516 -583.636476 
L 360.843544 -586.164713 
L 358.53625 -588.692949 
L 360.635868 -591.221186 
L 366.076362 -593.749422 
L 372.510613 -596.277659 
L 378.456355 -598.805895 
L 383.796772 -601.334132 
L 388.703286 -603.862369 
L 392.870688 -606.390605 
L 395.83312 -608.918842 
L 397.517536 -611.447078 
L 399.744964 -611.447078 
L 399.744964 -611.447078 
L 401.42938 -608.918842 
L 404.391812 -606.390605 
L 408.559214 -603.862369 
L 413.465728 -601.334132 
L 418.806145 -598.805895 
L 424.751887 -596.277659 
L 431.186138 -593.749422 
L 436.626632 -591.221186 
L 438.72625 -588.692949 
L 436.418956 -586.164713 
L 431.16734 -583.636476 
L 425.605093 -581.108239 
L 421.194586 -578.580003 
L 417.514688 -576.051766 
L 413.522865 -573.52353 
L 409.010106 -570.995293 
L 404.752535 -568.467057 
L 401.61106 -565.93882 
L 399.811686 -563.410584 
z
" id="mfd341d8df2" style="stroke:#3d3d3d;stroke-width:1.5;"/>
    </defs>
    <g clip-path="url(#pe23b0b3ab8)">
     <use style="fill:#c03d3e;stroke:#3d3d3d;stroke-width:1.5;" x="0" xlink:href="#mfd341d8df2" y="720"/>
    </g>
   </g>
   <g id="PolyCollection_5">
    <defs>
     <path d="M 499.696481 -522.718182 
L 498.041019 -522.718182 
L 496.828077 -526.377347 
L 495.017249 -530.036512 
L 493.28056 -533.695677 
L 492.520641 -537.354842 
L 492.778401 -541.014007 
L 492.655153 -544.673173 
L 490.113416 -548.332338 
L 483.99669 -551.991503 
L 475.069276 -555.650668 
L 465.922808 -559.309833 
L 459.763578 -562.968998 
L 458.77375 -566.628163 
L 463.065279 -570.287328 
L 470.836845 -573.946493 
L 479.545643 -577.605659 
L 487.174934 -581.264824 
L 492.747131 -584.923989 
L 496.166084 -588.583154 
L 497.890538 -592.242319 
L 499.846962 -592.242319 
L 499.846962 -592.242319 
L 501.571416 -588.583154 
L 504.990369 -584.923989 
L 510.562566 -581.264824 
L 518.191857 -577.605659 
L 526.900655 -573.946493 
L 534.672221 -570.287328 
L 538.96375 -566.628163 
L 537.973922 -562.968998 
L 531.814692 -559.309833 
L 522.668224 -555.650668 
L 513.74081 -551.991503 
L 507.624084 -548.332338 
L 505.082347 -544.673173 
L 504.959099 -541.014007 
L 505.216859 -537.354842 
L 504.45694 -533.695677 
L 502.720251 -530.036512 
L 500.909423 -526.377347 
L 499.696481 -522.718182 
z
" id="m513fc759f6" style="stroke:#3d3d3d;stroke-width:1.5;"/>
    </defs>
    <g clip-path="url(#pe23b0b3ab8)">
     <use style="fill:#9372b2;stroke:#3d3d3d;stroke-width:1.5;" x="0" xlink:href="#m513fc759f6" y="720"/>
    </g>
   </g>
   <g id="PolyCollection_6">
    <defs>
     <path d="M 600.0544 -526.369284 
L 598.1581 -526.369284 
L 596.742431 -529.924788 
L 594.406061 -533.480293 
L 591.473865 -537.035797 
L 588.55079 -540.591302 
L 585.801602 -544.146807 
L 582.481848 -547.702311 
L 577.43937 -551.257816 
L 570.446373 -554.813321 
L 563.267391 -558.368825 
L 559.01125 -561.92433 
L 559.798266 -565.479835 
L 565.040831 -569.035339 
L 572.222193 -572.590844 
L 579.111847 -576.146348 
L 584.948339 -579.701853 
L 589.841866 -583.257358 
L 593.786915 -586.812862 
L 596.549328 -590.368367 
L 598.109621 -593.923872 
L 600.102879 -593.923872 
L 600.102879 -593.923872 
L 601.663172 -590.368367 
L 604.425585 -586.812862 
L 608.370634 -583.257358 
L 613.264161 -579.701853 
L 619.100653 -576.146348 
L 625.990307 -572.590844 
L 633.171669 -569.035339 
L 638.414234 -565.479835 
L 639.20125 -561.92433 
L 634.945109 -558.368825 
L 627.766127 -554.813321 
L 620.77313 -551.257816 
L 615.730652 -547.702311 
L 612.410898 -544.146807 
L 609.66171 -540.591302 
L 606.738635 -537.035797 
L 603.806439 -533.480293 
L 601.470069 -529.924788 
L 600.0544 -526.369284 
z
" id="m8f4c285a15" style="stroke:#3d3d3d;stroke-width:1.5;"/>
    </defs>
    <g clip-path="url(#pe23b0b3ab8)">
     <use style="fill:#845b53;stroke:#3d3d3d;stroke-width:1.5;" x="0" xlink:href="#m8f4c285a15" y="720"/>
    </g>
   </g>
   <g id="PolyCollection_7">
    <defs>
     <path d="M 700.890864 -525.402511 
L 697.796636 -525.402511 
L 695.605536 -529.650517 
L 691.819995 -533.898524 
L 686.614133 -538.146531 
L 680.974028 -542.394537 
L 676.21315 -546.642544 
L 673.048675 -550.890551 
L 671.107923 -555.138557 
L 669.328217 -559.386564 
L 666.81692 -563.634571 
L 663.517455 -567.882577 
L 660.422263 -572.130584 
L 659.24875 -576.378591 
L 661.526822 -580.626597 
L 667.520674 -584.874604 
L 675.867645 -589.122611 
L 684.343132 -593.370617 
L 691.116662 -597.618624 
L 695.500867 -601.866631 
L 697.825948 -606.114638 
L 700.861552 -606.114638 
L 700.861552 -606.114638 
L 703.186633 -601.866631 
L 707.570838 -597.618624 
L 714.344368 -593.370617 
L 722.819855 -589.122611 
L 731.166826 -584.874604 
L 737.160678 -580.626597 
L 739.43875 -576.378591 
L 738.265237 -572.130584 
L 735.170045 -567.882577 
L 731.87058 -563.634571 
L 729.359283 -559.386564 
L 727.579577 -555.138557 
L 725.638825 -550.890551 
L 722.47435 -546.642544 
L 717.713472 -542.394537 
L 712.073367 -538.146531 
L 706.867505 -533.898524 
L 703.081964 -529.650517 
L 700.890864 -525.402511 
z
" id="m1ba88735ad" style="stroke:#3d3d3d;stroke-width:1.5;"/>
    </defs>
    <g clip-path="url(#pe23b0b3ab8)">
     <use style="fill:#d684bd;stroke:#3d3d3d;stroke-width:1.5;" x="0" xlink:href="#m1ba88735ad" y="720"/>
    </g>
   </g>
   <g id="PolyCollection_8">
    <defs>
     <path d="M 800.705652 -556.942005 
L 798.456848 -556.942005 
L 796.813311 -559.82916 
L 794.040055 -562.716316 
L 790.500695 -565.603471 
L 787.225545 -568.490627 
L 785.122589 -571.377783 
L 783.829265 -574.264938 
L 781.572142 -577.152094 
L 776.693012 -580.03925 
L 769.57383 -582.926405 
L 762.854067 -585.813561 
L 759.48625 -588.700717 
L 760.612337 -591.587872 
L 765.345678 -594.475028 
L 772.100654 -597.362184 
L 779.56191 -600.249339 
L 786.642067 -603.136495 
L 792.363297 -606.023651 
L 796.187129 -608.910806 
L 798.258432 -611.797962 
L 800.904068 -611.797962 
L 800.904068 -611.797962 
L 802.975371 -608.910806 
L 806.799203 -606.023651 
L 812.520433 -603.136495 
L 819.60059 -600.249339 
L 827.061846 -597.362184 
L 833.816822 -594.475028 
L 838.550163 -591.587872 
L 839.67625 -588.700717 
L 836.308433 -585.813561 
L 829.58867 -582.926405 
L 822.469488 -580.03925 
L 817.590358 -577.152094 
L 815.333235 -574.264938 
L 814.039911 -571.377783 
L 811.936955 -568.490627 
L 808.661805 -565.603471 
L 805.122445 -562.716316 
L 802.349189 -559.82916 
L 800.705652 -556.942005 
z
" id="mbd309b7eda" style="stroke:#3d3d3d;stroke-width:1.5;"/>
    </defs>
    <g clip-path="url(#pe23b0b3ab8)">
     <use style="fill:#7f7f7f;stroke:#3d3d3d;stroke-width:1.5;" x="0" xlink:href="#mbd309b7eda" y="720"/>
    </g>
   </g>
   <g id="matplotlib.axis_1">
    <g id="xtick_1">
     <g id="line2d_1">
      <defs>
       <path d="M 0 0 
L 0 3.5 
" id="mc8fc852d76" style="stroke:#000000;stroke-width:0.8;"/>
      </defs>
      <g>
       <use style="stroke:#000000;stroke-width:0.8;" x="97.91875" xlink:href="#mc8fc852d76" y="205.4"/>
      </g>
     </g>
     <g id="text_1">
      <text style="font-family:DejaVu Sans;font-size:10px;font-style:normal;font-weight:normal;text-anchor:middle;" transform="rotate(-0, 97.91875, 219.998437)" x="97.91875" y="219.998437">0</text>
     </g>
    </g>
    <g id="xtick_2">
     <g id="line2d_2">
      <g>
       <use style="stroke:#000000;stroke-width:0.8;" x="198.15625" xlink:href="#mc8fc852d76" y="205.4"/>
      </g>
     </g>
     <g id="text_2">
      <text style="font-family:DejaVu Sans;font-size:10px;font-style:normal;font-weight:normal;text-anchor:middle;" transform="rotate(-0, 198.15625, 219.998437)" x="198.15625" y="219.998437">1</text>
     </g>
    </g>
    <g id="xtick_3">
     <g id="line2d_3">
      <g>
       <use style="stroke:#000000;stroke-width:0.8;" x="298.39375" xlink:href="#mc8fc852d76" y="205.4"/>
      </g>
     </g>
     <g id="text_3">
      <text style="font-family:DejaVu Sans;font-size:10px;font-style:normal;font-weight:normal;text-anchor:middle;" transform="rotate(-0, 298.39375, 219.998437)" x="298.39375" y="219.998437">2</text>
     </g>
    </g>
    <g id="xtick_4">
     <g id="line2d_4">
      <g>
       <use style="stroke:#000000;stroke-width:0.8;" x="398.63125" xlink:href="#mc8fc852d76" y="205.4"/>
      </g>
     </g>
     <g id="text_4">
      <text style="font-family:DejaVu Sans;font-size:10px;font-style:normal;font-weight:normal;text-anchor:middle;" transform="rotate(-0, 398.63125, 219.998437)" x="398.63125" y="219.998437">3</text>
     </g>
    </g>
    <g id="xtick_5">
     <g id="line2d_5">
      <g>
       <use style="stroke:#000000;stroke-width:0.8;" x="498.86875" xlink:href="#mc8fc852d76" y="205.4"/>
      </g>
     </g>
     <g id="text_5">
      <text style="font-family:DejaVu Sans;font-size:10px;font-style:normal;font-weight:normal;text-anchor:middle;" transform="rotate(-0, 498.86875, 219.998437)" x="498.86875" y="219.998437">4</text>
     </g>
    </g>
    <g id="xtick_6">
     <g id="line2d_6">
      <g>
       <use style="stroke:#000000;stroke-width:0.8;" x="599.10625" xlink:href="#mc8fc852d76" y="205.4"/>
      </g>
     </g>
     <g id="text_6">
      <text style="font-family:DejaVu Sans;font-size:10px;font-style:normal;font-weight:normal;text-anchor:middle;" transform="rotate(-0, 599.10625, 219.998437)" x="599.10625" y="219.998437">5</text>
     </g>
    </g>
    <g id="xtick_7">
     <g id="line2d_7">
      <g>
       <use style="stroke:#000000;stroke-width:0.8;" x="699.34375" xlink:href="#mc8fc852d76" y="205.4"/>
      </g>
     </g>
     <g id="text_7">
      <text style="font-family:DejaVu Sans;font-size:10px;font-style:normal;font-weight:normal;text-anchor:middle;" transform="rotate(-0, 699.34375, 219.998437)" x="699.34375" y="219.998437">6</text>
     </g>
    </g>
    <g id="xtick_8">
     <g id="line2d_8">
      <g>
       <use style="stroke:#000000;stroke-width:0.8;" x="799.58125" xlink:href="#mc8fc852d76" y="205.4"/>
      </g>
     </g>
     <g id="text_8">
      <text style="font-family:DejaVu Sans;font-size:10px;font-style:normal;font-weight:normal;text-anchor:middle;" transform="rotate(-0, 799.58125, 219.998437)" x="799.58125" y="219.998437">7</text>
     </g>
    </g>
    <g id="text_9">
     <text style="font-family:DejaVu Sans;font-size:10px;font-style:normal;font-weight:normal;text-anchor:middle;" transform="rotate(-0, 448.75, 233.676562)" x="448.75" y="233.676562">Hour (0 is Midnight)</text>
    </g>
   </g>
   <g id="matplotlib.axis_2">
    <g id="ytick_1">
     <g id="line2d_9">
      <defs>
       <path d="M 0 0 
L -3.5 0 
" id="mea42dd2c3c" style="stroke:#000000;stroke-width:0.8;"/>
      </defs>
      <g>
       <use style="stroke:#000000;stroke-width:0.8;" x="47.8" xlink:href="#mea42dd2c3c" y="175.742506"/>
      </g>
     </g>
     <g id="text_10">
      <text style="font-family:DejaVu Sans;font-size:10px;font-style:normal;font-weight:normal;text-anchor:end;" transform="rotate(-0, 40.8, 179.541725)" x="40.8" y="179.541725">2.4</text>
     </g>
    </g>
    <g id="ytick_2">
     <g id="line2d_10">
      <g>
       <use style="stroke:#000000;stroke-width:0.8;" x="47.8" xlink:href="#mea42dd2c3c" y="143.433339"/>
      </g>
     </g>
     <g id="text_11">
      <text style="font-family:DejaVu Sans;font-size:10px;font-style:normal;font-weight:normal;text-anchor:end;" transform="rotate(-0, 40.8, 147.232558)" x="40.8" y="147.232558">2.6</text>
     </g>
    </g>
    <g id="ytick_3">
     <g id="line2d_11">
      <g>
       <use style="stroke:#000000;stroke-width:0.8;" x="47.8" xlink:href="#mea42dd2c3c" y="111.124173"/>
      </g>
     </g>
     <g id="text_12">
      <text style="font-family:DejaVu Sans;font-size:10px;font-style:normal;font-weight:normal;text-anchor:end;" transform="rotate(-0, 40.8, 114.923392)" x="40.8" y="114.923392">2.8</text>
     </g>
    </g>
    <g id="ytick_4">
     <g id="line2d_12">
      <g>
       <use style="stroke:#000000;stroke-width:0.8;" x="47.8" xlink:href="#mea42dd2c3c" y="78.815006"/>
      </g>
     </g>
     <g id="text_13">
      <text style="font-family:DejaVu Sans;font-size:10px;font-style:normal;font-weight:normal;text-anchor:end;" transform="rotate(-0, 40.8, 82.614225)" x="40.8" y="82.614225">3.0</text>
     </g>
    </g>
    <g id="ytick_5">
     <g id="line2d_13">
      <g>
       <use style="stroke:#000000;stroke-width:0.8;" x="47.8" xlink:href="#mea42dd2c3c" y="46.50584"/>
      </g>
     </g>
     <g id="text_14">
      <text style="font-family:DejaVu Sans;font-size:10px;font-style:normal;font-weight:normal;text-anchor:end;" transform="rotate(-0, 40.8, 50.305059)" x="40.8" y="50.305059">3.2</text>
     </g>
    </g>
    <g id="text_15">
     <text style="font-family:DejaVu Sans;font-size:10px;font-style:normal;font-weight:normal;text-anchor:middle;" transform="rotate(-90, 18.817188, 116.1)" x="18.817188" y="116.1">Log10 Hourly Pickup Count</text>
    </g>
   </g>
   <g id="line2d_14">
    <path clip-path="url(#pe23b0b3ab8)" d="M 97.91875 82.561523 
L 97.91875 48.385276 
" style="fill:none;stroke:#3d3d3d;stroke-linecap:square;stroke-width:1.5;"/>
   </g>
   <g id="line2d_15">
    <path clip-path="url(#pe23b0b3ab8)" d="M 97.91875 69.484056 
L 97.91875 58.952538 
" style="fill:none;stroke:#3d3d3d;stroke-linecap:square;stroke-width:4.5;"/>
   </g>
   <g id="line2d_16">
    <path clip-path="url(#pe23b0b3ab8)" d="M 198.15625 107.332009 
L 198.15625 71.556502 
" style="fill:none;stroke:#3d3d3d;stroke-linecap:square;stroke-width:1.5;"/>
   </g>
   <g id="line2d_17">
    <path clip-path="url(#pe23b0b3ab8)" d="M 198.15625 94.713178 
L 198.15625 79.149113 
" style="fill:none;stroke:#3d3d3d;stroke-linecap:square;stroke-width:4.5;"/>
   </g>
   <g id="line2d_18">
    <path clip-path="url(#pe23b0b3ab8)" d="M 298.39375 129.149486 
L 298.39375 100.320341 
" style="fill:none;stroke:#3d3d3d;stroke-linecap:square;stroke-width:1.5;"/>
   </g>
   <g id="line2d_19">
    <path clip-path="url(#pe23b0b3ab8)" d="M 298.39375 119.934133 
L 298.39375 102.922514 
" style="fill:none;stroke:#3d3d3d;stroke-linecap:square;stroke-width:4.5;"/>
   </g>
   <g id="line2d_20">
    <path clip-path="url(#pe23b0b3ab8)" d="M 398.63125 146.147508 
L 398.63125 118.994831 
" style="fill:none;stroke:#3d3d3d;stroke-linecap:square;stroke-width:1.5;"/>
   </g>
   <g id="line2d_21">
    <path clip-path="url(#pe23b0b3ab8)" d="M 398.63125 136.561496 
L 398.63125 128.689987 
" style="fill:none;stroke:#3d3d3d;stroke-linecap:square;stroke-width:4.5;"/>
   </g>
   <g id="line2d_22">
    <path clip-path="url(#pe23b0b3ab8)" d="M 498.86875 163.989005 
L 498.86875 141.883403 
" style="fill:none;stroke:#3d3d3d;stroke-linecap:square;stroke-width:1.5;"/>
   </g>
   <g id="line2d_23">
    <path clip-path="url(#pe23b0b3ab8)" d="M 498.86875 159.584626 
L 498.86875 150.350605 
" style="fill:none;stroke:#3d3d3d;stroke-linecap:square;stroke-width:4.5;"/>
   </g>
   <g id="line2d_24">
    <path clip-path="url(#pe23b0b3ab8)" d="M 599.10625 170.675821 
L 599.10625 147.255296 
" style="fill:none;stroke:#3d3d3d;stroke-linecap:square;stroke-width:1.5;"/>
   </g>
   <g id="line2d_25">
    <path clip-path="url(#pe23b0b3ab8)" d="M 599.10625 161.731179 
L 599.10625 153.127899 
" style="fill:none;stroke:#3d3d3d;stroke-linecap:square;stroke-width:4.5;"/>
   </g>
   <g id="line2d_26">
    <path clip-path="url(#pe23b0b3ab8)" d="M 699.34375 175.795215 
L 699.34375 132.687637 
" style="fill:none;stroke:#3d3d3d;stroke-linecap:square;stroke-width:1.5;"/>
   </g>
   <g id="line2d_27">
    <path clip-path="url(#pe23b0b3ab8)" d="M 699.34375 163.590968 
L 699.34375 140.949328 
" style="fill:none;stroke:#3d3d3d;stroke-linecap:square;stroke-width:4.5;"/>
   </g>
   <g id="line2d_28">
    <path clip-path="url(#pe23b0b3ab8)" d="M 799.58125 147.069445 
L 799.58125 120.376689 
" style="fill:none;stroke:#3d3d3d;stroke-linecap:square;stroke-width:1.5;"/>
   </g>
   <g id="line2d_29">
    <path clip-path="url(#pe23b0b3ab8)" d="M 799.58125 135.787259 
L 799.58125 127.356665 
" style="fill:none;stroke:#3d3d3d;stroke-linecap:square;stroke-width:4.5;"/>
   </g>
   <g id="patch_3">
    <path d="M 47.8 205.4 
L 47.8 26.8 
" style="fill:none;stroke:#000000;stroke-linecap:square;stroke-linejoin:miter;stroke-width:0.8;"/>
   </g>
   <g id="patch_4">
    <path d="M 849.7 205.4 
L 849.7 26.8 
" style="fill:none;stroke:#000000;stroke-linecap:square;stroke-linejoin:miter;stroke-width:0.8;"/>
   </g>
   <g id="patch_5">
    <path d="M 47.8 205.4 
L 849.7 205.4 
" style="fill:none;stroke:#000000;stroke-linecap:square;stroke-linejoin:miter;stroke-width:0.8;"/>
   </g>
   <g id="patch_6">
    <path d="M 47.8 26.8 
L 849.7 26.8 
" style="fill:none;stroke:#000000;stroke-linecap:square;stroke-linejoin:miter;stroke-width:0.8;"/>
   </g>
   <g id="PathCollection_1">
    <defs>
     <path d="M 0 1.5 
C 0.397805 1.5 0.77937 1.341951 1.06066 1.06066 
C 1.341951 0.77937 1.5 0.397805 1.5 0 
C 1.5 -0.397805 1.341951 -0.77937 1.06066 -1.06066 
C 0.77937 -1.341951 0.397805 -1.5 0 -1.5 
C -0.397805 -1.5 -0.77937 -1.341951 -1.06066 -1.06066 
C -1.341951 -0.77937 -1.5 -0.397805 -1.5 0 
C -1.5 0.397805 -1.341951 0.77937 -1.06066 1.06066 
C -0.77937 1.341951 -0.397805 1.5 0 1.5 
z
" id="m77652671eb" style="stroke:#3d3d3d;"/>
    </defs>
    <g clip-path="url(#pe23b0b3ab8)">
     <use style="fill:#ffffff;stroke:#3d3d3d;" x="97.91875" xlink:href="#m77652671eb" y="62.964104"/>
    </g>
   </g>
   <g id="PathCollection_2">
    <g clip-path="url(#pe23b0b3ab8)">
     <use style="fill:#ffffff;stroke:#3d3d3d;" x="198.15625" xlink:href="#m77652671eb" y="85.84777"/>
    </g>
   </g>
   <g id="PathCollection_3">
    <g clip-path="url(#pe23b0b3ab8)">
     <use style="fill:#ffffff;stroke:#3d3d3d;" x="298.39375" xlink:href="#m77652671eb" y="111.079894"/>
    </g>
   </g>
   <g id="PathCollection_4">
    <g clip-path="url(#pe23b0b3ab8)">
     <use style="fill:#ffffff;stroke:#3d3d3d;" x="398.63125" xlink:href="#m77652671eb" y="131.567451"/>
    </g>
   </g>
   <g id="PathCollection_5">
    <g clip-path="url(#pe23b0b3ab8)">
     <use style="fill:#ffffff;stroke:#3d3d3d;" x="498.86875" xlink:href="#m77652671eb" y="155.43935"/>
    </g>
   </g>
   <g id="PathCollection_6">
    <g clip-path="url(#pe23b0b3ab8)">
     <use style="fill:#ffffff;stroke:#3d3d3d;" x="599.10625" xlink:href="#m77652671eb" y="157.684493"/>
    </g>
   </g>
   <g id="PathCollection_7">
    <g clip-path="url(#pe23b0b3ab8)">
     <use style="fill:#ffffff;stroke:#3d3d3d;" x="699.34375" xlink:href="#m77652671eb" y="149.6765"/>
    </g>
   </g>
   <g id="PathCollection_8">
    <g clip-path="url(#pe23b0b3ab8)">
     <use style="fill:#ffffff;stroke:#3d3d3d;" x="799.58125" xlink:href="#m77652671eb" y="132.085415"/>
    </g>
   </g>
   <g id="text_16">
    <text style="font-family:DejaVu Sans;font-size:12px;font-style:normal;font-weight:normal;text-anchor:middle;" transform="rotate(-0, 448.75, 20.8)" x="448.75" y="20.8">Weekend Hourly Pickup Distributions for Mornings</text>
   </g>
  </g>
  <g id="axes_2">
   <g id="patch_7">
    <path d="M 47.8 441.8 
L 849.7 441.8 
L 849.7 263.2 
L 47.8 263.2 
z
" style="fill:#ffffff;"/>
   </g>
   <g id="PolyCollection_9">
    <defs>
     <path d="M 99.430578 -286.318182 
L 96.406922 -286.318182 
L 94.147665 -290.144673 
L 90.062317 -293.971164 
L 84.03679 -297.797655 
L 76.701452 -301.624147 
L 69.25838 -305.450638 
L 63.039662 -309.277129 
L 59.099157 -313.10362 
L 57.82375 -316.930111 
L 58.677788 -320.756602 
L 60.524243 -324.583094 
L 62.493581 -328.409585 
L 64.643553 -332.236076 
L 67.780908 -336.062567 
L 72.588389 -339.889058 
L 78.828447 -343.715549 
L 85.343387 -347.542041 
L 90.810291 -351.368532 
L 94.518296 -355.195023 
L 96.557434 -359.021514 
L 99.280066 -359.021514 
L 99.280066 -359.021514 
L 101.319204 -355.195023 
L 105.027209 -351.368532 
L 110.494113 -347.542041 
L 117.009053 -343.715549 
L 123.249111 -339.889058 
L 128.056592 -336.062567 
L 131.193947 -332.236076 
L 133.343919 -328.409585 
L 135.313257 -324.583094 
L 137.159712 -320.756602 
L 138.01375 -316.930111 
L 136.738343 -313.10362 
L 132.797838 -309.277129 
L 126.57912 -305.450638 
L 119.136048 -301.624147 
L 111.80071 -297.797655 
L 105.775183 -293.971164 
L 101.689835 -290.144673 
L 99.430578 -286.318182 
z
" id="m354e6899be" style="stroke:#3d3d3d;stroke-width:1.5;"/>
    </defs>
    <g clip-path="url(#p024aeff296)">
     <use style="fill:#3274a1;stroke:#3d3d3d;stroke-width:1.5;" x="0" xlink:href="#m354e6899be" y="720"/>
    </g>
   </g>
   <g id="PolyCollection_10">
    <defs>
     <path d="M 199.526974 -324.552697 
L 196.785526 -324.552697 
L 194.718128 -326.930018 
L 190.999716 -329.307339 
L 185.608765 -331.68466 
L 179.248272 -334.061981 
L 173.040715 -336.439302 
L 167.915889 -338.816623 
L 164.248012 -341.193944 
L 161.857992 -343.571266 
L 160.186962 -345.948587 
L 158.783324 -348.325908 
L 158.06125 -350.703229 
L 159.363897 -353.08055 
L 163.755262 -355.457871 
L 170.803184 -357.835192 
L 178.817395 -360.212513 
L 186.055887 -362.589834 
L 191.523517 -364.967155 
L 195.025841 -367.344476 
L 196.90927 -369.721797 
L 199.40323 -369.721797 
L 199.40323 -369.721797 
L 201.286659 -367.344476 
L 204.788983 -364.967155 
L 210.256613 -362.589834 
L 217.495105 -360.212513 
L 225.509316 -357.835192 
L 232.557238 -355.457871 
L 236.948603 -353.08055 
L 238.25125 -350.703229 
L 237.529176 -348.325908 
L 236.125538 -345.948587 
L 234.454508 -343.571266 
L 232.064488 -341.193944 
L 228.396611 -338.816623 
L 223.271785 -336.439302 
L 217.064228 -334.061981 
L 210.703735 -331.68466 
L 205.312784 -329.307339 
L 201.594372 -326.930018 
L 199.526974 -324.552697 
z
" id="m4689de881f" style="stroke:#3d3d3d;stroke-width:1.5;"/>
    </defs>
    <g clip-path="url(#p024aeff296)">
     <use style="fill:#e1812c;stroke:#3d3d3d;stroke-width:1.5;" x="0" xlink:href="#m4689de881f" y="720"/>
    </g>
   </g>
   <g id="PolyCollection_11">
    <defs>
     <path d="M 299.96992 -342.983881 
L 296.81758 -342.983881 
L 294.310529 -345.406024 
L 289.641417 -347.828167 
L 282.730091 -350.25031 
L 274.704561 -352.672453 
L 267.590479 -355.094596 
L 263.038457 -357.51674 
L 261.114589 -359.938883 
L 260.375889 -362.361026 
L 259.372888 -364.783169 
L 258.29875 -367.205312 
L 258.985463 -369.627455 
L 262.940784 -372.049598 
L 269.619392 -374.471741 
L 277.021649 -376.893884 
L 283.570684 -379.316027 
L 288.829194 -381.73817 
L 292.843936 -384.160313 
L 295.620028 -386.582456 
L 297.238988 -389.004599 
L 299.548512 -389.004599 
L 299.548512 -389.004599 
L 301.167472 -386.582456 
L 303.943564 -384.160313 
L 307.958306 -381.73817 
L 313.216816 -379.316027 
L 319.765851 -376.893884 
L 327.168108 -374.471741 
L 333.846716 -372.049598 
L 337.802037 -369.627455 
L 338.48875 -367.205312 
L 337.414612 -364.783169 
L 336.411611 -362.361026 
L 335.672911 -359.938883 
L 333.749043 -357.51674 
L 329.197021 -355.094596 
L 322.082939 -352.672453 
L 314.057409 -350.25031 
L 307.146083 -347.828167 
L 302.476971 -345.406024 
L 299.96992 -342.983881 
z
" id="m664af0b0d2" style="stroke:#3d3d3d;stroke-width:1.5;"/>
    </defs>
    <g clip-path="url(#p024aeff296)">
     <use style="fill:#3a923a;stroke:#3d3d3d;stroke-width:1.5;" x="0" xlink:href="#m664af0b0d2" y="720"/>
    </g>
   </g>
   <g id="PolyCollection_12">
    <defs>
     <path d="M 400.106418 -353.445314 
L 397.156082 -353.445314 
L 394.916906 -355.955382 
L 391.044853 -358.46545 
L 385.846199 -360.975518 
L 380.305009 -363.485586 
L 375.233494 -365.995653 
L 370.614268 -368.505721 
L 366.109055 -371.015789 
L 361.958419 -373.525857 
L 359.070605 -376.035925 
L 358.53625 -378.545993 
L 361.104863 -381.056061 
L 366.536446 -383.566128 
L 373.387143 -386.076196 
L 379.955322 -388.586264 
L 385.443112 -391.096332 
L 389.918973 -393.6064 
L 393.500402 -396.116468 
L 396.063689 -398.626536 
L 397.574627 -401.136603 
L 399.687873 -401.136603 
L 399.687873 -401.136603 
L 401.198811 -398.626536 
L 403.762098 -396.116468 
L 407.343527 -393.6064 
L 411.819388 -391.096332 
L 417.307178 -388.586264 
L 423.875357 -386.076196 
L 430.726054 -383.566128 
L 436.157637 -381.056061 
L 438.72625 -378.545993 
L 438.191895 -376.035925 
L 435.304081 -373.525857 
L 431.153445 -371.015789 
L 426.648232 -368.505721 
L 422.029006 -365.995653 
L 416.957491 -363.485586 
L 411.416301 -360.975518 
L 406.217647 -358.46545 
L 402.345594 -355.955382 
L 400.106418 -353.445314 
z
" id="m7e98eaa79b" style="stroke:#3d3d3d;stroke-width:1.5;"/>
    </defs>
    <g clip-path="url(#p024aeff296)">
     <use style="fill:#c03d3e;stroke:#3d3d3d;stroke-width:1.5;" x="0" xlink:href="#m7e98eaa79b" y="720"/>
    </g>
   </g>
   <g id="PolyCollection_13">
    <defs>
     <path d="M 500.008171 -363.493325 
L 497.729329 -363.493325 
L 496.076432 -365.2862 
L 493.315574 -367.079074 
L 489.867121 -368.871948 
L 486.846656 -370.664822 
L 485.243217 -372.457697 
L 484.741809 -374.250571 
L 483.535735 -376.043445 
L 479.693116 -377.836319 
L 472.945744 -379.629194 
L 465.262649 -381.422068 
L 459.746887 -383.214942 
L 458.77375 -385.007816 
L 462.722694 -386.80069 
L 470.084741 -388.593565 
L 478.586082 -390.386439 
L 486.288704 -392.179313 
L 492.089189 -393.972187 
L 495.748223 -395.765062 
L 497.66259 -397.557936 
L 500.07491 -397.557936 
L 500.07491 -397.557936 
L 501.989277 -395.765062 
L 505.648311 -393.972187 
L 511.448796 -392.179313 
L 519.151418 -390.386439 
L 527.652759 -388.593565 
L 535.014806 -386.80069 
L 538.96375 -385.007816 
L 537.990613 -383.214942 
L 532.474851 -381.422068 
L 524.791756 -379.629194 
L 518.044384 -377.836319 
L 514.201765 -376.043445 
L 512.995691 -374.250571 
L 512.494283 -372.457697 
L 510.890844 -370.664822 
L 507.870379 -368.871948 
L 504.421926 -367.079074 
L 501.661068 -365.2862 
L 500.008171 -363.493325 
z
" id="m7b04d5cfdf" style="stroke:#3d3d3d;stroke-width:1.5;"/>
    </defs>
    <g clip-path="url(#p024aeff296)">
     <use style="fill:#9372b2;stroke:#3d3d3d;stroke-width:1.5;" x="0" xlink:href="#m7b04d5cfdf" y="720"/>
    </g>
   </g>
   <g id="PolyCollection_14">
    <defs>
     <path d="M 601.136185 -378.977656 
L 597.076315 -378.977656 
L 594.437838 -380.082491 
L 590.15134 -381.187326 
L 584.683591 -382.292162 
L 579.361419 -383.396997 
L 575.580731 -384.501832 
L 573.638473 -385.606667 
L 572.410163 -386.711503 
L 570.375888 -387.816338 
L 566.980045 -388.921173 
L 562.993634 -390.026009 
L 559.862997 -391.130844 
L 559.01125 -392.235679 
L 561.446202 -393.340514 
L 567.296952 -394.44535 
L 575.427372 -395.550185 
L 583.812937 -396.65502 
L 590.62834 -397.759856 
L 595.101195 -398.864691 
L 597.502072 -399.969526 
L 600.710428 -399.969526 
L 600.710428 -399.969526 
L 603.111305 -398.864691 
L 607.58416 -397.759856 
L 614.399563 -396.65502 
L 622.785128 -395.550185 
L 630.915548 -394.44535 
L 636.766298 -393.340514 
L 639.20125 -392.235679 
L 638.349503 -391.130844 
L 635.218866 -390.026009 
L 631.232455 -388.921173 
L 627.836612 -387.816338 
L 625.802337 -386.711503 
L 624.574027 -385.606667 
L 622.631769 -384.501832 
L 618.851081 -383.396997 
L 613.528909 -382.292162 
L 608.06116 -381.187326 
L 603.774662 -380.082491 
L 601.136185 -378.977656 
z
" id="m5337c00375" style="stroke:#3d3d3d;stroke-width:1.5;"/>
    </defs>
    <g clip-path="url(#p024aeff296)">
     <use style="fill:#845b53;stroke:#3d3d3d;stroke-width:1.5;" x="0" xlink:href="#m5337c00375" y="720"/>
    </g>
   </g>
   <g id="PolyCollection_15">
    <defs>
     <path d="M 700.644308 -378.43003 
L 698.043192 -378.43003 
L 696.093671 -380.715205 
L 692.729439 -383.00038 
L 688.224395 -385.285555 
L 683.480731 -387.57073 
L 679.235194 -389.855905 
L 675.290201 -392.14108 
L 670.92852 -394.426255 
L 666.087961 -396.711431 
L 661.747592 -398.996606 
L 659.24875 -401.281781 
L 659.56582 -403.566956 
L 662.930478 -405.852131 
L 668.684048 -408.137306 
L 675.589924 -410.422481 
L 682.476319 -412.707656 
L 688.543863 -414.992831 
L 693.276371 -417.278006 
L 696.439083 -419.563181 
L 698.186879 -421.848356 
L 700.500621 -421.848356 
L 700.500621 -421.848356 
L 702.248417 -419.563181 
L 705.411129 -417.278006 
L 710.143637 -414.992831 
L 716.211181 -412.707656 
L 723.097576 -410.422481 
L 730.003452 -408.137306 
L 735.757022 -405.852131 
L 739.12168 -403.566956 
L 739.43875 -401.281781 
L 736.939908 -398.996606 
L 732.599539 -396.711431 
L 727.75898 -394.426255 
L 723.397299 -392.14108 
L 719.452306 -389.855905 
L 715.206769 -387.57073 
L 710.463105 -385.285555 
L 705.958061 -383.00038 
L 702.593829 -380.715205 
L 700.644308 -378.43003 
z
" id="m19d9990ea3" style="stroke:#3d3d3d;stroke-width:1.5;"/>
    </defs>
    <g clip-path="url(#p024aeff296)">
     <use style="fill:#d684bd;stroke:#3d3d3d;stroke-width:1.5;" x="0" xlink:href="#m19d9990ea3" y="720"/>
    </g>
   </g>
   <g id="PolyCollection_16">
    <defs>
     <path d="M 800.813877 -384.656619 
L 798.348623 -384.656619 
L 796.54783 -388.026366 
L 793.387596 -391.396114 
L 788.898006 -394.765861 
L 783.574904 -398.135608 
L 777.950227 -401.505356 
L 772.200609 -404.875103 
L 766.505099 -408.24485 
L 761.780144 -411.614598 
L 759.48625 -414.984345 
L 760.267564 -418.354092 
L 763.105985 -421.72384 
L 766.360761 -425.093587 
L 769.532687 -428.463334 
L 773.502266 -431.833082 
L 779.03124 -435.202829 
L 785.527892 -438.572576 
L 791.468827 -441.942324 
L 795.689242 -445.312071 
L 798.043331 -448.681818 
L 801.119169 -448.681818 
L 801.119169 -448.681818 
L 803.473258 -445.312071 
L 807.693673 -441.942324 
L 813.634608 -438.572576 
L 820.13126 -435.202829 
L 825.660234 -431.833082 
L 829.629813 -428.463334 
L 832.801739 -425.093587 
L 836.056515 -421.72384 
L 838.894936 -418.354092 
L 839.67625 -414.984345 
L 837.382356 -411.614598 
L 832.657401 -408.24485 
L 826.961891 -404.875103 
L 821.212273 -401.505356 
L 815.587596 -398.135608 
L 810.264494 -394.765861 
L 805.774904 -391.396114 
L 802.61467 -388.026366 
L 800.813877 -384.656619 
z
" id="ma3bb5f71f2" style="stroke:#3d3d3d;stroke-width:1.5;"/>
    </defs>
    <g clip-path="url(#p024aeff296)">
     <use style="fill:#7f7f7f;stroke:#3d3d3d;stroke-width:1.5;" x="0" xlink:href="#ma3bb5f71f2" y="720"/>
    </g>
   </g>
   <g id="matplotlib.axis_3">
    <g id="xtick_9">
     <g id="line2d_30">
      <g>
       <use style="stroke:#000000;stroke-width:0.8;" x="97.91875" xlink:href="#mc8fc852d76" y="441.8"/>
      </g>
     </g>
     <g id="text_17">
      <text style="font-family:DejaVu Sans;font-size:10px;font-style:normal;font-weight:normal;text-anchor:middle;" transform="rotate(-0, 97.91875, 456.398438)" x="97.91875" y="456.398438">8</text>
     </g>
    </g>
    <g id="xtick_10">
     <g id="line2d_31">
      <g>
       <use style="stroke:#000000;stroke-width:0.8;" x="198.15625" xlink:href="#mc8fc852d76" y="441.8"/>
      </g>
     </g>
     <g id="text_18">
      <text style="font-family:DejaVu Sans;font-size:10px;font-style:normal;font-weight:normal;text-anchor:middle;" transform="rotate(-0, 198.15625, 456.398438)" x="198.15625" y="456.398438">9</text>
     </g>
    </g>
    <g id="xtick_11">
     <g id="line2d_32">
      <g>
       <use style="stroke:#000000;stroke-width:0.8;" x="298.39375" xlink:href="#mc8fc852d76" y="441.8"/>
      </g>
     </g>
     <g id="text_19">
      <text style="font-family:DejaVu Sans;font-size:10px;font-style:normal;font-weight:normal;text-anchor:middle;" transform="rotate(-0, 298.39375, 456.398438)" x="298.39375" y="456.398438">10</text>
     </g>
    </g>
    <g id="xtick_12">
     <g id="line2d_33">
      <g>
       <use style="stroke:#000000;stroke-width:0.8;" x="398.63125" xlink:href="#mc8fc852d76" y="441.8"/>
      </g>
     </g>
     <g id="text_20">
      <text style="font-family:DejaVu Sans;font-size:10px;font-style:normal;font-weight:normal;text-anchor:middle;" transform="rotate(-0, 398.63125, 456.398438)" x="398.63125" y="456.398438">11</text>
     </g>
    </g>
    <g id="xtick_13">
     <g id="line2d_34">
      <g>
       <use style="stroke:#000000;stroke-width:0.8;" x="498.86875" xlink:href="#mc8fc852d76" y="441.8"/>
      </g>
     </g>
     <g id="text_21">
      <text style="font-family:DejaVu Sans;font-size:10px;font-style:normal;font-weight:normal;text-anchor:middle;" transform="rotate(-0, 498.86875, 456.398438)" x="498.86875" y="456.398438">12</text>
     </g>
    </g>
    <g id="xtick_14">
     <g id="line2d_35">
      <g>
       <use style="stroke:#000000;stroke-width:0.8;" x="599.10625" xlink:href="#mc8fc852d76" y="441.8"/>
      </g>
     </g>
     <g id="text_22">
      <text style="font-family:DejaVu Sans;font-size:10px;font-style:normal;font-weight:normal;text-anchor:middle;" transform="rotate(-0, 599.10625, 456.398438)" x="599.10625" y="456.398438">13</text>
     </g>
    </g>
    <g id="xtick_15">
     <g id="line2d_36">
      <g>
       <use style="stroke:#000000;stroke-width:0.8;" x="699.34375" xlink:href="#mc8fc852d76" y="441.8"/>
      </g>
     </g>
     <g id="text_23">
      <text style="font-family:DejaVu Sans;font-size:10px;font-style:normal;font-weight:normal;text-anchor:middle;" transform="rotate(-0, 699.34375, 456.398438)" x="699.34375" y="456.398438">14</text>
     </g>
    </g>
    <g id="xtick_16">
     <g id="line2d_37">
      <g>
       <use style="stroke:#000000;stroke-width:0.8;" x="799.58125" xlink:href="#mc8fc852d76" y="441.8"/>
      </g>
     </g>
     <g id="text_24">
      <text style="font-family:DejaVu Sans;font-size:10px;font-style:normal;font-weight:normal;text-anchor:middle;" transform="rotate(-0, 799.58125, 456.398438)" x="799.58125" y="456.398438">15</text>
     </g>
    </g>
    <g id="text_25">
     <text style="font-family:DejaVu Sans;font-size:10px;font-style:normal;font-weight:normal;text-anchor:middle;" transform="rotate(-0, 448.75, 470.076563)" x="448.75" y="470.076563">Hour (0 is Midnight)</text>
    </g>
   </g>
   <g id="matplotlib.axis_4">
    <g id="ytick_6">
     <g id="line2d_38">
      <g>
       <use style="stroke:#000000;stroke-width:0.8;" x="47.8" xlink:href="#mea42dd2c3c" y="442.07045"/>
      </g>
     </g>
     <g id="text_26">
      <text style="font-family:DejaVu Sans;font-size:10px;font-style:normal;font-weight:normal;text-anchor:end;" transform="rotate(-0, 40.8, 445.869669)" x="40.8" y="445.869669">2.6</text>
     </g>
    </g>
    <g id="ytick_7">
     <g id="line2d_39">
      <g>
       <use style="stroke:#000000;stroke-width:0.8;" x="47.8" xlink:href="#mea42dd2c3c" y="416.914174"/>
      </g>
     </g>
     <g id="text_27">
      <text style="font-family:DejaVu Sans;font-size:10px;font-style:normal;font-weight:normal;text-anchor:end;" transform="rotate(-0, 40.8, 420.713393)" x="40.8" y="420.713393">2.7</text>
     </g>
    </g>
    <g id="ytick_8">
     <g id="line2d_40">
      <g>
       <use style="stroke:#000000;stroke-width:0.8;" x="47.8" xlink:href="#mea42dd2c3c" y="391.757898"/>
      </g>
     </g>
     <g id="text_28">
      <text style="font-family:DejaVu Sans;font-size:10px;font-style:normal;font-weight:normal;text-anchor:end;" transform="rotate(-0, 40.8, 395.557117)" x="40.8" y="395.557117">2.8</text>
     </g>
    </g>
    <g id="ytick_9">
     <g id="line2d_41">
      <g>
       <use style="stroke:#000000;stroke-width:0.8;" x="47.8" xlink:href="#mea42dd2c3c" y="366.601622"/>
      </g>
     </g>
     <g id="text_29">
      <text style="font-family:DejaVu Sans;font-size:10px;font-style:normal;font-weight:normal;text-anchor:end;" transform="rotate(-0, 40.8, 370.40084)" x="40.8" y="370.40084">2.9</text>
     </g>
    </g>
    <g id="ytick_10">
     <g id="line2d_42">
      <g>
       <use style="stroke:#000000;stroke-width:0.8;" x="47.8" xlink:href="#mea42dd2c3c" y="341.445345"/>
      </g>
     </g>
     <g id="text_30">
      <text style="font-family:DejaVu Sans;font-size:10px;font-style:normal;font-weight:normal;text-anchor:end;" transform="rotate(-0, 40.8, 345.244564)" x="40.8" y="345.244564">3.0</text>
     </g>
    </g>
    <g id="ytick_11">
     <g id="line2d_43">
      <g>
       <use style="stroke:#000000;stroke-width:0.8;" x="47.8" xlink:href="#mea42dd2c3c" y="316.289069"/>
      </g>
     </g>
     <g id="text_31">
      <text style="font-family:DejaVu Sans;font-size:10px;font-style:normal;font-weight:normal;text-anchor:end;" transform="rotate(-0, 40.8, 320.088288)" x="40.8" y="320.088288">3.1</text>
     </g>
    </g>
    <g id="ytick_12">
     <g id="line2d_44">
      <g>
       <use style="stroke:#000000;stroke-width:0.8;" x="47.8" xlink:href="#mea42dd2c3c" y="291.132793"/>
      </g>
     </g>
     <g id="text_32">
      <text style="font-family:DejaVu Sans;font-size:10px;font-style:normal;font-weight:normal;text-anchor:end;" transform="rotate(-0, 40.8, 294.932012)" x="40.8" y="294.932012">3.2</text>
     </g>
    </g>
    <g id="ytick_13">
     <g id="line2d_45">
      <g>
       <use style="stroke:#000000;stroke-width:0.8;" x="47.8" xlink:href="#mea42dd2c3c" y="265.976517"/>
      </g>
     </g>
     <g id="text_33">
      <text style="font-family:DejaVu Sans;font-size:10px;font-style:normal;font-weight:normal;text-anchor:end;" transform="rotate(-0, 40.8, 269.775735)" x="40.8" y="269.775735">3.3</text>
     </g>
    </g>
    <g id="text_34">
     <text style="font-family:DejaVu Sans;font-size:10px;font-style:normal;font-weight:normal;text-anchor:middle;" transform="rotate(-90, 18.817188, 352.5)" x="18.817188" y="352.5">Log10 Hourly Pickup Count</text>
    </g>
   </g>
   <g id="line2d_46">
    <path clip-path="url(#p024aeff296)" d="M 97.91875 417.173283 
L 97.91875 377.487021 
" style="fill:none;stroke:#3d3d3d;stroke-linecap:square;stroke-width:1.5;"/>
   </g>
   <g id="line2d_47">
    <path clip-path="url(#p024aeff296)" d="M 97.91875 405.72254 
L 97.91875 387.351226 
" style="fill:none;stroke:#3d3d3d;stroke-linecap:square;stroke-width:4.5;"/>
   </g>
   <g id="line2d_48">
    <path clip-path="url(#p024aeff296)" d="M 198.15625 385.361633 
L 198.15625 360.363872 
" style="fill:none;stroke:#3d3d3d;stroke-linecap:square;stroke-width:1.5;"/>
   </g>
   <g id="line2d_49">
    <path clip-path="url(#p024aeff296)" d="M 198.15625 378.145221 
L 198.15625 366.406651 
" style="fill:none;stroke:#3d3d3d;stroke-linecap:square;stroke-width:4.5;"/>
   </g>
   <g id="line2d_50">
    <path clip-path="url(#p024aeff296)" d="M 298.39375 366.784461 
L 298.39375 341.227059 
" style="fill:none;stroke:#3d3d3d;stroke-linecap:square;stroke-width:1.5;"/>
   </g>
   <g id="line2d_51">
    <path clip-path="url(#p024aeff296)" d="M 298.39375 362.145157 
L 298.39375 349.462587 
" style="fill:none;stroke:#3d3d3d;stroke-linecap:square;stroke-width:4.5;"/>
   </g>
   <g id="line2d_52">
    <path clip-path="url(#p024aeff296)" d="M 398.63125 356.158891 
L 398.63125 329.259191 
" style="fill:none;stroke:#3d3d3d;stroke-linecap:square;stroke-width:1.5;"/>
   </g>
   <g id="line2d_53">
    <path clip-path="url(#p024aeff296)" d="M 398.63125 347.656077 
L 398.63125 338.963522 
" style="fill:none;stroke:#3d3d3d;stroke-linecap:square;stroke-width:4.5;"/>
   </g>
   <g id="line2d_54">
    <path clip-path="url(#p024aeff296)" d="M 498.86875 339.281862 
L 498.86875 330.043772 
" style="fill:none;stroke:#3d3d3d;stroke-linecap:square;stroke-width:1.5;"/>
   </g>
   <g id="line2d_55">
    <path clip-path="url(#p024aeff296)" d="M 498.86875 339.174962 
L 498.86875 334.79627 
" style="fill:none;stroke:#3d3d3d;stroke-linecap:square;stroke-width:4.5;"/>
   </g>
   <g id="line2d_56">
    <path clip-path="url(#p024aeff296)" d="M 599.10625 336.010906 
L 599.10625 325.041912 
" style="fill:none;stroke:#3d3d3d;stroke-linecap:square;stroke-width:1.5;"/>
   </g>
   <g id="line2d_57">
    <path clip-path="url(#p024aeff296)" d="M 599.10625 333.223844 
L 599.10625 326.795325 
" style="fill:none;stroke:#3d3d3d;stroke-linecap:square;stroke-width:4.5;"/>
   </g>
   <g id="line2d_58">
    <path clip-path="url(#p024aeff296)" d="M 699.34375 332.030232 
L 699.34375 307.691382 
" style="fill:none;stroke:#3d3d3d;stroke-linecap:square;stroke-width:1.5;"/>
   </g>
   <g id="line2d_59">
    <path clip-path="url(#p024aeff296)" d="M 699.34375 322.854494 
L 699.34375 315.26877 
" style="fill:none;stroke:#3d3d3d;stroke-linecap:square;stroke-width:4.5;"/>
   </g>
   <g id="line2d_60">
    <path clip-path="url(#p024aeff296)" d="M 799.58125 320.981392 
L 799.58125 285.680171 
" style="fill:none;stroke:#3d3d3d;stroke-linecap:square;stroke-width:1.5;"/>
   </g>
   <g id="line2d_61">
    <path clip-path="url(#p024aeff296)" d="M 799.58125 308.450278 
L 799.58125 293.642097 
" style="fill:none;stroke:#3d3d3d;stroke-linecap:square;stroke-width:4.5;"/>
   </g>
   <g id="patch_8">
    <path d="M 47.8 441.8 
L 47.8 263.2 
" style="fill:none;stroke:#000000;stroke-linecap:square;stroke-linejoin:miter;stroke-width:0.8;"/>
   </g>
   <g id="patch_9">
    <path d="M 849.7 441.8 
L 849.7 263.2 
" style="fill:none;stroke:#000000;stroke-linecap:square;stroke-linejoin:miter;stroke-width:0.8;"/>
   </g>
   <g id="patch_10">
    <path d="M 47.8 441.8 
L 849.7 441.8 
" style="fill:none;stroke:#000000;stroke-linecap:square;stroke-linejoin:miter;stroke-width:0.8;"/>
   </g>
   <g id="patch_11">
    <path d="M 47.8 263.2 
L 849.7 263.2 
" style="fill:none;stroke:#000000;stroke-linecap:square;stroke-linejoin:miter;stroke-width:0.8;"/>
   </g>
   <g id="PathCollection_9">
    <g clip-path="url(#p024aeff296)">
     <use style="fill:#ffffff;stroke:#3d3d3d;" x="97.91875" xlink:href="#m77652671eb" y="399.428569"/>
    </g>
   </g>
   <g id="PathCollection_10">
    <g clip-path="url(#p024aeff296)">
     <use style="fill:#ffffff;stroke:#3d3d3d;" x="198.15625" xlink:href="#m77652671eb" y="372.606066"/>
    </g>
   </g>
   <g id="PathCollection_11">
    <g clip-path="url(#p024aeff296)">
     <use style="fill:#ffffff;stroke:#3d3d3d;" x="298.39375" xlink:href="#m77652671eb" y="354.633863"/>
    </g>
   </g>
   <g id="PathCollection_12">
    <g clip-path="url(#p024aeff296)">
     <use style="fill:#ffffff;stroke:#3d3d3d;" x="398.63125" xlink:href="#m77652671eb" y="342.845507"/>
    </g>
   </g>
   <g id="PathCollection_13">
    <g clip-path="url(#p024aeff296)">
     <use style="fill:#ffffff;stroke:#3d3d3d;" x="498.86875" xlink:href="#m77652671eb" y="336.011104"/>
    </g>
   </g>
   <g id="PathCollection_14">
    <g clip-path="url(#p024aeff296)">
     <use style="fill:#ffffff;stroke:#3d3d3d;" x="599.10625" xlink:href="#m77652671eb" y="329.74929"/>
    </g>
   </g>
   <g id="PathCollection_15">
    <g clip-path="url(#p024aeff296)">
     <use style="fill:#ffffff;stroke:#3d3d3d;" x="699.34375" xlink:href="#m77652671eb" y="318.578271"/>
    </g>
   </g>
   <g id="PathCollection_16">
    <g clip-path="url(#p024aeff296)">
     <use style="fill:#ffffff;stroke:#3d3d3d;" x="799.58125" xlink:href="#m77652671eb" y="304.067852"/>
    </g>
   </g>
   <g id="text_35">
    <text style="font-family:DejaVu Sans;font-size:12px;font-style:normal;font-weight:normal;text-anchor:middle;" transform="rotate(-0, 448.75, 257.2)" x="448.75" y="257.2">Weekend Hourly Pickup Distributions for Close to Noon</text>
   </g>
  </g>
  <g id="axes_3">
   <g id="patch_12">
    <path d="M 47.8 678.2 
L 849.7 678.2 
L 849.7 499.6 
L 47.8 499.6 
z
" style="fill:#ffffff;"/>
   </g>
   <g id="PolyCollection_17">
    <defs>
     <path d="M 99.170477 -137.582495 
L 96.667023 -137.582495 
L 94.801223 -139.713494 
L 91.492886 -141.844494 
L 86.820851 -143.975494 
L 81.580669 -146.106494 
L 76.916494 -148.237494 
L 73.519751 -150.368493 
L 71.047618 -152.499493 
L 68.341696 -154.630493 
L 64.534318 -156.761493 
L 60.299224 -158.892493 
L 57.82375 -161.023492 
L 59.070058 -163.154492 
L 64.11124 -165.285492 
L 71.372567 -167.416492 
L 79.050142 -169.547492 
L 85.904845 -171.678492 
L 91.220407 -173.809491 
L 94.730319 -175.940491 
L 96.64961 -178.071491 
L 99.18789 -178.071491 
L 99.18789 -178.071491 
L 101.107181 -175.940491 
L 104.617093 -173.809491 
L 109.932655 -171.678492 
L 116.787358 -169.547492 
L 124.464933 -167.416492 
L 131.72626 -165.285492 
L 136.767442 -163.154492 
L 138.01375 -161.023492 
L 135.538276 -158.892493 
L 131.303182 -156.761493 
L 127.495804 -154.630493 
L 124.789882 -152.499493 
L 122.317749 -150.368493 
L 118.921006 -148.237494 
L 114.256831 -146.106494 
L 109.016649 -143.975494 
L 104.344614 -141.844494 
L 101.036277 -139.713494 
L 99.170477 -137.582495 
z
" id="m620e857c03" style="stroke:#3d3d3d;stroke-width:1.5;"/>
    </defs>
    <g clip-path="url(#pbe9950a1fd)">
     <use style="fill:#3274a1;stroke:#3d3d3d;stroke-width:1.5;" x="0" xlink:href="#m620e857c03" y="720"/>
    </g>
   </g>
   <g id="PolyCollection_18">
    <defs>
     <path d="M 200.569184 -142.480609 
L 195.743316 -142.480609 
L 192.433785 -144.343979 
L 186.682639 -146.207349 
L 178.637182 -148.070719 
L 169.803618 -149.934089 
L 162.572778 -151.79746 
L 158.708243 -153.66083 
L 158.06125 -155.5242 
L 158.885629 -157.38757 
L 159.454869 -159.25094 
L 159.251744 -161.11431 
L 158.793872 -162.977681 
L 158.937213 -164.841051 
L 160.617961 -166.704421 
L 164.684507 -168.567791 
L 171.255494 -170.431161 
L 179.209871 -172.294531 
L 186.691194 -174.157902 
L 192.268069 -176.021272 
L 195.607891 -177.884642 
L 200.704609 -177.884642 
L 200.704609 -177.884642 
L 204.044431 -176.021272 
L 209.621306 -174.157902 
L 217.102629 -172.294531 
L 225.057006 -170.431161 
L 231.627993 -168.567791 
L 235.694539 -166.704421 
L 237.375287 -164.841051 
L 237.518628 -162.977681 
L 237.060756 -161.11431 
L 236.857631 -159.25094 
L 237.426871 -157.38757 
L 238.25125 -155.5242 
L 237.604257 -153.66083 
L 233.739722 -151.79746 
L 226.508882 -149.934089 
L 217.675318 -148.070719 
L 209.629861 -146.207349 
L 203.878715 -144.343979 
L 200.569184 -142.480609 
z
" id="m6c07599323" style="stroke:#3d3d3d;stroke-width:1.5;"/>
    </defs>
    <g clip-path="url(#pbe9950a1fd)">
     <use style="fill:#e1812c;stroke:#3d3d3d;stroke-width:1.5;" x="0" xlink:href="#m6c07599323" y="720"/>
    </g>
   </g>
   <g id="PolyCollection_19">
    <defs>
     <path d="M 300.449315 -128.337315 
L 296.338185 -128.337315 
L 293.426224 -131.548334 
L 288.208117 -134.759353 
L 280.597373 -137.970373 
L 271.730775 -141.181392 
L 263.816602 -144.392411 
L 259.043982 -147.603431 
L 258.29875 -150.81445 
L 260.681897 -154.02547 
L 264.054007 -157.236489 
L 266.163904 -160.447508 
L 265.927321 -163.658528 
L 264.282834 -166.869547 
L 263.746731 -170.080567 
L 266.56599 -173.291586 
L 272.944918 -176.502605 
L 280.998604 -179.713625 
L 288.307045 -182.924644 
L 293.447702 -186.135663 
L 296.345677 -189.346683 
L 300.441823 -189.346683 
L 300.441823 -189.346683 
L 303.339798 -186.135663 
L 308.480455 -182.924644 
L 315.788896 -179.713625 
L 323.842582 -176.502605 
L 330.22151 -173.291586 
L 333.040769 -170.080567 
L 332.504666 -166.869547 
L 330.860179 -163.658528 
L 330.623596 -160.447508 
L 332.733493 -157.236489 
L 336.105603 -154.02547 
L 338.48875 -150.81445 
L 337.743518 -147.603431 
L 332.970898 -144.392411 
L 325.056725 -141.181392 
L 316.190127 -137.970373 
L 308.579383 -134.759353 
L 303.361276 -131.548334 
L 300.449315 -128.337315 
z
" id="mf651cad73b" style="stroke:#3d3d3d;stroke-width:1.5;"/>
    </defs>
    <g clip-path="url(#pbe9950a1fd)">
     <use style="fill:#3a923a;stroke:#3d3d3d;stroke-width:1.5;" x="0" xlink:href="#mf651cad73b" y="720"/>
    </g>
   </g>
   <g id="PolyCollection_20">
    <defs>
     <path d="M 400.183588 -124.56981 
L 397.078912 -124.56981 
L 394.646566 -128.066966 
L 390.000828 -131.564121 
L 382.776944 -135.061276 
L 373.79571 -138.558431 
L 365.235622 -142.055586 
L 359.689565 -145.552741 
L 358.53625 -149.049896 
L 360.975279 -152.547052 
L 364.690001 -156.044207 
L 367.609214 -159.541362 
L 369.222971 -163.038517 
L 370.46964 -166.535672 
L 372.646557 -170.032827 
L 376.440236 -173.529982 
L 381.60093 -177.027138 
L 387.158481 -180.524293 
L 391.978171 -184.021448 
L 395.361504 -187.518603 
L 397.285068 -191.015758 
L 399.977432 -191.015758 
L 399.977432 -191.015758 
L 401.900996 -187.518603 
L 405.284329 -184.021448 
L 410.104019 -180.524293 
L 415.66157 -177.027138 
L 420.822264 -173.529982 
L 424.615943 -170.032827 
L 426.79286 -166.535672 
L 428.039529 -163.038517 
L 429.653286 -159.541362 
L 432.572499 -156.044207 
L 436.287221 -152.547052 
L 438.72625 -149.049896 
L 437.572935 -145.552741 
L 432.026878 -142.055586 
L 423.46679 -138.558431 
L 414.485556 -135.061276 
L 407.261672 -131.564121 
L 402.615934 -128.066966 
L 400.183588 -124.56981 
z
" id="m467375dbfa" style="stroke:#3d3d3d;stroke-width:1.5;"/>
    </defs>
    <g clip-path="url(#pbe9950a1fd)">
     <use style="fill:#c03d3e;stroke:#3d3d3d;stroke-width:1.5;" x="0" xlink:href="#m467375dbfa" y="720"/>
    </g>
   </g>
   <g id="PolyCollection_21">
    <defs>
     <path d="M 501.431993 -125.904014 
L 496.305507 -125.904014 
L 492.856981 -129.003008 
L 486.91511 -132.102002 
L 478.630296 -135.200996 
L 469.526344 -138.299991 
L 462.157393 -141.398985 
L 458.77375 -144.497979 
L 459.882044 -147.596973 
L 463.851293 -150.695967 
L 467.910507 -153.794962 
L 469.859625 -156.893956 
L 469.39047 -159.99295 
L 468.163607 -163.091944 
L 468.555922 -166.190938 
L 471.96937 -169.289933 
L 477.976419 -172.388927 
L 484.841543 -175.487921 
L 490.779493 -178.586915 
L 494.878938 -181.685909 
L 497.191639 -184.784903 
L 500.545861 -184.784903 
L 500.545861 -184.784903 
L 502.858562 -181.685909 
L 506.958007 -178.586915 
L 512.895957 -175.487921 
L 519.761081 -172.388927 
L 525.76813 -169.289933 
L 529.181578 -166.190938 
L 529.573893 -163.091944 
L 528.34703 -159.99295 
L 527.877875 -156.893956 
L 529.826993 -153.794962 
L 533.886207 -150.695967 
L 537.855456 -147.596973 
L 538.96375 -144.497979 
L 535.580107 -141.398985 
L 528.211156 -138.299991 
L 519.107204 -135.200996 
L 510.82239 -132.102002 
L 504.880519 -129.003008 
L 501.431993 -125.904014 
z
" id="m65ca49d9ac" style="stroke:#3d3d3d;stroke-width:1.5;"/>
    </defs>
    <g clip-path="url(#pbe9950a1fd)">
     <use style="fill:#9372b2;stroke:#3d3d3d;stroke-width:1.5;" x="0" xlink:href="#m65ca49d9ac" y="720"/>
    </g>
   </g>
   <g id="PolyCollection_22">
    <defs>
     <path d="M 601.917468 -111.764193 
L 596.295032 -111.764193 
L 592.730889 -116.184223 
L 586.859373 -120.604253 
L 579.130391 -125.024283 
L 571.306486 -129.444312 
L 565.762869 -133.864342 
L 563.908155 -138.284372 
L 565.047367 -142.704402 
L 566.861379 -147.124432 
L 567.108608 -151.544462 
L 565.042525 -155.964492 
L 561.651555 -160.384522 
L 559.01125 -164.804551 
L 559.274805 -169.224581 
L 563.558247 -173.644611 
L 571.208774 -178.064641 
L 580.120918 -182.484671 
L 588.000854 -186.904701 
L 593.552951 -191.324731 
L 596.740081 -195.744761 
L 601.472419 -195.744761 
L 601.472419 -195.744761 
L 604.659549 -191.324731 
L 610.211646 -186.904701 
L 618.091582 -182.484671 
L 627.003726 -178.064641 
L 634.654253 -173.644611 
L 638.937695 -169.224581 
L 639.20125 -164.804551 
L 636.560945 -160.384522 
L 633.169975 -155.964492 
L 631.103892 -151.544462 
L 631.351121 -147.124432 
L 633.165133 -142.704402 
L 634.304345 -138.284372 
L 632.449631 -133.864342 
L 626.906014 -129.444312 
L 619.082109 -125.024283 
L 611.353127 -120.604253 
L 605.481611 -116.184223 
L 601.917468 -111.764193 
z
" id="m615f3438f7" style="stroke:#3d3d3d;stroke-width:1.5;"/>
    </defs>
    <g clip-path="url(#pbe9950a1fd)">
     <use style="fill:#845b53;stroke:#3d3d3d;stroke-width:1.5;" x="0" xlink:href="#m615f3438f7" y="720"/>
    </g>
   </g>
   <g id="PolyCollection_23">
    <defs>
     <path d="M 702.600686 -89.181082 
L 696.086814 -89.181082 
L 692.304064 -95.607431 
L 686.365612 -102.03378 
L 678.894408 -108.460128 
L 671.688998 -114.886477 
L 666.958668 -121.312826 
L 665.870442 -127.739174 
L 667.589414 -134.165523 
L 669.758829 -140.591872 
L 670.065091 -147.018221 
L 667.644692 -153.444569 
L 663.489577 -159.870918 
L 659.881898 -166.297267 
L 659.24875 -172.723616 
L 662.884527 -179.149964 
L 670.201199 -185.576313 
L 679.090541 -192.002662 
L 687.190764 -198.42901 
L 693.075602 -204.855359 
L 696.573042 -211.281708 
L 702.114458 -211.281708 
L 702.114458 -211.281708 
L 705.611898 -204.855359 
L 711.496736 -198.42901 
L 719.596959 -192.002662 
L 728.486301 -185.576313 
L 735.802973 -179.149964 
L 739.43875 -172.723616 
L 738.805602 -166.297267 
L 735.197923 -159.870918 
L 731.042808 -153.444569 
L 728.622409 -147.018221 
L 728.928671 -140.591872 
L 731.098086 -134.165523 
L 732.817058 -127.739174 
L 731.728832 -121.312826 
L 726.998502 -114.886477 
L 719.793092 -108.460128 
L 712.321888 -102.03378 
L 706.383436 -95.607431 
L 702.600686 -89.181082 
z
" id="m54c9a2ce1d" style="stroke:#3d3d3d;stroke-width:1.5;"/>
    </defs>
    <g clip-path="url(#pbe9950a1fd)">
     <use style="fill:#d684bd;stroke:#3d3d3d;stroke-width:1.5;" x="0" xlink:href="#m54c9a2ce1d" y="720"/>
    </g>
   </g>
   <g id="PolyCollection_24">
    <defs>
     <path d="M 803.109934 -49.918182 
L 796.052566 -49.918182 
L 792.162665 -58.463636 
L 786.211536 -67.009091 
L 778.893559 -75.554545 
L 771.999859 -84.1 
L 767.649323 -92.645455 
L 766.916784 -101.190909 
L 768.947911 -109.736364 
L 771.408791 -118.281818 
L 771.954289 -126.827273 
L 769.600772 -135.372727 
L 765.203413 -143.918182 
L 760.992581 -152.463636 
L 759.48625 -161.009091 
L 762.208289 -169.554545 
L 768.858556 -178.1 
L 777.526926 -186.645455 
L 785.841543 -195.190909 
L 792.182487 -203.736364 
L 796.146729 -212.281818 
L 803.015771 -212.281818 
L 803.015771 -212.281818 
L 806.980013 -203.736364 
L 813.320957 -195.190909 
L 821.635574 -186.645455 
L 830.303944 -178.1 
L 836.954211 -169.554545 
L 839.67625 -161.009091 
L 838.169919 -152.463636 
L 833.959087 -143.918182 
L 829.561728 -135.372727 
L 827.208211 -126.827273 
L 827.753709 -118.281818 
L 830.214589 -109.736364 
L 832.245716 -101.190909 
L 831.513177 -92.645455 
L 827.162641 -84.1 
L 820.268941 -75.554545 
L 812.950964 -67.009091 
L 806.999835 -58.463636 
L 803.109934 -49.918182 
z
" id="m696a1f5703" style="stroke:#3d3d3d;stroke-width:1.5;"/>
    </defs>
    <g clip-path="url(#pbe9950a1fd)">
     <use style="fill:#7f7f7f;stroke:#3d3d3d;stroke-width:1.5;" x="0" xlink:href="#m696a1f5703" y="720"/>
    </g>
   </g>
   <g id="matplotlib.axis_5">
    <g id="xtick_17">
     <g id="line2d_62">
      <g>
       <use style="stroke:#000000;stroke-width:0.8;" x="97.91875" xlink:href="#mc8fc852d76" y="678.2"/>
      </g>
     </g>
     <g id="text_36">
      <text style="font-family:DejaVu Sans;font-size:10px;font-style:normal;font-weight:normal;text-anchor:middle;" transform="rotate(-0, 97.91875, 692.798437)" x="97.91875" y="692.798437">16</text>
     </g>
    </g>
    <g id="xtick_18">
     <g id="line2d_63">
      <g>
       <use style="stroke:#000000;stroke-width:0.8;" x="198.15625" xlink:href="#mc8fc852d76" y="678.2"/>
      </g>
     </g>
     <g id="text_37">
      <text style="font-family:DejaVu Sans;font-size:10px;font-style:normal;font-weight:normal;text-anchor:middle;" transform="rotate(-0, 198.15625, 692.798437)" x="198.15625" y="692.798437">17</text>
     </g>
    </g>
    <g id="xtick_19">
     <g id="line2d_64">
      <g>
       <use style="stroke:#000000;stroke-width:0.8;" x="298.39375" xlink:href="#mc8fc852d76" y="678.2"/>
      </g>
     </g>
     <g id="text_38">
      <text style="font-family:DejaVu Sans;font-size:10px;font-style:normal;font-weight:normal;text-anchor:middle;" transform="rotate(-0, 298.39375, 692.798437)" x="298.39375" y="692.798437">18</text>
     </g>
    </g>
    <g id="xtick_20">
     <g id="line2d_65">
      <g>
       <use style="stroke:#000000;stroke-width:0.8;" x="398.63125" xlink:href="#mc8fc852d76" y="678.2"/>
      </g>
     </g>
     <g id="text_39">
      <text style="font-family:DejaVu Sans;font-size:10px;font-style:normal;font-weight:normal;text-anchor:middle;" transform="rotate(-0, 398.63125, 692.798437)" x="398.63125" y="692.798437">19</text>
     </g>
    </g>
    <g id="xtick_21">
     <g id="line2d_66">
      <g>
       <use style="stroke:#000000;stroke-width:0.8;" x="498.86875" xlink:href="#mc8fc852d76" y="678.2"/>
      </g>
     </g>
     <g id="text_40">
      <text style="font-family:DejaVu Sans;font-size:10px;font-style:normal;font-weight:normal;text-anchor:middle;" transform="rotate(-0, 498.86875, 692.798437)" x="498.86875" y="692.798437">20</text>
     </g>
    </g>
    <g id="xtick_22">
     <g id="line2d_67">
      <g>
       <use style="stroke:#000000;stroke-width:0.8;" x="599.10625" xlink:href="#mc8fc852d76" y="678.2"/>
      </g>
     </g>
     <g id="text_41">
      <text style="font-family:DejaVu Sans;font-size:10px;font-style:normal;font-weight:normal;text-anchor:middle;" transform="rotate(-0, 599.10625, 692.798437)" x="599.10625" y="692.798437">21</text>
     </g>
    </g>
    <g id="xtick_23">
     <g id="line2d_68">
      <g>
       <use style="stroke:#000000;stroke-width:0.8;" x="699.34375" xlink:href="#mc8fc852d76" y="678.2"/>
      </g>
     </g>
     <g id="text_42">
      <text style="font-family:DejaVu Sans;font-size:10px;font-style:normal;font-weight:normal;text-anchor:middle;" transform="rotate(-0, 699.34375, 692.798437)" x="699.34375" y="692.798437">22</text>
     </g>
    </g>
    <g id="xtick_24">
     <g id="line2d_69">
      <g>
       <use style="stroke:#000000;stroke-width:0.8;" x="799.58125" xlink:href="#mc8fc852d76" y="678.2"/>
      </g>
     </g>
     <g id="text_43">
      <text style="font-family:DejaVu Sans;font-size:10px;font-style:normal;font-weight:normal;text-anchor:middle;" transform="rotate(-0, 799.58125, 692.798437)" x="799.58125" y="692.798437">23</text>
     </g>
    </g>
    <g id="text_44">
     <text style="font-family:DejaVu Sans;font-size:10px;font-style:normal;font-weight:normal;text-anchor:middle;" transform="rotate(-0, 448.75, 706.476562)" x="448.75" y="706.476562">Hour (0 is Midnight)</text>
    </g>
   </g>
   <g id="matplotlib.axis_6">
    <g id="ytick_14">
     <g id="line2d_70">
      <g>
       <use style="stroke:#000000;stroke-width:0.8;" x="47.8" xlink:href="#mea42dd2c3c" y="676.260872"/>
      </g>
     </g>
     <g id="text_45">
      <text style="font-family:DejaVu Sans;font-size:10px;font-style:normal;font-weight:normal;text-anchor:end;" transform="rotate(-0, 40.8, 680.060091)" x="40.8" y="680.060091">2.4</text>
     </g>
    </g>
    <g id="ytick_15">
     <g id="line2d_71">
      <g>
       <use style="stroke:#000000;stroke-width:0.8;" x="47.8" xlink:href="#mea42dd2c3c" y="646.78517"/>
      </g>
     </g>
     <g id="text_46">
      <text style="font-family:DejaVu Sans;font-size:10px;font-style:normal;font-weight:normal;text-anchor:end;" transform="rotate(-0, 40.8, 650.584388)" x="40.8" y="650.584388">2.6</text>
     </g>
    </g>
    <g id="ytick_16">
     <g id="line2d_72">
      <g>
       <use style="stroke:#000000;stroke-width:0.8;" x="47.8" xlink:href="#mea42dd2c3c" y="617.309467"/>
      </g>
     </g>
     <g id="text_47">
      <text style="font-family:DejaVu Sans;font-size:10px;font-style:normal;font-weight:normal;text-anchor:end;" transform="rotate(-0, 40.8, 621.108686)" x="40.8" y="621.108686">2.8</text>
     </g>
    </g>
    <g id="ytick_17">
     <g id="line2d_73">
      <g>
       <use style="stroke:#000000;stroke-width:0.8;" x="47.8" xlink:href="#mea42dd2c3c" y="587.833765"/>
      </g>
     </g>
     <g id="text_48">
      <text style="font-family:DejaVu Sans;font-size:10px;font-style:normal;font-weight:normal;text-anchor:end;" transform="rotate(-0, 40.8, 591.632984)" x="40.8" y="591.632984">3.0</text>
     </g>
    </g>
    <g id="ytick_18">
     <g id="line2d_74">
      <g>
       <use style="stroke:#000000;stroke-width:0.8;" x="47.8" xlink:href="#mea42dd2c3c" y="558.358062"/>
      </g>
     </g>
     <g id="text_49">
      <text style="font-family:DejaVu Sans;font-size:10px;font-style:normal;font-weight:normal;text-anchor:end;" transform="rotate(-0, 40.8, 562.157281)" x="40.8" y="562.157281">3.2</text>
     </g>
    </g>
    <g id="ytick_19">
     <g id="line2d_75">
      <g>
       <use style="stroke:#000000;stroke-width:0.8;" x="47.8" xlink:href="#mea42dd2c3c" y="528.88236"/>
      </g>
     </g>
     <g id="text_50">
      <text style="font-family:DejaVu Sans;font-size:10px;font-style:normal;font-weight:normal;text-anchor:end;" transform="rotate(-0, 40.8, 532.681579)" x="40.8" y="532.681579">3.4</text>
     </g>
    </g>
    <g id="ytick_20">
     <g id="line2d_76">
      <g>
       <use style="stroke:#000000;stroke-width:0.8;" x="47.8" xlink:href="#mea42dd2c3c" y="499.406658"/>
      </g>
     </g>
     <g id="text_51">
      <text style="font-family:DejaVu Sans;font-size:10px;font-style:normal;font-weight:normal;text-anchor:end;" transform="rotate(-0, 40.8, 503.205876)" x="40.8" y="503.205876">3.6</text>
     </g>
    </g>
    <g id="text_52">
     <text style="font-family:DejaVu Sans;font-size:10px;font-style:normal;font-weight:normal;text-anchor:middle;" transform="rotate(-90, 18.817188, 588.9)" x="18.817188" y="588.9">Log10 Hourly Pickup Count</text>
    </g>
   </g>
   <g id="line2d_77">
    <path clip-path="url(#pbe9950a1fd)" d="M 97.91875 573.34682 
L 97.91875 550.999194 
" style="fill:none;stroke:#3d3d3d;stroke-linecap:square;stroke-width:1.5;"/>
   </g>
   <g id="line2d_78">
    <path clip-path="url(#pbe9950a1fd)" d="M 97.91875 566.608748 
L 97.91875 558.222663 
" style="fill:none;stroke:#3d3d3d;stroke-linecap:square;stroke-width:4.5;"/>
   </g>
   <g id="line2d_79">
    <path clip-path="url(#pbe9950a1fd)" d="M 198.15625 568.815296 
L 198.15625 550.819454 
" style="fill:none;stroke:#3d3d3d;stroke-linecap:square;stroke-width:1.5;"/>
   </g>
   <g id="line2d_80">
    <path clip-path="url(#pbe9950a1fd)" d="M 198.15625 566.035657 
L 198.15625 553.631505 
" style="fill:none;stroke:#3d3d3d;stroke-linecap:square;stroke-width:4.5;"/>
   </g>
   <g id="line2d_81">
    <path clip-path="url(#pbe9950a1fd)" d="M 298.39375 576.699766 
L 298.39375 545.616237 
" style="fill:none;stroke:#3d3d3d;stroke-linecap:square;stroke-width:1.5;"/>
   </g>
   <g id="line2d_82">
    <path clip-path="url(#pbe9950a1fd)" d="M 298.39375 572.15039 
L 298.39375 549.779303 
" style="fill:none;stroke:#3d3d3d;stroke-linecap:square;stroke-width:4.5;"/>
   </g>
   <g id="line2d_83">
    <path clip-path="url(#pbe9950a1fd)" d="M 398.63125 580.011143 
L 398.63125 544.403289 
" style="fill:none;stroke:#3d3d3d;stroke-linecap:square;stroke-width:1.5;"/>
   </g>
   <g id="line2d_84">
    <path clip-path="url(#pbe9950a1fd)" d="M 398.63125 574.130162 
L 398.63125 555.589369 
" style="fill:none;stroke:#3d3d3d;stroke-linecap:square;stroke-width:4.5;"/>
   </g>
   <g id="line2d_85">
    <path clip-path="url(#pbe9950a1fd)" d="M 498.86875 579.559602 
L 498.86875 549.751481 
" style="fill:none;stroke:#3d3d3d;stroke-linecap:square;stroke-width:1.5;"/>
   </g>
   <g id="line2d_86">
    <path clip-path="url(#pbe9950a1fd)" d="M 498.86875 576.116945 
L 498.86875 556.200485 
" style="fill:none;stroke:#3d3d3d;stroke-linecap:square;stroke-width:4.5;"/>
   </g>
   <g id="line2d_87">
    <path clip-path="url(#pbe9950a1fd)" d="M 599.10625 587.007053 
L 599.10625 545.483993 
" style="fill:none;stroke:#3d3d3d;stroke-linecap:square;stroke-width:1.5;"/>
   </g>
   <g id="line2d_88">
    <path clip-path="url(#pbe9950a1fd)" d="M 599.10625 583.356768 
L 599.10625 550.337922 
" style="fill:none;stroke:#3d3d3d;stroke-linecap:square;stroke-width:4.5;"/>
   </g>
   <g id="line2d_89">
    <path clip-path="url(#pbe9950a1fd)" d="M 699.34375 599.069614 
L 699.34375 540.467596 
" style="fill:none;stroke:#3d3d3d;stroke-linecap:square;stroke-width:1.5;"/>
   </g>
   <g id="line2d_90">
    <path clip-path="url(#pbe9950a1fd)" d="M 699.34375 595.739118 
L 699.34375 545.312796 
" style="fill:none;stroke:#3d3d3d;stroke-linecap:square;stroke-width:4.5;"/>
   </g>
   <g id="line2d_91">
    <path clip-path="url(#pbe9950a1fd)" d="M 799.58125 626.800806 
L 799.58125 550.999194 
" style="fill:none;stroke:#3d3d3d;stroke-linecap:square;stroke-width:1.5;"/>
   </g>
   <g id="line2d_92">
    <path clip-path="url(#pbe9950a1fd)" d="M 799.58125 624.435035 
L 799.58125 555.118291 
" style="fill:none;stroke:#3d3d3d;stroke-linecap:square;stroke-width:4.5;"/>
   </g>
   <g id="patch_13">
    <path d="M 47.8 678.2 
L 47.8 499.6 
" style="fill:none;stroke:#000000;stroke-linecap:square;stroke-linejoin:miter;stroke-width:0.8;"/>
   </g>
   <g id="patch_14">
    <path d="M 849.7 678.2 
L 849.7 499.6 
" style="fill:none;stroke:#000000;stroke-linecap:square;stroke-linejoin:miter;stroke-width:0.8;"/>
   </g>
   <g id="patch_15">
    <path d="M 47.8 678.2 
L 849.7 678.2 
" style="fill:none;stroke:#000000;stroke-linecap:square;stroke-linejoin:miter;stroke-width:0.8;"/>
   </g>
   <g id="patch_16">
    <path d="M 47.8 499.6 
L 849.7 499.6 
" style="fill:none;stroke:#000000;stroke-linecap:square;stroke-linejoin:miter;stroke-width:0.8;"/>
   </g>
   <g id="PathCollection_17">
    <g clip-path="url(#pbe9950a1fd)">
     <use style="fill:#ffffff;stroke:#3d3d3d;" x="97.91875" xlink:href="#m77652671eb" y="558.983016"/>
    </g>
   </g>
   <g id="PathCollection_18">
    <g clip-path="url(#pbe9950a1fd)">
     <use style="fill:#ffffff;stroke:#3d3d3d;" x="198.15625" xlink:href="#m77652671eb" y="559.074218"/>
    </g>
   </g>
   <g id="PathCollection_19">
    <g clip-path="url(#pbe9950a1fd)">
     <use style="fill:#ffffff;stroke:#3d3d3d;" x="298.39375" xlink:href="#m77652671eb" y="563.548301"/>
    </g>
   </g>
   <g id="PathCollection_20">
    <g clip-path="url(#pbe9950a1fd)">
     <use style="fill:#ffffff;stroke:#3d3d3d;" x="398.63125" xlink:href="#m77652671eb" y="567.186344"/>
    </g>
   </g>
   <g id="PathCollection_21">
    <g clip-path="url(#pbe9950a1fd)">
     <use style="fill:#ffffff;stroke:#3d3d3d;" x="498.86875" xlink:href="#m77652671eb" y="570.153147"/>
    </g>
   </g>
   <g id="PathCollection_22">
    <g clip-path="url(#pbe9950a1fd)">
     <use style="fill:#ffffff;stroke:#3d3d3d;" x="599.10625" xlink:href="#m77652671eb" y="563.582272"/>
    </g>
   </g>
   <g id="PathCollection_23">
    <g clip-path="url(#pbe9950a1fd)">
     <use style="fill:#ffffff;stroke:#3d3d3d;" x="699.34375" xlink:href="#m77652671eb" y="563.462379"/>
    </g>
   </g>
   <g id="PathCollection_24">
    <g clip-path="url(#pbe9950a1fd)">
     <use style="fill:#ffffff;stroke:#3d3d3d;" x="799.58125" xlink:href="#m77652671eb" y="577.847537"/>
    </g>
   </g>
   <g id="text_53">
    <text style="font-family:DejaVu Sans;font-size:12px;font-style:normal;font-weight:normal;text-anchor:middle;" transform="rotate(-0, 448.75, 493.6)" x="448.75" y="493.6">Weekend Hourly Pickup Distributions for Afternoon to Night</text>
   </g>
  </g>
 </g>
 <defs>
  <clipPath id="pe23b0b3ab8">
   <rect height="178.6" width="801.9" x="47.8" y="26.8"/>
  </clipPath>
  <clipPath id="p024aeff296">
   <rect height="178.6" width="801.9" x="47.8" y="263.2"/>
  </clipPath>
  <clipPath id="pbe9950a1fd">
   <rect height="178.6" width="801.9" x="47.8" y="499.6"/>
  </clipPath>
 </defs>
</svg>
