<?xml version="1.0" encoding="utf-8" standalone="no"?>
<!DOCTYPE svg PUBLIC "-//W3C//DTD SVG 1.1//EN"
  "http://www.w3.org/Graphics/SVG/1.1/DTD/svg11.dtd">
<!-- Created with matplotlib (https://matplotlib.org/) -->
<svg height="720pt" version="1.1" viewBox="0 0 864 720" width="864pt" xmlns="http://www.w3.org/2000/svg" xmlns:xlink="http://www.w3.org/1999/xlink">
 <defs>
  <style type="text/css">
*{stroke-linecap:butt;stroke-linejoin:round;}
  </style>
 </defs>
 <g id="figure_1">
  <g id="patch_1">
   <path d="M 0 720 
L 864 720 
L 864 0 
L 0 0 
z
" style="fill:#ffffff;"/>
  </g>
  <g id="axes_1">
   <g id="patch_2">
    <path d="M 47.8 205.4 
L 849.7 205.4 
L 849.7 26.8 
L 47.8 26.8 
z
" style="fill:#ffffff;"/>
   </g>
   <g id="PolyCollection_1">
    <defs>
     <path d="M 99.234095 -555.001484 
L 96.603405 -555.001484 
L 93.92699 -560.919122 
L 88.357891 -566.836761 
L 79.604216 -572.754399 
L 69.446365 -578.672037 
L 61.315686 -584.589676 
L 57.82375 -590.507314 
L 58.61991 -596.424953 
L 61.281768 -602.342591 
L 63.969022 -608.26023 
L 66.329322 -614.177868 
L 68.582156 -620.095506 
L 71.10384 -626.013145 
L 74.50826 -631.930783 
L 79.116878 -637.848422 
L 84.446094 -643.76606 
L 89.51137 -649.683698 
L 93.464952 -655.601337 
L 95.972772 -661.518975 
L 97.236786 -667.436614 
L 98.600714 -667.436614 
L 98.600714 -667.436614 
L 99.864728 -661.518975 
L 102.372548 -655.601337 
L 106.32613 -649.683698 
L 111.391406 -643.76606 
L 116.720622 -637.848422 
L 121.32924 -631.930783 
L 124.73366 -626.013145 
L 127.255344 -620.095506 
L 129.508178 -614.177868 
L 131.868478 -608.26023 
L 134.555732 -602.342591 
L 137.21759 -596.424953 
L 138.01375 -590.507314 
L 134.521814 -584.589676 
L 126.391135 -578.672037 
L 116.233284 -572.754399 
L 107.479609 -566.836761 
L 101.91051 -560.919122 
L 99.234095 -555.001484 
z
" id="ma610a65b29" style="stroke:#3d3d3d;stroke-width:1.5;"/>
    </defs>
    <g clip-path="url(#p6c23037611)">
     <use style="fill:#3274a1;stroke:#3d3d3d;stroke-width:1.5;" x="0" xlink:href="#ma610a65b29" y="720"/>
    </g>
   </g>
   <g id="PolyCollection_2">
    <defs>
     <path d="M 199.315068 -536.105043 
L 196.997432 -536.105043 
L 194.70546 -541.063576 
L 189.886999 -546.022109 
L 182.059092 -550.980642 
L 172.393719 -555.939175 
L 163.688977 -560.897708 
L 158.662234 -565.856241 
L 158.06125 -570.814774 
L 160.641275 -575.773307 
L 164.749453 -580.73184 
L 169.277102 -585.690373 
L 173.172441 -590.648906 
L 175.313941 -595.607439 
L 175.816918 -600.565972 
L 176.683459 -605.524505 
L 179.941502 -610.483038 
L 185.396837 -615.441571 
L 190.990897 -620.400105 
L 194.968196 -625.358638 
L 197.03796 -630.317171 
L 199.27454 -630.317171 
L 199.27454 -630.317171 
L 201.344304 -625.358638 
L 205.321603 -620.400105 
L 210.915663 -615.441571 
L 216.370998 -610.483038 
L 219.629041 -605.524505 
L 220.495582 -600.565972 
L 220.998559 -595.607439 
L 223.140059 -590.648906 
L 227.035398 -585.690373 
L 231.563047 -580.73184 
L 235.671225 -575.773307 
L 238.25125 -570.814774 
L 237.650266 -565.856241 
L 232.623523 -560.897708 
L 223.918781 -555.939175 
L 214.253408 -550.980642 
L 206.425501 -546.022109 
L 201.60704 -541.063576 
L 199.315068 -536.105043 
z
" id="m2ded574f5e" style="stroke:#3d3d3d;stroke-width:1.5;"/>
    </defs>
    <g clip-path="url(#p6c23037611)">
     <use style="fill:#e1812c;stroke:#3d3d3d;stroke-width:1.5;" x="0" xlink:href="#m2ded574f5e" y="720"/>
    </g>
   </g>
   <g id="PolyCollection_3">
    <defs>
     <path d="M 299.182235 -522.718182 
L 297.605265 -522.718182 
L 295.981357 -527.014503 
L 292.343548 -531.310824 
L 285.833238 -535.607145 
L 276.736571 -539.903467 
L 267.279568 -544.199788 
L 260.622206 -548.496109 
L 258.29875 -552.79243 
L 259.234958 -557.088751 
L 261.755731 -561.385072 
L 265.321312 -565.681394 
L 269.53776 -569.977715 
L 273.095801 -574.274036 
L 275.186887 -578.570357 
L 276.97568 -582.866678 
L 280.308868 -587.163 
L 285.439193 -591.459321 
L 290.83911 -595.755642 
L 294.885983 -600.051963 
L 297.115487 -604.348284 
L 299.672013 -604.348284 
L 299.672013 -604.348284 
L 301.901517 -600.051963 
L 305.94839 -595.755642 
L 311.348307 -591.459321 
L 316.478632 -587.163 
L 319.81182 -582.866678 
L 321.600613 -578.570357 
L 323.691699 -574.274036 
L 327.24974 -569.977715 
L 331.466188 -565.681394 
L 335.031769 -561.385072 
L 337.552542 -557.088751 
L 338.48875 -552.79243 
L 336.165294 -548.496109 
L 329.507932 -544.199788 
L 320.050929 -539.903467 
L 310.954262 -535.607145 
L 304.443952 -531.310824 
L 300.806143 -527.014503 
L 299.182235 -522.718182 
z
" id="m0e1175fac8" style="stroke:#3d3d3d;stroke-width:1.5;"/>
    </defs>
    <g clip-path="url(#p6c23037611)">
     <use style="fill:#3a923a;stroke:#3d3d3d;stroke-width:1.5;" x="0" xlink:href="#m0e1175fac8" y="720"/>
    </g>
   </g>
   <g id="PolyCollection_4">
    <defs>
     <path d="M 399.100415 -537.341597 
L 398.162085 -537.341597 
L 397.265873 -541.28425 
L 395.973865 -545.226902 
L 395.156451 -549.169555 
L 395.464173 -553.112208 
L 396.051054 -557.05486 
L 395.000212 -560.997513 
L 390.933722 -564.940166 
L 384.359738 -568.882818 
L 377.499337 -572.825471 
L 371.747063 -576.768124 
L 366.221456 -580.710776 
L 360.78067 -584.653429 
L 358.53625 -588.596081 
L 362.649918 -592.538734 
L 372.131338 -596.481387 
L 382.79181 -600.424039 
L 391.063115 -604.366692 
L 395.827486 -608.309345 
L 397.856943 -612.251997 
L 399.405557 -612.251997 
L 399.405557 -612.251997 
L 401.435014 -608.309345 
L 406.199385 -604.366692 
L 414.47069 -600.424039 
L 425.131162 -596.481387 
L 434.612582 -592.538734 
L 438.72625 -588.596081 
L 436.48183 -584.653429 
L 431.041044 -580.710776 
L 425.515437 -576.768124 
L 419.763163 -572.825471 
L 412.902762 -568.882818 
L 406.328778 -564.940166 
L 402.262288 -560.997513 
L 401.211446 -557.05486 
L 401.798327 -553.112208 
L 402.106049 -549.169555 
L 401.288635 -545.226902 
L 399.996627 -541.28425 
L 399.100415 -537.341597 
z
" id="m26a24fc795" style="stroke:#3d3d3d;stroke-width:1.5;"/>
    </defs>
    <g clip-path="url(#p6c23037611)">
     <use style="fill:#c03d3e;stroke:#3d3d3d;stroke-width:1.5;" x="0" xlink:href="#m26a24fc795" y="720"/>
    </g>
   </g>
   <g id="PolyCollection_5">
    <defs>
     <path d="M 499.767172 -584.430002 
L 497.970328 -584.430002 
L 496.082865 -586.634399 
L 492.41066 -588.838797 
L 487.389516 -591.043194 
L 482.585065 -593.247592 
L 479.389279 -595.451989 
L 477.721904 -597.656386 
L 475.768345 -599.860784 
L 471.164816 -602.065181 
L 464.075859 -604.269579 
L 458.77375 -606.473976 
L 459.822793 -608.678374 
L 467.184611 -610.882771 
L 476.817077 -613.087169 
L 484.896272 -615.291566 
L 490.199189 -617.495963 
L 493.501687 -619.700361 
L 495.81597 -621.904758 
L 497.443483 -624.109156 
L 498.361944 -626.313553 
L 499.375556 -626.313553 
L 499.375556 -626.313553 
L 500.294017 -624.109156 
L 501.92153 -621.904758 
L 504.235813 -619.700361 
L 507.538311 -617.495963 
L 512.841228 -615.291566 
L 520.920423 -613.087169 
L 530.552889 -610.882771 
L 537.914707 -608.678374 
L 538.96375 -606.473976 
L 533.661641 -604.269579 
L 526.572684 -602.065181 
L 521.969155 -599.860784 
L 520.015596 -597.656386 
L 518.348221 -595.451989 
L 515.152435 -593.247592 
L 510.347984 -591.043194 
L 505.32684 -588.838797 
L 501.654635 -586.634399 
L 499.767172 -584.430002 
z
" id="m329630305a" style="stroke:#3d3d3d;stroke-width:1.5;"/>
    </defs>
    <g clip-path="url(#p6c23037611)">
     <use style="fill:#9372b2;stroke:#3d3d3d;stroke-width:1.5;" x="0" xlink:href="#m329630305a" y="720"/>
    </g>
   </g>
   <g id="PolyCollection_6">
    <defs>
     <path d="M 599.933814 -614.275382 
L 598.278686 -614.275382 
L 596.849463 -615.587486 
L 594.362323 -616.89959 
L 591.213269 -618.211694 
L 588.066712 -619.523798 
L 584.663398 -620.835903 
L 579.584555 -622.148007 
L 572.117544 -623.460111 
L 564.112596 -624.772215 
L 559.057902 -626.084319 
L 559.01125 -627.396423 
L 562.574384 -628.708527 
L 566.008612 -630.020631 
L 566.929968 -631.332735 
L 567.089637 -632.64484 
L 570.363953 -633.956944 
L 577.883335 -635.269048 
L 586.758238 -636.581152 
L 593.540758 -637.893256 
L 597.176656 -639.20536 
L 601.035844 -639.20536 
L 601.035844 -639.20536 
L 604.671742 -637.893256 
L 611.454262 -636.581152 
L 620.329165 -635.269048 
L 627.848547 -633.956944 
L 631.122863 -632.64484 
L 631.282532 -631.332735 
L 632.203888 -630.020631 
L 635.638116 -628.708527 
L 639.20125 -627.396423 
L 639.154598 -626.084319 
L 634.099904 -624.772215 
L 626.094956 -623.460111 
L 618.627945 -622.148007 
L 613.549102 -620.835903 
L 610.145788 -619.523798 
L 606.999231 -618.211694 
L 603.850177 -616.89959 
L 601.363037 -615.587486 
L 599.933814 -614.275382 
z
" id="ma031908175" style="stroke:#3d3d3d;stroke-width:1.5;"/>
    </defs>
    <g clip-path="url(#p6c23037611)">
     <use style="fill:#845b53;stroke:#3d3d3d;stroke-width:1.5;" x="0" xlink:href="#ma031908175" y="720"/>
    </g>
   </g>
   <g id="PolyCollection_7">
    <defs>
     <path d="M 700.167526 -640.773957 
L 698.519974 -640.773957 
L 696.185296 -642.633334 
L 690.746881 -644.492711 
L 681.718028 -646.352088 
L 670.510301 -648.211465 
L 661.075285 -650.070842 
L 659.24875 -651.930219 
L 666.823953 -653.789596 
L 678.041286 -655.648974 
L 686.882698 -657.508351 
L 692.61301 -659.367728 
L 696.327325 -661.227105 
L 698.292662 -663.086482 
L 698.761761 -664.945859 
L 698.167002 -666.805236 
L 697.066442 -668.664613 
L 696.467225 -670.52399 
L 697.025983 -672.383367 
L 698.153733 -674.242744 
L 698.95444 -676.102121 
L 699.73306 -676.102121 
L 699.73306 -676.102121 
L 700.533767 -674.242744 
L 701.661517 -672.383367 
L 702.220275 -670.52399 
L 701.621058 -668.664613 
L 700.520498 -666.805236 
L 699.925739 -664.945859 
L 700.394838 -663.086482 
L 702.360175 -661.227105 
L 706.07449 -659.367728 
L 711.804802 -657.508351 
L 720.646214 -655.648974 
L 731.863547 -653.789596 
L 739.43875 -651.930219 
L 737.612215 -650.070842 
L 728.177199 -648.211465 
L 716.969472 -646.352088 
L 707.940619 -644.492711 
L 702.502204 -642.633334 
L 700.167526 -640.773957 
z
" id="mfcb2541bad" style="stroke:#3d3d3d;stroke-width:1.5;"/>
    </defs>
    <g clip-path="url(#p6c23037611)">
     <use style="fill:#d684bd;stroke:#3d3d3d;stroke-width:1.5;" x="0" xlink:href="#mfcb2541bad" y="720"/>
    </g>
   </g>
   <g id="PolyCollection_8">
    <defs>
     <path d="M 800.088666 -658.901944 
L 799.073834 -658.901944 
L 797.738106 -660.279832 
L 794.689293 -661.65772 
L 789.310627 -663.035609 
L 781.511473 -664.413497 
L 772.318901 -665.791385 
L 764.001129 -667.169273 
L 759.48625 -668.547161 
L 761.577016 -669.925049 
L 770.357129 -671.302937 
L 781.502834 -672.680825 
L 790.368758 -674.058713 
L 795.654679 -675.436601 
L 797.960987 -676.81449 
L 798.080982 -678.192378 
L 797.040912 -679.570266 
L 796.340578 -680.948154 
L 796.93991 -682.326042 
L 798.224888 -683.70393 
L 799.142911 -685.081818 
L 800.019589 -685.081818 
L 800.019589 -685.081818 
L 800.937612 -683.70393 
L 802.22259 -682.326042 
L 802.821922 -680.948154 
L 802.121588 -679.570266 
L 801.081518 -678.192378 
L 801.201513 -676.81449 
L 803.507821 -675.436601 
L 808.793742 -674.058713 
L 817.659666 -672.680825 
L 828.805371 -671.302937 
L 837.585484 -669.925049 
L 839.67625 -668.547161 
L 835.161371 -667.169273 
L 826.843599 -665.791385 
L 817.651027 -664.413497 
L 809.851873 -663.035609 
L 804.473207 -661.65772 
L 801.424394 -660.279832 
L 800.088666 -658.901944 
z
" id="m49ee652a63" style="stroke:#3d3d3d;stroke-width:1.5;"/>
    </defs>
    <g clip-path="url(#p6c23037611)">
     <use style="fill:#7f7f7f;stroke:#3d3d3d;stroke-width:1.5;" x="0" xlink:href="#m49ee652a63" y="720"/>
    </g>
   </g>
   <g id="matplotlib.axis_1">
    <g id="xtick_1">
     <g id="line2d_1">
      <defs>
       <path d="M 0 0 
L 0 3.5 
" id="m31993213e9" style="stroke:#000000;stroke-width:0.8;"/>
      </defs>
      <g>
       <use style="stroke:#000000;stroke-width:0.8;" x="97.91875" xlink:href="#m31993213e9" y="205.4"/>
      </g>
     </g>
     <g id="text_1">
      <text style="font-family:DejaVu Sans;font-size:10px;font-style:normal;font-weight:normal;text-anchor:middle;" transform="rotate(-0, 97.91875, 219.998438)" x="97.91875" y="219.998438">0</text>
     </g>
    </g>
    <g id="xtick_2">
     <g id="line2d_2">
      <g>
       <use style="stroke:#000000;stroke-width:0.8;" x="198.15625" xlink:href="#m31993213e9" y="205.4"/>
      </g>
     </g>
     <g id="text_2">
      <text style="font-family:DejaVu Sans;font-size:10px;font-style:normal;font-weight:normal;text-anchor:middle;" transform="rotate(-0, 198.15625, 219.998438)" x="198.15625" y="219.998438">1</text>
     </g>
    </g>
    <g id="xtick_3">
     <g id="line2d_3">
      <g>
       <use style="stroke:#000000;stroke-width:0.8;" x="298.39375" xlink:href="#m31993213e9" y="205.4"/>
      </g>
     </g>
     <g id="text_3">
      <text style="font-family:DejaVu Sans;font-size:10px;font-style:normal;font-weight:normal;text-anchor:middle;" transform="rotate(-0, 298.39375, 219.998438)" x="298.39375" y="219.998438">2</text>
     </g>
    </g>
    <g id="xtick_4">
     <g id="line2d_4">
      <g>
       <use style="stroke:#000000;stroke-width:0.8;" x="398.63125" xlink:href="#m31993213e9" y="205.4"/>
      </g>
     </g>
     <g id="text_4">
      <text style="font-family:DejaVu Sans;font-size:10px;font-style:normal;font-weight:normal;text-anchor:middle;" transform="rotate(-0, 398.63125, 219.998438)" x="398.63125" y="219.998438">3</text>
     </g>
    </g>
    <g id="xtick_5">
     <g id="line2d_5">
      <g>
       <use style="stroke:#000000;stroke-width:0.8;" x="498.86875" xlink:href="#m31993213e9" y="205.4"/>
      </g>
     </g>
     <g id="text_5">
      <text style="font-family:DejaVu Sans;font-size:10px;font-style:normal;font-weight:normal;text-anchor:middle;" transform="rotate(-0, 498.86875, 219.998438)" x="498.86875" y="219.998438">4</text>
     </g>
    </g>
    <g id="xtick_6">
     <g id="line2d_6">
      <g>
       <use style="stroke:#000000;stroke-width:0.8;" x="599.10625" xlink:href="#m31993213e9" y="205.4"/>
      </g>
     </g>
     <g id="text_6">
      <text style="font-family:DejaVu Sans;font-size:10px;font-style:normal;font-weight:normal;text-anchor:middle;" transform="rotate(-0, 599.10625, 219.998438)" x="599.10625" y="219.998438">5</text>
     </g>
    </g>
    <g id="xtick_7">
     <g id="line2d_7">
      <g>
       <use style="stroke:#000000;stroke-width:0.8;" x="699.34375" xlink:href="#m31993213e9" y="205.4"/>
      </g>
     </g>
     <g id="text_7">
      <text style="font-family:DejaVu Sans;font-size:10px;font-style:normal;font-weight:normal;text-anchor:middle;" transform="rotate(-0, 699.34375, 219.998438)" x="699.34375" y="219.998438">6</text>
     </g>
    </g>
    <g id="xtick_8">
     <g id="line2d_8">
      <g>
       <use style="stroke:#000000;stroke-width:0.8;" x="799.58125" xlink:href="#m31993213e9" y="205.4"/>
      </g>
     </g>
     <g id="text_8">
      <text style="font-family:DejaVu Sans;font-size:10px;font-style:normal;font-weight:normal;text-anchor:middle;" transform="rotate(-0, 799.58125, 219.998438)" x="799.58125" y="219.998438">7</text>
     </g>
    </g>
    <g id="text_9">
     <text style="font-family:DejaVu Sans;font-size:10px;font-style:normal;font-weight:normal;text-anchor:middle;" transform="rotate(-0, 448.75, 233.676563)" x="448.75" y="233.676563">Hour (0 is Midnight)</text>
    </g>
   </g>
   <g id="matplotlib.axis_2">
    <g id="ytick_1">
     <g id="line2d_9">
      <defs>
       <path d="M 0 0 
L -3.5 0 
" id="m883ebc6f1e" style="stroke:#000000;stroke-width:0.8;"/>
      </defs>
      <g>
       <use style="stroke:#000000;stroke-width:0.8;" x="47.8" xlink:href="#m883ebc6f1e" y="186.41246"/>
      </g>
     </g>
     <g id="text_10">
      <text style="font-family:DejaVu Sans;font-size:10px;font-style:normal;font-weight:normal;text-anchor:end;" transform="rotate(-0, 40.8, 190.211679)" x="40.8" y="190.211679">2.0</text>
     </g>
    </g>
    <g id="ytick_2">
     <g id="line2d_10">
      <g>
       <use style="stroke:#000000;stroke-width:0.8;" x="47.8" xlink:href="#m883ebc6f1e" y="162.750302"/>
      </g>
     </g>
     <g id="text_11">
      <text style="font-family:DejaVu Sans;font-size:10px;font-style:normal;font-weight:normal;text-anchor:end;" transform="rotate(-0, 40.8, 166.54952)" x="40.8" y="166.54952">2.2</text>
     </g>
    </g>
    <g id="ytick_3">
     <g id="line2d_11">
      <g>
       <use style="stroke:#000000;stroke-width:0.8;" x="47.8" xlink:href="#m883ebc6f1e" y="139.088143"/>
      </g>
     </g>
     <g id="text_12">
      <text style="font-family:DejaVu Sans;font-size:10px;font-style:normal;font-weight:normal;text-anchor:end;" transform="rotate(-0, 40.8, 142.887362)" x="40.8" y="142.887362">2.4</text>
     </g>
    </g>
    <g id="ytick_4">
     <g id="line2d_12">
      <g>
       <use style="stroke:#000000;stroke-width:0.8;" x="47.8" xlink:href="#m883ebc6f1e" y="115.425985"/>
      </g>
     </g>
     <g id="text_13">
      <text style="font-family:DejaVu Sans;font-size:10px;font-style:normal;font-weight:normal;text-anchor:end;" transform="rotate(-0, 40.8, 119.225204)" x="40.8" y="119.225204">2.6</text>
     </g>
    </g>
    <g id="ytick_5">
     <g id="line2d_13">
      <g>
       <use style="stroke:#000000;stroke-width:0.8;" x="47.8" xlink:href="#m883ebc6f1e" y="91.763827"/>
      </g>
     </g>
     <g id="text_14">
      <text style="font-family:DejaVu Sans;font-size:10px;font-style:normal;font-weight:normal;text-anchor:end;" transform="rotate(-0, 40.8, 95.563046)" x="40.8" y="95.563046">2.8</text>
     </g>
    </g>
    <g id="ytick_6">
     <g id="line2d_14">
      <g>
       <use style="stroke:#000000;stroke-width:0.8;" x="47.8" xlink:href="#m883ebc6f1e" y="68.101669"/>
      </g>
     </g>
     <g id="text_15">
      <text style="font-family:DejaVu Sans;font-size:10px;font-style:normal;font-weight:normal;text-anchor:end;" transform="rotate(-0, 40.8, 71.900887)" x="40.8" y="71.900887">3.0</text>
     </g>
    </g>
    <g id="ytick_7">
     <g id="line2d_15">
      <g>
       <use style="stroke:#000000;stroke-width:0.8;" x="47.8" xlink:href="#m883ebc6f1e" y="44.43951"/>
      </g>
     </g>
     <g id="text_16">
      <text style="font-family:DejaVu Sans;font-size:10px;font-style:normal;font-weight:normal;text-anchor:end;" transform="rotate(-0, 40.8, 48.238729)" x="40.8" y="48.238729">3.2</text>
     </g>
    </g>
    <g id="text_17">
     <text style="font-family:DejaVu Sans;font-size:10px;font-style:normal;font-weight:normal;text-anchor:middle;" transform="rotate(-90, 18.817187, 116.1)" x="18.817187" y="116.1">Log10 Hourly Pickup Count</text>
    </g>
   </g>
   <g id="line2d_16">
    <path clip-path="url(#p6c23037611)" d="M 97.91875 142.95029 
L 97.91875 74.611612 
" style="fill:none;stroke:#3d3d3d;stroke-linecap:square;stroke-width:1.5;"/>
   </g>
   <g id="line2d_17">
    <path clip-path="url(#p6c23037611)" d="M 97.91875 131.705787 
L 97.91875 97.255452 
" style="fill:none;stroke:#3d3d3d;stroke-linecap:square;stroke-width:4.5;"/>
   </g>
   <g id="line2d_18">
    <path clip-path="url(#p6c23037611)" d="M 198.15625 164.561471 
L 198.15625 109.016316 
" style="fill:none;stroke:#3d3d3d;stroke-linecap:square;stroke-width:1.5;"/>
   </g>
   <g id="line2d_19">
    <path clip-path="url(#p6c23037611)" d="M 198.15625 154.52617 
L 198.15625 130.135425 
" style="fill:none;stroke:#3d3d3d;stroke-linecap:square;stroke-width:4.5;"/>
   </g>
   <g id="line2d_20">
    <path clip-path="url(#p6c23037611)" d="M 298.39375 181.050263 
L 298.39375 131.883271 
" style="fill:none;stroke:#3d3d3d;stroke-linecap:square;stroke-width:1.5;"/>
   </g>
   <g id="line2d_21">
    <path clip-path="url(#p6c23037611)" d="M 298.39375 171.374591 
L 298.39375 150.797363 
" style="fill:none;stroke:#3d3d3d;stroke-linecap:square;stroke-width:4.5;"/>
   </g>
   <g id="line2d_22">
    <path clip-path="url(#p6c23037611)" d="M 398.63125 150.797363 
L 398.63125 120.169464 
" style="fill:none;stroke:#3d3d3d;stroke-linecap:square;stroke-width:1.5;"/>
   </g>
   <g id="line2d_23">
    <path clip-path="url(#p6c23037611)" d="M 398.63125 142.075687 
L 398.63125 128.611638 
" style="fill:none;stroke:#3d3d3d;stroke-linecap:square;stroke-width:4.5;"/>
   </g>
   <g id="line2d_24">
    <path clip-path="url(#p6c23037611)" d="M 498.86875 127.948639 
L 498.86875 101.307806 
" style="fill:none;stroke:#3d3d3d;stroke-linecap:square;stroke-width:1.5;"/>
   </g>
   <g id="line2d_25">
    <path clip-path="url(#p6c23037611)" d="M 498.86875 121.604801 
L 498.86875 110.754307 
" style="fill:none;stroke:#3d3d3d;stroke-linecap:square;stroke-width:4.5;"/>
   </g>
   <g id="line2d_26">
    <path clip-path="url(#p6c23037611)" d="M 599.10625 100.819847 
L 599.10625 85.699411 
" style="fill:none;stroke:#3d3d3d;stroke-linecap:square;stroke-width:1.5;"/>
   </g>
   <g id="line2d_27">
    <path clip-path="url(#p6c23037611)" d="M 599.10625 94.692461 
L 599.10625 87.316709 
" style="fill:none;stroke:#3d3d3d;stroke-linecap:square;stroke-width:4.5;"/>
   </g>
   <g id="line2d_28">
    <path clip-path="url(#p6c23037611)" d="M 699.34375 73.004008 
L 699.34375 65.350652 
" style="fill:none;stroke:#3d3d3d;stroke-linecap:square;stroke-width:1.5;"/>
   </g>
   <g id="line2d_29">
    <path clip-path="url(#p6c23037611)" d="M 699.34375 69.825874 
L 699.34375 67.286068 
" style="fill:none;stroke:#3d3d3d;stroke-linecap:square;stroke-width:4.5;"/>
   </g>
   <g id="line2d_30">
    <path clip-path="url(#p6c23037611)" d="M 799.58125 57.048875 
L 799.58125 46.418868 
" style="fill:none;stroke:#3d3d3d;stroke-linecap:square;stroke-width:1.5;"/>
   </g>
   <g id="line2d_31">
    <path clip-path="url(#p6c23037611)" d="M 799.58125 52.796086 
L 799.58125 49.68782 
" style="fill:none;stroke:#3d3d3d;stroke-linecap:square;stroke-width:4.5;"/>
   </g>
   <g id="patch_3">
    <path d="M 47.8 205.4 
L 47.8 26.8 
" style="fill:none;stroke:#000000;stroke-linecap:square;stroke-linejoin:miter;stroke-width:0.8;"/>
   </g>
   <g id="patch_4">
    <path d="M 849.7 205.4 
L 849.7 26.8 
" style="fill:none;stroke:#000000;stroke-linecap:square;stroke-linejoin:miter;stroke-width:0.8;"/>
   </g>
   <g id="patch_5">
    <path d="M 47.8 205.4 
L 849.7 205.4 
" style="fill:none;stroke:#000000;stroke-linecap:square;stroke-linejoin:miter;stroke-width:0.8;"/>
   </g>
   <g id="patch_6">
    <path d="M 47.8 26.8 
L 849.7 26.8 
" style="fill:none;stroke:#000000;stroke-linecap:square;stroke-linejoin:miter;stroke-width:0.8;"/>
   </g>
   <g id="PathCollection_1">
    <defs>
     <path d="M 0 1.5 
C 0.397805 1.5 0.77937 1.341951 1.06066 1.06066 
C 1.341951 0.77937 1.5 0.397805 1.5 0 
C 1.5 -0.397805 1.341951 -0.77937 1.06066 -1.06066 
C 0.77937 -1.341951 0.397805 -1.5 0 -1.5 
C -0.397805 -1.5 -0.77937 -1.341951 -1.06066 -1.06066 
C -1.341951 -0.77937 -1.5 -0.397805 -1.5 0 
C -1.5 0.397805 -1.341951 0.77937 -1.06066 1.06066 
C -0.77937 1.341951 -0.397805 1.5 0 1.5 
z
" id="m89b22772f8" style="stroke:#3d3d3d;"/>
    </defs>
    <g clip-path="url(#p6c23037611)">
     <use style="fill:#ffffff;stroke:#3d3d3d;" x="97.91875" xlink:href="#m89b22772f8" y="116.615056"/>
    </g>
   </g>
   <g id="PathCollection_2">
    <g clip-path="url(#p6c23037611)">
     <use style="fill:#ffffff;stroke:#3d3d3d;" x="198.15625" xlink:href="#m89b22772f8" y="142.73024"/>
    </g>
   </g>
   <g id="PathCollection_3">
    <g clip-path="url(#p6c23037611)">
     <use style="fill:#ffffff;stroke:#3d3d3d;" x="298.39375" xlink:href="#m89b22772f8" y="157.074547"/>
    </g>
   </g>
   <g id="PathCollection_4">
    <g clip-path="url(#p6c23037611)">
     <use style="fill:#ffffff;stroke:#3d3d3d;" x="398.63125" xlink:href="#m89b22772f8" y="133.692674"/>
    </g>
   </g>
   <g id="PathCollection_5">
    <g clip-path="url(#p6c23037611)">
     <use style="fill:#ffffff;stroke:#3d3d3d;" x="498.86875" xlink:href="#m89b22772f8" y="113.663484"/>
    </g>
   </g>
   <g id="PathCollection_6">
    <g clip-path="url(#p6c23037611)">
     <use style="fill:#ffffff;stroke:#3d3d3d;" x="599.10625" xlink:href="#m89b22772f8" y="91.841847"/>
    </g>
   </g>
   <g id="PathCollection_7">
    <g clip-path="url(#p6c23037611)">
     <use style="fill:#ffffff;stroke:#3d3d3d;" x="699.34375" xlink:href="#m89b22772f8" y="68.307608"/>
    </g>
   </g>
   <g id="PathCollection_8">
    <g clip-path="url(#p6c23037611)">
     <use style="fill:#ffffff;stroke:#3d3d3d;" x="799.58125" xlink:href="#m89b22772f8" y="50.99698"/>
    </g>
   </g>
   <g id="text_18">
    <text style="font-family:DejaVu Sans;font-size:12px;font-style:normal;font-weight:normal;text-anchor:middle;" transform="rotate(-0, 448.75, 20.8)" x="448.75" y="20.8">Weekday Hourly Pickup Distributions for Mornings</text>
   </g>
  </g>
  <g id="axes_2">
   <g id="patch_7">
    <path d="M 47.8 441.8 
L 849.7 441.8 
L 849.7 263.2 
L 47.8 263.2 
z
" style="fill:#ffffff;"/>
   </g>
   <g id="PolyCollection_9">
    <defs>
     <path d="M 99.183472 -348.770765 
L 96.654028 -348.770765 
L 93.411818 -353.022576 
L 86.825843 -357.274386 
L 78.226499 -361.526196 
L 70.410024 -365.778006 
L 63.882276 -370.029816 
L 58.592887 -374.281627 
L 57.82375 -378.533437 
L 64.241813 -382.785247 
L 75.257986 -387.037057 
L 85.858271 -391.288868 
L 92.957448 -395.540678 
L 96.300685 -399.792488 
L 97.077 -404.044298 
L 96.396562 -408.296108 
L 95.183436 -412.547919 
L 94.620891 -416.799729 
L 95.321874 -421.051539 
L 96.585149 -425.303349 
L 97.472147 -429.55516 
L 98.365353 -429.55516 
L 98.365353 -429.55516 
L 99.252351 -425.303349 
L 100.515626 -421.051539 
L 101.216609 -416.799729 
L 100.654064 -412.547919 
L 99.440938 -408.296108 
L 98.7605 -404.044298 
L 99.536815 -399.792488 
L 102.880052 -395.540678 
L 109.979229 -391.288868 
L 120.579514 -387.037057 
L 131.595687 -382.785247 
L 138.01375 -378.533437 
L 137.244613 -374.281627 
L 131.955224 -370.029816 
L 125.427476 -365.778006 
L 117.611001 -361.526196 
L 109.011657 -357.274386 
L 102.425682 -353.022576 
L 99.183472 -348.770765 
z
" id="m0649bf30f7" style="stroke:#3d3d3d;stroke-width:1.5;"/>
    </defs>
    <g clip-path="url(#p07ce7723ad)">
     <use style="fill:#3274a1;stroke:#3d3d3d;stroke-width:1.5;" x="0" xlink:href="#m0649bf30f7" y="720"/>
    </g>
   </g>
   <g id="PolyCollection_10">
    <defs>
     <path d="M 199.244964 -305.716111 
L 197.067536 -305.716111 
L 194.982941 -309.523753 
L 191.298938 -313.331395 
L 186.901205 -317.139038 
L 183.332058 -320.94668 
L 180.674768 -324.754323 
L 176.994523 -328.561965 
L 170.835061 -332.369607 
L 163.56476 -336.17725 
L 158.523742 -339.984892 
L 158.06125 -343.792535 
L 161.801223 -347.600177 
L 167.762348 -351.407819 
L 174.355629 -355.215462 
L 180.779838 -359.023104 
L 186.463692 -362.830747 
L 191.028547 -366.638389 
L 194.368016 -370.446031 
L 196.497197 -374.253674 
L 197.588399 -378.061316 
L 198.724101 -378.061316 
L 198.724101 -378.061316 
L 199.815303 -374.253674 
L 201.944484 -370.446031 
L 205.283953 -366.638389 
L 209.848808 -362.830747 
L 215.532662 -359.023104 
L 221.956871 -355.215462 
L 228.550152 -351.407819 
L 234.511277 -347.600177 
L 238.25125 -343.792535 
L 237.788758 -339.984892 
L 232.74774 -336.17725 
L 225.477439 -332.369607 
L 219.317977 -328.561965 
L 215.637732 -324.754323 
L 212.980442 -320.94668 
L 209.411295 -317.139038 
L 205.013562 -313.331395 
L 201.329559 -309.523753 
L 199.244964 -305.716111 
z
" id="m2737fa739c" style="stroke:#3d3d3d;stroke-width:1.5;"/>
    </defs>
    <g clip-path="url(#p07ce7723ad)">
     <use style="fill:#e1812c;stroke:#3d3d3d;stroke-width:1.5;" x="0" xlink:href="#m2737fa739c" y="720"/>
    </g>
   </g>
   <g id="PolyCollection_11">
    <defs>
     <path d="M 298.941067 -286.318182 
L 297.846433 -286.318182 
L 296.865021 -290.561812 
L 295.142609 -294.805442 
L 293.036108 -299.049072 
L 291.27311 -303.292702 
L 290.052175 -307.536332 
L 288.550067 -311.779961 
L 285.933157 -316.023591 
L 282.577235 -320.267221 
L 279.314488 -324.510851 
L 275.660866 -328.754481 
L 270.244499 -332.998111 
L 263.404947 -337.241741 
L 258.29875 -341.485371 
L 258.738516 -345.729001 
L 265.85051 -349.972631 
L 276.804881 -354.216261 
L 287.043146 -358.459891 
L 293.736374 -362.703521 
L 296.9199 -366.947151 
L 299.8676 -366.947151 
L 299.8676 -366.947151 
L 303.051126 -362.703521 
L 309.744354 -358.459891 
L 319.982619 -354.216261 
L 330.93699 -349.972631 
L 338.048984 -345.729001 
L 338.48875 -341.485371 
L 333.382553 -337.241741 
L 326.543001 -332.998111 
L 321.126634 -328.754481 
L 317.473012 -324.510851 
L 314.210265 -320.267221 
L 310.854343 -316.023591 
L 308.237433 -311.779961 
L 306.735325 -307.536332 
L 305.51439 -303.292702 
L 303.751392 -299.049072 
L 301.644891 -294.805442 
L 299.922479 -290.561812 
L 298.941067 -286.318182 
z
" id="ma28f005df1" style="stroke:#3d3d3d;stroke-width:1.5;"/>
    </defs>
    <g clip-path="url(#p07ce7723ad)">
     <use style="fill:#3a923a;stroke:#3d3d3d;stroke-width:1.5;" x="0" xlink:href="#ma28f005df1" y="720"/>
    </g>
   </g>
   <g id="PolyCollection_12">
    <defs>
     <path d="M 399.115316 -286.336483 
L 398.147184 -286.336483 
L 397.15519 -291.125927 
L 395.25577 -295.91537 
L 392.609653 -300.704813 
L 389.900676 -305.494257 
L 387.919553 -310.2837 
L 386.82343 -315.073144 
L 385.644042 -319.862587 
L 382.638563 -324.65203 
L 376.185981 -329.441474 
L 366.66435 -334.230917 
L 358.691222 -339.02036 
L 358.53625 -343.809804 
L 366.982024 -348.599247 
L 378.216796 -353.388691 
L 386.833712 -358.178134 
L 392.035055 -362.967577 
L 395.201613 -367.757021 
L 397.150185 -372.546464 
L 398.144543 -377.335907 
L 399.117957 -377.335907 
L 399.117957 -377.335907 
L 400.112315 -372.546464 
L 402.060887 -367.757021 
L 405.227445 -362.967577 
L 410.428788 -358.178134 
L 419.045704 -353.388691 
L 430.280476 -348.599247 
L 438.72625 -343.809804 
L 438.571278 -339.02036 
L 430.59815 -334.230917 
L 421.076519 -329.441474 
L 414.623937 -324.65203 
L 411.618458 -319.862587 
L 410.43907 -315.073144 
L 409.342947 -310.2837 
L 407.361824 -305.494257 
L 404.652847 -300.704813 
L 402.00673 -295.91537 
L 400.10731 -291.125927 
L 399.115316 -286.336483 
z
" id="mca4b2e0fec" style="stroke:#3d3d3d;stroke-width:1.5;"/>
    </defs>
    <g clip-path="url(#p07ce7723ad)">
     <use style="fill:#c03d3e;stroke:#3d3d3d;stroke-width:1.5;" x="0" xlink:href="#mca4b2e0fec" y="720"/>
    </g>
   </g>
   <g id="PolyCollection_13">
    <defs>
     <path d="M 499.700872 -292.658641 
L 498.036628 -292.658641 
L 496.571539 -296.582748 
L 493.899991 -300.506856 
L 490.297534 -304.430964 
L 486.744928 -308.355071 
L 484.181241 -312.279179 
L 482.64093 -316.203287 
L 481.325501 -320.127394 
L 479.344914 -324.051502 
L 476.01269 -327.97561 
L 470.895141 -331.899718 
L 464.632485 -335.823825 
L 459.610166 -339.747933 
L 458.77375 -343.672041 
L 463.423885 -347.596148 
L 472.225883 -351.520256 
L 482.121107 -355.444364 
L 490.220105 -359.368472 
L 495.262796 -363.292579 
L 497.673041 -367.216687 
L 500.064459 -367.216687 
L 500.064459 -367.216687 
L 502.474704 -363.292579 
L 507.517395 -359.368472 
L 515.616393 -355.444364 
L 525.511617 -351.520256 
L 534.313615 -347.596148 
L 538.96375 -343.672041 
L 538.127334 -339.747933 
L 533.105015 -335.823825 
L 526.842359 -331.899718 
L 521.72481 -327.97561 
L 518.392586 -324.051502 
L 516.411999 -320.127394 
L 515.09657 -316.203287 
L 513.556259 -312.279179 
L 510.992572 -308.355071 
L 507.439966 -304.430964 
L 503.837509 -300.506856 
L 501.165961 -296.582748 
L 499.700872 -292.658641 
z
" id="m15ed7fe377" style="stroke:#3d3d3d;stroke-width:1.5;"/>
    </defs>
    <g clip-path="url(#p07ce7723ad)">
     <use style="fill:#9372b2;stroke:#3d3d3d;stroke-width:1.5;" x="0" xlink:href="#m15ed7fe377" y="720"/>
    </g>
   </g>
   <g id="PolyCollection_14">
    <defs>
     <path d="M 600.18917 -306.017904 
L 598.02333 -306.017904 
L 595.98724 -310.881612 
L 592.600545 -315.745321 
L 589.18668 -320.60903 
L 587.631547 -325.472739 
L 587.65032 -330.336448 
L 586.227474 -335.200156 
L 581.007991 -340.063865 
L 573.172818 -344.927574 
L 565.879962 -349.791283 
L 560.984513 -354.654992 
L 559.01125 -359.518701 
L 561.182037 -364.382409 
L 568.320821 -369.246118 
L 578.165571 -374.109827 
L 586.824035 -378.973536 
L 592.491572 -383.837245 
L 595.780821 -388.700953 
L 597.652226 -393.564662 
L 598.600979 -398.428371 
L 599.611521 -398.428371 
L 599.611521 -398.428371 
L 600.560274 -393.564662 
L 602.431679 -388.700953 
L 605.720928 -383.837245 
L 611.388465 -378.973536 
L 620.046929 -374.109827 
L 629.891679 -369.246118 
L 637.030463 -364.382409 
L 639.20125 -359.518701 
L 637.227987 -354.654992 
L 632.332538 -349.791283 
L 625.039682 -344.927574 
L 617.204509 -340.063865 
L 611.985026 -335.200156 
L 610.56218 -330.336448 
L 610.580953 -325.472739 
L 609.02582 -320.60903 
L 605.611955 -315.745321 
L 602.22526 -310.881612 
L 600.18917 -306.017904 
z
" id="m64a9279635" style="stroke:#3d3d3d;stroke-width:1.5;"/>
    </defs>
    <g clip-path="url(#p07ce7723ad)">
     <use style="fill:#845b53;stroke:#3d3d3d;stroke-width:1.5;" x="0" xlink:href="#m64a9279635" y="720"/>
    </g>
   </g>
   <g id="PolyCollection_15">
    <defs>
     <path d="M 700.640678 -323.553237 
L 698.046822 -323.553237 
L 695.946587 -328.638287 
L 692.451923 -333.723336 
L 688.290904 -338.808386 
L 684.676376 -343.893436 
L 681.821951 -348.978485 
L 678.574857 -354.063535 
L 674.133233 -359.148585 
L 669.279805 -364.233634 
L 665.208721 -369.318684 
L 662.115756 -374.403734 
L 659.859626 -379.488784 
L 659.24875 -384.573833 
L 661.602282 -389.658883 
L 667.255249 -394.743933 
L 675.134378 -399.828982 
L 683.477055 -404.914032 
L 690.573967 -409.999082 
L 695.383801 -415.084131 
L 697.920971 -420.169181 
L 700.766529 -420.169181 
L 700.766529 -420.169181 
L 703.303699 -415.084131 
L 708.113533 -409.999082 
L 715.210445 -404.914032 
L 723.553122 -399.828982 
L 731.432251 -394.743933 
L 737.085218 -389.658883 
L 739.43875 -384.573833 
L 738.827874 -379.488784 
L 736.571744 -374.403734 
L 733.478779 -369.318684 
L 729.407695 -364.233634 
L 724.554267 -359.148585 
L 720.112643 -354.063535 
L 716.865549 -348.978485 
L 714.011124 -343.893436 
L 710.396596 -338.808386 
L 706.235577 -333.723336 
L 702.740913 -328.638287 
L 700.640678 -323.553237 
z
" id="m857ee07f7e" style="stroke:#3d3d3d;stroke-width:1.5;"/>
    </defs>
    <g clip-path="url(#p07ce7723ad)">
     <use style="fill:#d684bd;stroke:#3d3d3d;stroke-width:1.5;" x="0" xlink:href="#m857ee07f7e" y="720"/>
    </g>
   </g>
   <g id="PolyCollection_16">
    <defs>
     <path d="M 800.589363 -342.275794 
L 798.573137 -342.275794 
L 796.971717 -347.876111 
L 794.332204 -353.476428 
L 791.15171 -359.076745 
L 788.253634 -364.677062 
L 785.966412 -370.277379 
L 783.954309 -375.877696 
L 781.790089 -381.478013 
L 779.13544 -387.07833 
L 775.453115 -392.678647 
L 770.314142 -398.278964 
L 764.405303 -403.879282 
L 759.931058 -409.479599 
L 759.48625 -415.079916 
L 764.243138 -420.680233 
L 773.016823 -426.28055 
L 782.895112 -431.880867 
L 790.996407 -437.481184 
L 796.027459 -443.081501 
L 798.414642 -448.681818 
L 800.747858 -448.681818 
L 800.747858 -448.681818 
L 803.135041 -443.081501 
L 808.166093 -437.481184 
L 816.267388 -431.880867 
L 826.145677 -426.28055 
L 834.919362 -420.680233 
L 839.67625 -415.079916 
L 839.231442 -409.479599 
L 834.757197 -403.879282 
L 828.848358 -398.278964 
L 823.709385 -392.678647 
L 820.02706 -387.07833 
L 817.372411 -381.478013 
L 815.208191 -375.877696 
L 813.196088 -370.277379 
L 810.908866 -364.677062 
L 808.01079 -359.076745 
L 804.830296 -353.476428 
L 802.190783 -347.876111 
L 800.589363 -342.275794 
z
" id="m6be0a40862" style="stroke:#3d3d3d;stroke-width:1.5;"/>
    </defs>
    <g clip-path="url(#p07ce7723ad)">
     <use style="fill:#7f7f7f;stroke:#3d3d3d;stroke-width:1.5;" x="0" xlink:href="#m6be0a40862" y="720"/>
    </g>
   </g>
   <g id="matplotlib.axis_3">
    <g id="xtick_9">
     <g id="line2d_32">
      <g>
       <use style="stroke:#000000;stroke-width:0.8;" x="97.91875" xlink:href="#m31993213e9" y="441.8"/>
      </g>
     </g>
     <g id="text_19">
      <text style="font-family:DejaVu Sans;font-size:10px;font-style:normal;font-weight:normal;text-anchor:middle;" transform="rotate(-0, 97.91875, 456.398438)" x="97.91875" y="456.398438">8</text>
     </g>
    </g>
    <g id="xtick_10">
     <g id="line2d_33">
      <g>
       <use style="stroke:#000000;stroke-width:0.8;" x="198.15625" xlink:href="#m31993213e9" y="441.8"/>
      </g>
     </g>
     <g id="text_20">
      <text style="font-family:DejaVu Sans;font-size:10px;font-style:normal;font-weight:normal;text-anchor:middle;" transform="rotate(-0, 198.15625, 456.398438)" x="198.15625" y="456.398438">9</text>
     </g>
    </g>
    <g id="xtick_11">
     <g id="line2d_34">
      <g>
       <use style="stroke:#000000;stroke-width:0.8;" x="298.39375" xlink:href="#m31993213e9" y="441.8"/>
      </g>
     </g>
     <g id="text_21">
      <text style="font-family:DejaVu Sans;font-size:10px;font-style:normal;font-weight:normal;text-anchor:middle;" transform="rotate(-0, 298.39375, 456.398438)" x="298.39375" y="456.398438">10</text>
     </g>
    </g>
    <g id="xtick_12">
     <g id="line2d_35">
      <g>
       <use style="stroke:#000000;stroke-width:0.8;" x="398.63125" xlink:href="#m31993213e9" y="441.8"/>
      </g>
     </g>
     <g id="text_22">
      <text style="font-family:DejaVu Sans;font-size:10px;font-style:normal;font-weight:normal;text-anchor:middle;" transform="rotate(-0, 398.63125, 456.398438)" x="398.63125" y="456.398438">11</text>
     </g>
    </g>
    <g id="xtick_13">
     <g id="line2d_36">
      <g>
       <use style="stroke:#000000;stroke-width:0.8;" x="498.86875" xlink:href="#m31993213e9" y="441.8"/>
      </g>
     </g>
     <g id="text_23">
      <text style="font-family:DejaVu Sans;font-size:10px;font-style:normal;font-weight:normal;text-anchor:middle;" transform="rotate(-0, 498.86875, 456.398438)" x="498.86875" y="456.398438">12</text>
     </g>
    </g>
    <g id="xtick_14">
     <g id="line2d_37">
      <g>
       <use style="stroke:#000000;stroke-width:0.8;" x="599.10625" xlink:href="#m31993213e9" y="441.8"/>
      </g>
     </g>
     <g id="text_24">
      <text style="font-family:DejaVu Sans;font-size:10px;font-style:normal;font-weight:normal;text-anchor:middle;" transform="rotate(-0, 599.10625, 456.398438)" x="599.10625" y="456.398438">13</text>
     </g>
    </g>
    <g id="xtick_15">
     <g id="line2d_38">
      <g>
       <use style="stroke:#000000;stroke-width:0.8;" x="699.34375" xlink:href="#m31993213e9" y="441.8"/>
      </g>
     </g>
     <g id="text_25">
      <text style="font-family:DejaVu Sans;font-size:10px;font-style:normal;font-weight:normal;text-anchor:middle;" transform="rotate(-0, 699.34375, 456.398438)" x="699.34375" y="456.398438">14</text>
     </g>
    </g>
    <g id="xtick_16">
     <g id="line2d_39">
      <g>
       <use style="stroke:#000000;stroke-width:0.8;" x="799.58125" xlink:href="#m31993213e9" y="441.8"/>
      </g>
     </g>
     <g id="text_26">
      <text style="font-family:DejaVu Sans;font-size:10px;font-style:normal;font-weight:normal;text-anchor:middle;" transform="rotate(-0, 799.58125, 456.398438)" x="799.58125" y="456.398438">15</text>
     </g>
    </g>
    <g id="text_27">
     <text style="font-family:DejaVu Sans;font-size:10px;font-style:normal;font-weight:normal;text-anchor:middle;" transform="rotate(-0, 448.75, 470.076563)" x="448.75" y="470.076563">Hour (0 is Midnight)</text>
    </g>
   </g>
   <g id="matplotlib.axis_4">
    <g id="ytick_8">
     <g id="line2d_40">
      <g>
       <use style="stroke:#000000;stroke-width:0.8;" x="47.8" xlink:href="#m883ebc6f1e" y="425.606352"/>
      </g>
     </g>
     <g id="text_28">
      <text style="font-family:DejaVu Sans;font-size:10px;font-style:normal;font-weight:normal;text-anchor:end;" transform="rotate(-0, 40.8, 429.40557)" x="40.8" y="429.40557">2.9</text>
     </g>
    </g>
    <g id="ytick_9">
     <g id="line2d_41">
      <g>
       <use style="stroke:#000000;stroke-width:0.8;" x="47.8" xlink:href="#m883ebc6f1e" y="390.124335"/>
      </g>
     </g>
     <g id="text_29">
      <text style="font-family:DejaVu Sans;font-size:10px;font-style:normal;font-weight:normal;text-anchor:end;" transform="rotate(-0, 40.8, 393.923554)" x="40.8" y="393.923554">3.0</text>
     </g>
    </g>
    <g id="ytick_10">
     <g id="line2d_42">
      <g>
       <use style="stroke:#000000;stroke-width:0.8;" x="47.8" xlink:href="#m883ebc6f1e" y="354.642319"/>
      </g>
     </g>
     <g id="text_30">
      <text style="font-family:DejaVu Sans;font-size:10px;font-style:normal;font-weight:normal;text-anchor:end;" transform="rotate(-0, 40.8, 358.441537)" x="40.8" y="358.441537">3.1</text>
     </g>
    </g>
    <g id="ytick_11">
     <g id="line2d_43">
      <g>
       <use style="stroke:#000000;stroke-width:0.8;" x="47.8" xlink:href="#m883ebc6f1e" y="319.160302"/>
      </g>
     </g>
     <g id="text_31">
      <text style="font-family:DejaVu Sans;font-size:10px;font-style:normal;font-weight:normal;text-anchor:end;" transform="rotate(-0, 40.8, 322.959521)" x="40.8" y="322.959521">3.2</text>
     </g>
    </g>
    <g id="ytick_12">
     <g id="line2d_44">
      <g>
       <use style="stroke:#000000;stroke-width:0.8;" x="47.8" xlink:href="#m883ebc6f1e" y="283.678285"/>
      </g>
     </g>
     <g id="text_32">
      <text style="font-family:DejaVu Sans;font-size:10px;font-style:normal;font-weight:normal;text-anchor:end;" transform="rotate(-0, 40.8, 287.477504)" x="40.8" y="287.477504">3.3</text>
     </g>
    </g>
    <g id="text_33">
     <text style="font-family:DejaVu Sans;font-size:10px;font-style:normal;font-weight:normal;text-anchor:middle;" transform="rotate(-90, 18.817187, 352.5)" x="18.817187" y="352.5">Log10 Hourly Pickup Count</text>
    </g>
   </g>
   <g id="line2d_45">
    <path clip-path="url(#p07ce7723ad)" d="M 97.91875 358.224189 
L 97.91875 331.703118 
" style="fill:none;stroke:#3d3d3d;stroke-linecap:square;stroke-width:1.5;"/>
   </g>
   <g id="line2d_46">
    <path clip-path="url(#p07ce7723ad)" d="M 97.91875 351.963735 
L 97.91875 338.605722 
" style="fill:none;stroke:#3d3d3d;stroke-linecap:square;stroke-width:4.5;"/>
   </g>
   <g id="line2d_47">
    <path clip-path="url(#p07ce7723ad)" d="M 198.15625 400.976186 
L 198.15625 355.246387 
" style="fill:none;stroke:#3d3d3d;stroke-linecap:square;stroke-width:1.5;"/>
   </g>
   <g id="line2d_48">
    <path clip-path="url(#p07ce7723ad)" d="M 198.15625 384.823198 
L 198.15625 370.610694 
" style="fill:none;stroke:#3d3d3d;stroke-linecap:square;stroke-width:4.5;"/>
   </g>
   <g id="line2d_49">
    <path clip-path="url(#p07ce7723ad)" d="M 298.39375 418.281089 
L 298.39375 368.453579 
" style="fill:none;stroke:#3d3d3d;stroke-linecap:square;stroke-width:1.5;"/>
   </g>
   <g id="line2d_50">
    <path clip-path="url(#p07ce7723ad)" d="M 298.39375 395.774125 
L 298.39375 374.181716 
" style="fill:none;stroke:#3d3d3d;stroke-linecap:square;stroke-width:4.5;"/>
   </g>
   <g id="line2d_51">
    <path clip-path="url(#p07ce7723ad)" d="M 398.63125 409.298567 
L 398.63125 358.600493 
" style="fill:none;stroke:#3d3d3d;stroke-linecap:square;stroke-width:1.5;"/>
   </g>
   <g id="line2d_52">
    <path clip-path="url(#p07ce7723ad)" d="M 398.63125 392.609815 
L 398.63125 376.844659 
" style="fill:none;stroke:#3d3d3d;stroke-linecap:square;stroke-width:4.5;"/>
   </g>
   <g id="line2d_53">
    <path clip-path="url(#p07ce7723ad)" d="M 498.86875 412.47229 
L 498.86875 367.652382 
" style="fill:none;stroke:#3d3d3d;stroke-linecap:square;stroke-width:1.5;"/>
   </g>
   <g id="line2d_54">
    <path clip-path="url(#p07ce7723ad)" d="M 498.86875 394.342139 
L 498.86875 375.297352 
" style="fill:none;stroke:#3d3d3d;stroke-linecap:square;stroke-width:4.5;"/>
   </g>
   <g id="line2d_55">
    <path clip-path="url(#p07ce7723ad)" d="M 599.10625 397.058269 
L 599.10625 338.495456 
" style="fill:none;stroke:#3d3d3d;stroke-linecap:square;stroke-width:1.5;"/>
   </g>
   <g id="line2d_56">
    <path clip-path="url(#p07ce7723ad)" d="M 599.10625 371.564012 
L 599.10625 354.144381 
" style="fill:none;stroke:#3d3d3d;stroke-linecap:square;stroke-width:4.5;"/>
   </g>
   <g id="line2d_57">
    <path clip-path="url(#p07ce7723ad)" d="M 699.34375 377.127664 
L 699.34375 319.149918 
" style="fill:none;stroke:#3d3d3d;stroke-linecap:square;stroke-width:1.5;"/>
   </g>
   <g id="line2d_58">
    <path clip-path="url(#p07ce7723ad)" d="M 699.34375 355.000815 
L 699.34375 332.231389 
" style="fill:none;stroke:#3d3d3d;stroke-linecap:square;stroke-width:4.5;"/>
   </g>
   <g id="line2d_59">
    <path clip-path="url(#p07ce7723ad)" d="M 799.58125 356.604074 
L 799.58125 292.438315 
" style="fill:none;stroke:#3d3d3d;stroke-linecap:square;stroke-width:1.5;"/>
   </g>
   <g id="line2d_60">
    <path clip-path="url(#p07ce7723ad)" d="M 799.58125 329.192326 
L 799.58125 303.01149 
" style="fill:none;stroke:#3d3d3d;stroke-linecap:square;stroke-width:4.5;"/>
   </g>
   <g id="patch_8">
    <path d="M 47.8 441.8 
L 47.8 263.2 
" style="fill:none;stroke:#000000;stroke-linecap:square;stroke-linejoin:miter;stroke-width:0.8;"/>
   </g>
   <g id="patch_9">
    <path d="M 849.7 441.8 
L 849.7 263.2 
" style="fill:none;stroke:#000000;stroke-linecap:square;stroke-linejoin:miter;stroke-width:0.8;"/>
   </g>
   <g id="patch_10">
    <path d="M 47.8 441.8 
L 849.7 441.8 
" style="fill:none;stroke:#000000;stroke-linecap:square;stroke-linejoin:miter;stroke-width:0.8;"/>
   </g>
   <g id="patch_11">
    <path d="M 47.8 263.2 
L 849.7 263.2 
" style="fill:none;stroke:#000000;stroke-linecap:square;stroke-linejoin:miter;stroke-width:0.8;"/>
   </g>
   <g id="PathCollection_9">
    <g clip-path="url(#p07ce7723ad)">
     <use style="fill:#ffffff;stroke:#3d3d3d;" x="97.91875" xlink:href="#m89b22772f8" y="343.993474"/>
    </g>
   </g>
   <g id="PathCollection_10">
    <g clip-path="url(#p07ce7723ad)">
     <use style="fill:#ffffff;stroke:#3d3d3d;" x="198.15625" xlink:href="#m89b22772f8" y="378.264913"/>
    </g>
   </g>
   <g id="PathCollection_11">
    <g clip-path="url(#p07ce7723ad)">
     <use style="fill:#ffffff;stroke:#3d3d3d;" x="298.39375" xlink:href="#m89b22772f8" y="380.709798"/>
    </g>
   </g>
   <g id="PathCollection_12">
    <g clip-path="url(#p07ce7723ad)">
     <use style="fill:#ffffff;stroke:#3d3d3d;" x="398.63125" xlink:href="#m89b22772f8" y="378.8367"/>
    </g>
   </g>
   <g id="PathCollection_13">
    <g clip-path="url(#p07ce7723ad)">
     <use style="fill:#ffffff;stroke:#3d3d3d;" x="498.86875" xlink:href="#m89b22772f8" y="381.290746"/>
    </g>
   </g>
   <g id="PathCollection_14">
    <g clip-path="url(#p07ce7723ad)">
     <use style="fill:#ffffff;stroke:#3d3d3d;" x="599.10625" xlink:href="#m89b22772f8" y="363.31875"/>
    </g>
   </g>
   <g id="PathCollection_15">
    <g clip-path="url(#p07ce7723ad)">
     <use style="fill:#ffffff;stroke:#3d3d3d;" x="699.34375" xlink:href="#m89b22772f8" y="343.082332"/>
    </g>
   </g>
   <g id="PathCollection_16">
    <g clip-path="url(#p07ce7723ad)">
     <use style="fill:#ffffff;stroke:#3d3d3d;" x="799.58125" xlink:href="#m89b22772f8" y="312.863282"/>
    </g>
   </g>
   <g id="text_34">
    <text style="font-family:DejaVu Sans;font-size:12px;font-style:normal;font-weight:normal;text-anchor:middle;" transform="rotate(-0, 448.75, 257.2)" x="448.75" y="257.2">Weekday Hourly Pickup Distributions for Close to Noon</text>
   </g>
  </g>
  <g id="axes_3">
   <g id="patch_12">
    <path d="M 47.8 678.2 
L 849.7 678.2 
L 849.7 499.6 
L 47.8 499.6 
z
" style="fill:#ffffff;"/>
   </g>
   <g id="PolyCollection_17">
    <defs>
     <path d="M 99.113524 -141.238276 
L 96.723976 -141.238276 
L 94.778207 -143.627531 
L 91.634146 -146.016786 
L 88.270779 -148.40604 
L 86.255259 -150.795295 
L 85.883865 -153.18455 
L 85.285721 -155.573805 
L 82.234692 -157.963059 
L 76.487426 -160.352314 
L 69.651182 -162.741569 
L 63.4626 -165.130824 
L 59.1638 -167.520079 
L 57.82375 -169.909333 
L 60.037771 -172.298588 
L 65.465008 -174.687843 
L 73.059622 -177.077098 
L 81.363271 -179.466352 
L 88.673906 -181.855607 
L 93.732943 -184.244862 
L 96.420027 -186.634117 
L 99.417473 -186.634117 
L 99.417473 -186.634117 
L 102.104557 -184.244862 
L 107.163594 -181.855607 
L 114.474229 -179.466352 
L 122.777878 -177.077098 
L 130.372492 -174.687843 
L 135.799729 -172.298588 
L 138.01375 -169.909333 
L 136.6737 -167.520079 
L 132.3749 -165.130824 
L 126.186318 -162.741569 
L 119.350074 -160.352314 
L 113.602808 -157.963059 
L 110.551779 -155.573805 
L 109.953635 -153.18455 
L 109.582241 -150.795295 
L 107.566721 -148.40604 
L 104.203354 -146.016786 
L 101.059293 -143.627531 
L 99.113524 -141.238276 
z
" id="mbb98e9d9a5" style="stroke:#3d3d3d;stroke-width:1.5;"/>
    </defs>
    <g clip-path="url(#pdc8ec8cf13)">
     <use style="fill:#3274a1;stroke:#3d3d3d;stroke-width:1.5;" x="0" xlink:href="#mbb98e9d9a5" y="720"/>
    </g>
   </g>
   <g id="PolyCollection_18">
    <defs>
     <path d="M 198.853366 -142.060053 
L 197.459134 -142.060053 
L 196.130268 -144.933666 
L 193.561128 -147.807278 
L 189.840942 -150.68089 
L 185.805492 -153.554503 
L 182.442538 -156.428115 
L 179.698809 -159.301727 
L 176.068114 -162.175339 
L 170.308751 -165.048952 
L 163.698903 -167.922564 
L 159.164635 -170.796176 
L 158.06125 -173.669789 
L 159.542801 -176.543401 
L 162.775198 -179.417013 
L 167.853679 -182.290625 
L 174.763308 -185.164238 
L 182.549127 -188.03785 
L 189.534345 -190.911462 
L 194.357895 -193.785075 
L 196.858664 -196.658687 
L 199.453836 -196.658687 
L 199.453836 -196.658687 
L 201.954605 -193.785075 
L 206.778155 -190.911462 
L 213.763373 -188.03785 
L 221.549192 -185.164238 
L 228.458821 -182.290625 
L 233.537302 -179.417013 
L 236.769699 -176.543401 
L 238.25125 -173.669789 
L 237.147865 -170.796176 
L 232.613597 -167.922564 
L 226.003749 -165.048952 
L 220.244386 -162.175339 
L 216.613691 -159.301727 
L 213.869962 -156.428115 
L 210.507008 -153.554503 
L 206.471558 -150.68089 
L 202.751372 -147.807278 
L 200.182232 -144.933666 
L 198.853366 -142.060053 
z
" id="m6472f93244" style="stroke:#3d3d3d;stroke-width:1.5;"/>
    </defs>
    <g clip-path="url(#pdc8ec8cf13)">
     <use style="fill:#e1812c;stroke:#3d3d3d;stroke-width:1.5;" x="0" xlink:href="#m6472f93244" y="720"/>
    </g>
   </g>
   <g id="PolyCollection_19">
    <defs>
     <path d="M 299.392407 -136.91373 
L 297.395093 -136.91373 
L 295.240505 -140.711449 
L 290.903062 -144.509167 
L 284.600152 -148.306886 
L 277.990475 -152.104605 
L 272.909511 -155.902324 
L 269.292908 -159.700042 
L 265.370786 -163.497761 
L 260.861488 -167.29548 
L 258.29875 -171.093199 
L 260.212067 -174.890917 
L 266.650572 -178.688636 
L 275.425541 -182.486355 
L 283.534085 -186.284074 
L 288.961093 -190.081793 
L 291.826692 -193.879511 
L 293.616669 -197.67723 
L 295.351452 -201.474949 
L 296.90174 -205.272668 
L 297.861149 -209.070386 
L 298.926351 -209.070386 
L 298.926351 -209.070386 
L 299.88576 -205.272668 
L 301.436048 -201.474949 
L 303.170831 -197.67723 
L 304.960808 -193.879511 
L 307.826407 -190.081793 
L 313.253415 -186.284074 
L 321.361959 -182.486355 
L 330.136928 -178.688636 
L 336.575433 -174.890917 
L 338.48875 -171.093199 
L 335.926012 -167.29548 
L 331.416714 -163.497761 
L 327.494592 -159.700042 
L 323.877989 -155.902324 
L 318.797025 -152.104605 
L 312.187348 -148.306886 
L 305.884438 -144.509167 
L 301.546995 -140.711449 
L 299.392407 -136.91373 
z
" id="mdfb5089a8a" style="stroke:#3d3d3d;stroke-width:1.5;"/>
    </defs>
    <g clip-path="url(#pdc8ec8cf13)">
     <use style="fill:#3a923a;stroke:#3d3d3d;stroke-width:1.5;" x="0" xlink:href="#mdfb5089a8a" y="720"/>
    </g>
   </g>
   <g id="PolyCollection_20">
    <defs>
     <path d="M 399.489911 -136.320646 
L 397.772589 -136.320646 
L 396.192212 -139.235347 
L 393.217939 -142.150047 
L 389.020454 -145.064748 
L 384.42732 -147.979448 
L 380.115718 -150.894148 
L 376.019148 -153.808849 
L 371.819718 -156.723549 
L 367.542419 -159.63825 
L 363.519447 -162.55295 
L 360.357424 -165.467651 
L 358.68164 -168.382351 
L 358.53625 -171.297051 
L 359.91496 -174.211752 
L 363.805936 -177.126452 
L 371.105066 -180.041153 
L 380.51424 -182.955853 
L 389.045775 -185.870553 
L 394.63436 -188.785254 
L 397.332048 -191.699954 
L 399.930452 -191.699954 
L 399.930452 -191.699954 
L 402.62814 -188.785254 
L 408.216725 -185.870553 
L 416.74826 -182.955853 
L 426.157434 -180.041153 
L 433.456564 -177.126452 
L 437.34754 -174.211752 
L 438.72625 -171.297051 
L 438.58086 -168.382351 
L 436.905076 -165.467651 
L 433.743053 -162.55295 
L 429.720081 -159.63825 
L 425.442782 -156.723549 
L 421.243352 -153.808849 
L 417.146782 -150.894148 
L 412.83518 -147.979448 
L 408.242046 -145.064748 
L 404.044561 -142.150047 
L 401.070288 -139.235347 
L 399.489911 -136.320646 
z
" id="m2d6d328a05" style="stroke:#3d3d3d;stroke-width:1.5;"/>
    </defs>
    <g clip-path="url(#pdc8ec8cf13)">
     <use style="fill:#c03d3e;stroke:#3d3d3d;stroke-width:1.5;" x="0" xlink:href="#m2d6d328a05" y="720"/>
    </g>
   </g>
   <g id="PolyCollection_21">
    <defs>
     <path d="M 500.092382 -133.78119 
L 497.645118 -133.78119 
L 495.408447 -136.98916 
L 491.242327 -140.197131 
L 485.533328 -143.405101 
L 479.766374 -146.613071 
L 475.238128 -149.821042 
L 471.877302 -153.029012 
L 468.907548 -156.236983 
L 466.046808 -159.444953 
L 463.327474 -162.652924 
L 460.708006 -165.860894 
L 458.77375 -169.068865 
L 458.967777 -172.276835 
L 462.451324 -175.484806 
L 469.125232 -178.692776 
L 477.635157 -181.900747 
L 485.948382 -185.108717 
L 492.32473 -188.316687 
L 496.164261 -191.524658 
L 497.971553 -194.732628 
L 499.765947 -194.732628 
L 499.765947 -194.732628 
L 501.573239 -191.524658 
L 505.41277 -188.316687 
L 511.789118 -185.108717 
L 520.102343 -181.900747 
L 528.612268 -178.692776 
L 535.286176 -175.484806 
L 538.769723 -172.276835 
L 538.96375 -169.068865 
L 537.029494 -165.860894 
L 534.410026 -162.652924 
L 531.690692 -159.444953 
L 528.829952 -156.236983 
L 525.860198 -153.029012 
L 522.499372 -149.821042 
L 517.971126 -146.613071 
L 512.204172 -143.405101 
L 506.495173 -140.197131 
L 502.329053 -136.98916 
L 500.092382 -133.78119 
z
" id="m4fcc00f389" style="stroke:#3d3d3d;stroke-width:1.5;"/>
    </defs>
    <g clip-path="url(#pdc8ec8cf13)">
     <use style="fill:#9372b2;stroke:#3d3d3d;stroke-width:1.5;" x="0" xlink:href="#m4fcc00f389" y="720"/>
    </g>
   </g>
   <g id="PolyCollection_22">
    <defs>
     <path d="M 599.954637 -119.545771 
L 598.257863 -119.545771 
L 596.61712 -123.82828 
L 593.596573 -128.110789 
L 589.804684 -132.393298 
L 586.881113 -136.675807 
L 585.974227 -140.958315 
L 586.099434 -145.240824 
L 584.629645 -149.523333 
L 579.669215 -153.805842 
L 571.800075 -158.088351 
L 563.774088 -162.370859 
L 559.01125 -166.653368 
L 559.803149 -170.935877 
L 565.812778 -175.218386 
L 574.396266 -179.500895 
L 582.776211 -183.783403 
L 589.523811 -188.065912 
L 594.265695 -192.348421 
L 597.09276 -196.63093 
L 598.443187 -200.913439 
L 599.769313 -200.913439 
L 599.769313 -200.913439 
L 601.11974 -196.63093 
L 603.946805 -192.348421 
L 608.688689 -188.065912 
L 615.436289 -183.783403 
L 623.816234 -179.500895 
L 632.399722 -175.218386 
L 638.409351 -170.935877 
L 639.20125 -166.653368 
L 634.438412 -162.370859 
L 626.412425 -158.088351 
L 618.543285 -153.805842 
L 613.582855 -149.523333 
L 612.113066 -145.240824 
L 612.238273 -140.958315 
L 611.331387 -136.675807 
L 608.407816 -132.393298 
L 604.615927 -128.110789 
L 601.59538 -123.82828 
L 599.954637 -119.545771 
z
" id="mfacc139bec" style="stroke:#3d3d3d;stroke-width:1.5;"/>
    </defs>
    <g clip-path="url(#pdc8ec8cf13)">
     <use style="fill:#845b53;stroke:#3d3d3d;stroke-width:1.5;" x="0" xlink:href="#mfacc139bec" y="720"/>
    </g>
   </g>
   <g id="PolyCollection_23">
    <defs>
     <path d="M 700.087609 -88.488061 
L 698.599891 -88.488061 
L 697.060309 -95.003522 
L 693.913675 -101.518983 
L 689.150682 -108.034444 
L 683.826086 -114.549905 
L 679.19054 -121.065365 
L 675.053529 -127.580826 
L 670.07037 -134.096287 
L 664.344503 -140.611748 
L 660.172161 -147.127209 
L 659.24875 -153.64267 
L 660.897339 -160.158131 
L 663.955143 -166.673592 
L 668.57853 -173.189053 
L 675.097544 -179.704514 
L 682.535082 -186.219975 
L 689.256967 -192.735435 
L 694.210944 -199.250896 
L 697.202076 -205.766357 
L 698.638099 -212.281818 
L 700.049401 -212.281818 
L 700.049401 -212.281818 
L 701.485424 -205.766357 
L 704.476556 -199.250896 
L 709.430533 -192.735435 
L 716.152418 -186.219975 
L 723.589956 -179.704514 
L 730.10897 -173.189053 
L 734.732357 -166.673592 
L 737.790161 -160.158131 
L 739.43875 -153.64267 
L 738.515339 -147.127209 
L 734.342997 -140.611748 
L 728.61713 -134.096287 
L 723.633971 -127.580826 
L 719.49696 -121.065365 
L 714.861414 -114.549905 
L 709.536818 -108.034444 
L 704.773825 -101.518983 
L 701.627191 -95.003522 
L 700.087609 -88.488061 
z
" id="mbbf087de99" style="stroke:#3d3d3d;stroke-width:1.5;"/>
    </defs>
    <g clip-path="url(#pdc8ec8cf13)">
     <use style="fill:#d684bd;stroke:#3d3d3d;stroke-width:1.5;" x="0" xlink:href="#mbbf087de99" y="720"/>
    </g>
   </g>
   <g id="PolyCollection_24">
    <defs>
     <path d="M 801.025418 -49.918182 
L 798.137082 -49.918182 
L 795.550203 -58.161592 
L 790.63107 -66.405002 
L 783.435626 -74.648411 
L 775.174335 -82.891821 
L 767.510102 -91.135231 
L 761.866024 -99.378641 
L 759.48625 -107.622051 
L 760.974642 -115.865461 
L 764.991835 -124.10887 
L 768.551423 -132.35228 
L 769.65089 -140.59569 
L 769.135019 -148.8391 
L 769.653985 -157.08251 
L 773.214081 -165.32592 
L 779.652668 -173.56933 
L 786.980587 -181.812739 
L 793.022916 -190.056149 
L 796.804473 -198.299559 
L 798.634197 -206.542969 
L 800.528303 -206.542969 
L 800.528303 -206.542969 
L 802.358027 -198.299559 
L 806.139584 -190.056149 
L 812.181913 -181.812739 
L 819.509832 -173.56933 
L 825.948419 -165.32592 
L 829.508515 -157.08251 
L 830.027481 -148.8391 
L 829.51161 -140.59569 
L 830.611077 -132.35228 
L 834.170665 -124.10887 
L 838.187858 -115.865461 
L 839.67625 -107.622051 
L 837.296476 -99.378641 
L 831.652398 -91.135231 
L 823.988165 -82.891821 
L 815.726874 -74.648411 
L 808.53143 -66.405002 
L 803.612297 -58.161592 
L 801.025418 -49.918182 
z
" id="m7587d0445b" style="stroke:#3d3d3d;stroke-width:1.5;"/>
    </defs>
    <g clip-path="url(#pdc8ec8cf13)">
     <use style="fill:#7f7f7f;stroke:#3d3d3d;stroke-width:1.5;" x="0" xlink:href="#m7587d0445b" y="720"/>
    </g>
   </g>
   <g id="matplotlib.axis_5">
    <g id="xtick_17">
     <g id="line2d_61">
      <g>
       <use style="stroke:#000000;stroke-width:0.8;" x="97.91875" xlink:href="#m31993213e9" y="678.2"/>
      </g>
     </g>
     <g id="text_35">
      <text style="font-family:DejaVu Sans;font-size:10px;font-style:normal;font-weight:normal;text-anchor:middle;" transform="rotate(-0, 97.91875, 692.798437)" x="97.91875" y="692.798437">16</text>
     </g>
    </g>
    <g id="xtick_18">
     <g id="line2d_62">
      <g>
       <use style="stroke:#000000;stroke-width:0.8;" x="198.15625" xlink:href="#m31993213e9" y="678.2"/>
      </g>
     </g>
     <g id="text_36">
      <text style="font-family:DejaVu Sans;font-size:10px;font-style:normal;font-weight:normal;text-anchor:middle;" transform="rotate(-0, 198.15625, 692.798437)" x="198.15625" y="692.798437">17</text>
     </g>
    </g>
    <g id="xtick_19">
     <g id="line2d_63">
      <g>
       <use style="stroke:#000000;stroke-width:0.8;" x="298.39375" xlink:href="#m31993213e9" y="678.2"/>
      </g>
     </g>
     <g id="text_37">
      <text style="font-family:DejaVu Sans;font-size:10px;font-style:normal;font-weight:normal;text-anchor:middle;" transform="rotate(-0, 298.39375, 692.798437)" x="298.39375" y="692.798437">18</text>
     </g>
    </g>
    <g id="xtick_20">
     <g id="line2d_64">
      <g>
       <use style="stroke:#000000;stroke-width:0.8;" x="398.63125" xlink:href="#m31993213e9" y="678.2"/>
      </g>
     </g>
     <g id="text_38">
      <text style="font-family:DejaVu Sans;font-size:10px;font-style:normal;font-weight:normal;text-anchor:middle;" transform="rotate(-0, 398.63125, 692.798437)" x="398.63125" y="692.798437">19</text>
     </g>
    </g>
    <g id="xtick_21">
     <g id="line2d_65">
      <g>
       <use style="stroke:#000000;stroke-width:0.8;" x="498.86875" xlink:href="#m31993213e9" y="678.2"/>
      </g>
     </g>
     <g id="text_39">
      <text style="font-family:DejaVu Sans;font-size:10px;font-style:normal;font-weight:normal;text-anchor:middle;" transform="rotate(-0, 498.86875, 692.798437)" x="498.86875" y="692.798437">20</text>
     </g>
    </g>
    <g id="xtick_22">
     <g id="line2d_66">
      <g>
       <use style="stroke:#000000;stroke-width:0.8;" x="599.10625" xlink:href="#m31993213e9" y="678.2"/>
      </g>
     </g>
     <g id="text_40">
      <text style="font-family:DejaVu Sans;font-size:10px;font-style:normal;font-weight:normal;text-anchor:middle;" transform="rotate(-0, 599.10625, 692.798437)" x="599.10625" y="692.798437">21</text>
     </g>
    </g>
    <g id="xtick_23">
     <g id="line2d_67">
      <g>
       <use style="stroke:#000000;stroke-width:0.8;" x="699.34375" xlink:href="#m31993213e9" y="678.2"/>
      </g>
     </g>
     <g id="text_41">
      <text style="font-family:DejaVu Sans;font-size:10px;font-style:normal;font-weight:normal;text-anchor:middle;" transform="rotate(-0, 699.34375, 692.798437)" x="699.34375" y="692.798437">22</text>
     </g>
    </g>
    <g id="xtick_24">
     <g id="line2d_68">
      <g>
       <use style="stroke:#000000;stroke-width:0.8;" x="799.58125" xlink:href="#m31993213e9" y="678.2"/>
      </g>
     </g>
     <g id="text_42">
      <text style="font-family:DejaVu Sans;font-size:10px;font-style:normal;font-weight:normal;text-anchor:middle;" transform="rotate(-0, 799.58125, 692.798437)" x="799.58125" y="692.798437">23</text>
     </g>
    </g>
    <g id="text_43">
     <text style="font-family:DejaVu Sans;font-size:10px;font-style:normal;font-weight:normal;text-anchor:middle;" transform="rotate(-0, 448.75, 706.476562)" x="448.75" y="706.476562">Hour (0 is Midnight)</text>
    </g>
   </g>
   <g id="matplotlib.axis_6">
    <g id="ytick_13">
     <g id="line2d_69">
      <g>
       <use style="stroke:#000000;stroke-width:0.8;" x="47.8" xlink:href="#m883ebc6f1e" y="653.365788"/>
      </g>
     </g>
     <g id="text_44">
      <text style="font-family:DejaVu Sans;font-size:10px;font-style:normal;font-weight:normal;text-anchor:end;" transform="rotate(-0, 40.8, 657.165006)" x="40.8" y="657.165006">2.6</text>
     </g>
    </g>
    <g id="ytick_14">
     <g id="line2d_70">
      <g>
       <use style="stroke:#000000;stroke-width:0.8;" x="47.8" xlink:href="#m883ebc6f1e" y="622.935836"/>
      </g>
     </g>
     <g id="text_45">
      <text style="font-family:DejaVu Sans;font-size:10px;font-style:normal;font-weight:normal;text-anchor:end;" transform="rotate(-0, 40.8, 626.735055)" x="40.8" y="626.735055">2.8</text>
     </g>
    </g>
    <g id="ytick_15">
     <g id="line2d_71">
      <g>
       <use style="stroke:#000000;stroke-width:0.8;" x="47.8" xlink:href="#m883ebc6f1e" y="592.505885"/>
      </g>
     </g>
     <g id="text_46">
      <text style="font-family:DejaVu Sans;font-size:10px;font-style:normal;font-weight:normal;text-anchor:end;" transform="rotate(-0, 40.8, 596.305104)" x="40.8" y="596.305104">3.0</text>
     </g>
    </g>
    <g id="ytick_16">
     <g id="line2d_72">
      <g>
       <use style="stroke:#000000;stroke-width:0.8;" x="47.8" xlink:href="#m883ebc6f1e" y="562.075934"/>
      </g>
     </g>
     <g id="text_47">
      <text style="font-family:DejaVu Sans;font-size:10px;font-style:normal;font-weight:normal;text-anchor:end;" transform="rotate(-0, 40.8, 565.875152)" x="40.8" y="565.875152">3.2</text>
     </g>
    </g>
    <g id="ytick_17">
     <g id="line2d_73">
      <g>
       <use style="stroke:#000000;stroke-width:0.8;" x="47.8" xlink:href="#m883ebc6f1e" y="531.645982"/>
      </g>
     </g>
     <g id="text_48">
      <text style="font-family:DejaVu Sans;font-size:10px;font-style:normal;font-weight:normal;text-anchor:end;" transform="rotate(-0, 40.8, 535.445201)" x="40.8" y="535.445201">3.4</text>
     </g>
    </g>
    <g id="ytick_18">
     <g id="line2d_74">
      <g>
       <use style="stroke:#000000;stroke-width:0.8;" x="47.8" xlink:href="#m883ebc6f1e" y="501.216031"/>
      </g>
     </g>
     <g id="text_49">
      <text style="font-family:DejaVu Sans;font-size:10px;font-style:normal;font-weight:normal;text-anchor:end;" transform="rotate(-0, 40.8, 505.01525)" x="40.8" y="505.01525">3.6</text>
     </g>
    </g>
    <g id="text_50">
     <text style="font-family:DejaVu Sans;font-size:10px;font-style:normal;font-weight:normal;text-anchor:middle;" transform="rotate(-90, 18.817187, 588.9)" x="18.817187" y="588.9">Log10 Hourly Pickup Count</text>
    </g>
   </g>
   <g id="line2d_75">
    <path clip-path="url(#pdc8ec8cf13)" d="M 97.91875 569.708572 
L 97.91875 542.419035 
" style="fill:none;stroke:#3d3d3d;stroke-linecap:square;stroke-width:1.5;"/>
   </g>
   <g id="line2d_76">
    <path clip-path="url(#pdc8ec8cf13)" d="M 97.91875 558.028765 
L 97.91875 547.870844 
" style="fill:none;stroke:#3d3d3d;stroke-linecap:square;stroke-width:4.5;"/>
   </g>
   <g id="line2d_77">
    <path clip-path="url(#pdc8ec8cf13)" d="M 198.15625 567.499638 
L 198.15625 533.781622 
" style="fill:none;stroke:#3d3d3d;stroke-linecap:square;stroke-width:1.5;"/>
   </g>
   <g id="line2d_78">
    <path clip-path="url(#pdc8ec8cf13)" d="M 198.15625 551.606219 
L 198.15625 540.797975 
" style="fill:none;stroke:#3d3d3d;stroke-linecap:square;stroke-width:4.5;"/>
   </g>
   <g id="line2d_79">
    <path clip-path="url(#pdc8ec8cf13)" d="M 298.39375 570.27254 
L 298.39375 523.743344 
" style="fill:none;stroke:#3d3d3d;stroke-linecap:square;stroke-width:1.5;"/>
   </g>
   <g id="line2d_80">
    <path clip-path="url(#pdc8ec8cf13)" d="M 298.39375 562.322092 
L 298.39375 542.140942 
" style="fill:none;stroke:#3d3d3d;stroke-linecap:square;stroke-width:4.5;"/>
   </g>
   <g id="line2d_81">
    <path clip-path="url(#pdc8ec8cf13)" d="M 398.63125 572.822637 
L 398.63125 539.156763 
" style="fill:none;stroke:#3d3d3d;stroke-linecap:square;stroke-width:1.5;"/>
   </g>
   <g id="line2d_82">
    <path clip-path="url(#pdc8ec8cf13)" d="M 398.63125 560.302719 
L 398.63125 544.943804 
" style="fill:none;stroke:#3d3d3d;stroke-linecap:square;stroke-width:4.5;"/>
   </g>
   <g id="line2d_83">
    <path clip-path="url(#pdc8ec8cf13)" d="M 498.86875 574.160591 
L 498.86875 537.325591 
" style="fill:none;stroke:#3d3d3d;stroke-linecap:square;stroke-width:1.5;"/>
   </g>
   <g id="line2d_84">
    <path clip-path="url(#pdc8ec8cf13)" d="M 498.86875 561.946531 
L 498.86875 548.174185 
" style="fill:none;stroke:#3d3d3d;stroke-linecap:square;stroke-width:4.5;"/>
   </g>
   <g id="line2d_85">
    <path clip-path="url(#pdc8ec8cf13)" d="M 599.10625 582.926866 
L 599.10625 534.464391 
" style="fill:none;stroke:#3d3d3d;stroke-linecap:square;stroke-width:1.5;"/>
   </g>
   <g id="line2d_86">
    <path clip-path="url(#pdc8ec8cf13)" d="M 599.10625 562.78403 
L 599.10625 548.411084 
" style="fill:none;stroke:#3d3d3d;stroke-linecap:square;stroke-width:4.5;"/>
   </g>
   <g id="line2d_87">
    <path clip-path="url(#pdc8ec8cf13)" d="M 699.34375 608.501441 
L 699.34375 530.72868 
" style="fill:none;stroke:#3d3d3d;stroke-linecap:square;stroke-width:1.5;"/>
   </g>
   <g id="line2d_88">
    <path clip-path="url(#pdc8ec8cf13)" d="M 699.34375 581.233918 
L 699.34375 550.512249 
" style="fill:none;stroke:#3d3d3d;stroke-linecap:square;stroke-width:4.5;"/>
   </g>
   <g id="line2d_89">
    <path clip-path="url(#pdc8ec8cf13)" d="M 799.58125 638.175502 
L 799.58125 545.363347 
" style="fill:none;stroke:#3d3d3d;stroke-linecap:square;stroke-width:1.5;"/>
   </g>
   <g id="line2d_90">
    <path clip-path="url(#pdc8ec8cf13)" d="M 799.58125 614.765666 
L 799.58125 572.871711 
" style="fill:none;stroke:#3d3d3d;stroke-linecap:square;stroke-width:4.5;"/>
   </g>
   <g id="patch_13">
    <path d="M 47.8 678.2 
L 47.8 499.6 
" style="fill:none;stroke:#000000;stroke-linecap:square;stroke-linejoin:miter;stroke-width:0.8;"/>
   </g>
   <g id="patch_14">
    <path d="M 849.7 678.2 
L 849.7 499.6 
" style="fill:none;stroke:#000000;stroke-linecap:square;stroke-linejoin:miter;stroke-width:0.8;"/>
   </g>
   <g id="patch_15">
    <path d="M 47.8 678.2 
L 849.7 678.2 
" style="fill:none;stroke:#000000;stroke-linecap:square;stroke-linejoin:miter;stroke-width:0.8;"/>
   </g>
   <g id="patch_16">
    <path d="M 47.8 499.6 
L 849.7 499.6 
" style="fill:none;stroke:#000000;stroke-linecap:square;stroke-linejoin:miter;stroke-width:0.8;"/>
   </g>
   <g id="PathCollection_17">
    <g clip-path="url(#pdc8ec8cf13)">
     <use style="fill:#ffffff;stroke:#3d3d3d;" x="97.91875" xlink:href="#m89b22772f8" y="551.713055"/>
    </g>
   </g>
   <g id="PathCollection_18">
    <g clip-path="url(#pdc8ec8cf13)">
     <use style="fill:#ffffff;stroke:#3d3d3d;" x="198.15625" xlink:href="#m89b22772f8" y="549.195501"/>
    </g>
   </g>
   <g id="PathCollection_19">
    <g clip-path="url(#pdc8ec8cf13)">
     <use style="fill:#ffffff;stroke:#3d3d3d;" x="298.39375" xlink:href="#m89b22772f8" y="549.401672"/>
    </g>
   </g>
   <g id="PathCollection_20">
    <g clip-path="url(#pdc8ec8cf13)">
     <use style="fill:#ffffff;stroke:#3d3d3d;" x="398.63125" xlink:href="#m89b22772f8" y="553.446342"/>
    </g>
   </g>
   <g id="PathCollection_21">
    <g clip-path="url(#pdc8ec8cf13)">
     <use style="fill:#ffffff;stroke:#3d3d3d;" x="498.86875" xlink:href="#m89b22772f8" y="553.373207"/>
    </g>
   </g>
   <g id="PathCollection_22">
    <g clip-path="url(#pdc8ec8cf13)">
     <use style="fill:#ffffff;stroke:#3d3d3d;" x="599.10625" xlink:href="#m89b22772f8" y="553.629536"/>
    </g>
   </g>
   <g id="PathCollection_23">
    <g clip-path="url(#pdc8ec8cf13)">
     <use style="fill:#ffffff;stroke:#3d3d3d;" x="699.34375" xlink:href="#m89b22772f8" y="571.511237"/>
    </g>
   </g>
   <g id="PathCollection_24">
    <g clip-path="url(#pdc8ec8cf13)">
     <use style="fill:#ffffff;stroke:#3d3d3d;" x="799.58125" xlink:href="#m89b22772f8" y="604.263188"/>
    </g>
   </g>
   <g id="text_51">
    <text style="font-family:DejaVu Sans;font-size:12px;font-style:normal;font-weight:normal;text-anchor:middle;" transform="rotate(-0, 448.75, 493.6)" x="448.75" y="493.6">Weekday Hourly Pickup Distributions for Afternoon to Night</text>
   </g>
  </g>
 </g>
 <defs>
  <clipPath id="p6c23037611">
   <rect height="178.6" width="801.9" x="47.8" y="26.8"/>
  </clipPath>
  <clipPath id="p07ce7723ad">
   <rect height="178.6" width="801.9" x="47.8" y="263.2"/>
  </clipPath>
  <clipPath id="pdc8ec8cf13">
   <rect height="178.6" width="801.9" x="47.8" y="499.6"/>
  </clipPath>
 </defs>
</svg>
